<?xml version="1.0" encoding="utf-8" standalone="no"?>
<!DOCTYPE svg PUBLIC "-//W3C//DTD SVG 1.1//EN"
  "http://www.w3.org/Graphics/SVG/1.1/DTD/svg11.dtd">
<svg xmlns:xlink="http://www.w3.org/1999/xlink" width="417.198828pt" height="342.192344pt" viewBox="0 0 417.198828 342.192344" xmlns="http://www.w3.org/2000/svg" version="1.1">
 <metadata>
  <rdf:RDF xmlns:dc="http://purl.org/dc/elements/1.1/" xmlns:cc="http://creativecommons.org/ns#" xmlns:rdf="http://www.w3.org/1999/02/22-rdf-syntax-ns#">
   <cc:Work>
    <dc:type rdf:resource="http://purl.org/dc/dcmitype/StillImage"/>
    <dc:date>2024-10-03T10:12:26.639560</dc:date>
    <dc:format>image/svg+xml</dc:format>
    <dc:creator>
     <cc:Agent>
      <dc:title>Matplotlib v3.9.1.post1, https://matplotlib.org/</dc:title>
     </cc:Agent>
    </dc:creator>
   </cc:Work>
  </rdf:RDF>
 </metadata>
 <defs>
  <style type="text/css">*{stroke-linejoin: round; stroke-linecap: butt}</style>
 </defs>
 <g id="figure_1">
  <g id="patch_1">
   <path d="M -0 342.192344 
L 417.198828 342.192344 
L 417.198828 0 
L -0 0 
z
" style="fill: #ffffff"/>
  </g>
  <g id="axes_1">
   <g id="patch_2">
    <path d="M 86.61875 295.179844 
L 413.598828 295.179844 
L 413.598828 23.199844 
L 86.61875 23.199844 
z
" style="fill: #eeeeee"/>
   </g>
   <g id="matplotlib.axis_1">
    <g id="xtick_1">
     <g id="line2d_1">
      <path d="M 136.022785 295.179844 
L 136.022785 23.199844 
" clip-path="url(#p8c5251275a)" style="fill: none; stroke-dasharray: 1.85,0.8; stroke-dashoffset: 0; stroke: #000000; stroke-opacity: 0.5; stroke-width: 0.5"/>
     </g>
     <g id="line2d_2">
      <defs>
       <path id="m0937e8469a" d="M 0 0 
L 0 -6 
" style="stroke: #000000"/>
      </defs>
      <g>
       <use xlink:href="#m0937e8469a" x="136.022785" y="295.179844" style="stroke: #000000"/>
      </g>
     </g>
     <g id="line2d_3">
      <defs>
       <path id="m754c8fddae" d="M 0 0 
L 0 6 
" style="stroke: #000000"/>
      </defs>
      <g>
       <use xlink:href="#m754c8fddae" x="136.022785" y="23.199844" style="stroke: #000000"/>
      </g>
     </g>
     <g id="text_1">
      <!-- 5000 -->
      <g transform="translate(118.227785 310.132344) scale(0.16 -0.16)">
       <defs>
        <path id="ArialMT-35" d="M 266 1200 
L 856 1250 
Q 922 819 1161 601 
Q 1400 384 1738 384 
Q 2144 384 2425 690 
Q 2706 997 2706 1503 
Q 2706 1984 2436 2262 
Q 2166 2541 1728 2541 
Q 1456 2541 1237 2417 
Q 1019 2294 894 2097 
L 366 2166 
L 809 4519 
L 3088 4519 
L 3088 3981 
L 1259 3981 
L 1013 2750 
Q 1425 3038 1878 3038 
Q 2478 3038 2890 2622 
Q 3303 2206 3303 1553 
Q 3303 931 2941 478 
Q 2500 -78 1738 -78 
Q 1113 -78 717 272 
Q 322 622 266 1200 
z
" transform="scale(0.015625)"/>
        <path id="ArialMT-30" d="M 266 2259 
Q 266 3072 433 3567 
Q 600 4063 929 4331 
Q 1259 4600 1759 4600 
Q 2128 4600 2406 4451 
Q 2684 4303 2865 4023 
Q 3047 3744 3150 3342 
Q 3253 2941 3253 2259 
Q 3253 1453 3087 958 
Q 2922 463 2592 192 
Q 2263 -78 1759 -78 
Q 1097 -78 719 397 
Q 266 969 266 2259 
z
M 844 2259 
Q 844 1131 1108 757 
Q 1372 384 1759 384 
Q 2147 384 2411 759 
Q 2675 1134 2675 2259 
Q 2675 3391 2411 3762 
Q 2147 4134 1753 4134 
Q 1366 4134 1134 3806 
Q 844 3388 844 2259 
z
" transform="scale(0.015625)"/>
       </defs>
       <use xlink:href="#ArialMT-35"/>
       <use xlink:href="#ArialMT-30" x="55.615234"/>
       <use xlink:href="#ArialMT-30" x="111.230469"/>
       <use xlink:href="#ArialMT-30" x="166.845703"/>
      </g>
     </g>
    </g>
    <g id="xtick_2">
     <g id="line2d_4">
      <path d="M 192.803213 295.179844 
L 192.803213 23.199844 
" clip-path="url(#p8c5251275a)" style="fill: none; stroke-dasharray: 1.85,0.8; stroke-dashoffset: 0; stroke: #000000; stroke-opacity: 0.5; stroke-width: 0.5"/>
     </g>
     <g id="line2d_5">
      <g>
       <use xlink:href="#m0937e8469a" x="192.803213" y="295.179844" style="stroke: #000000"/>
      </g>
     </g>
     <g id="line2d_6">
      <g>
       <use xlink:href="#m754c8fddae" x="192.803213" y="23.199844" style="stroke: #000000"/>
      </g>
     </g>
     <g id="text_2">
      <!-- 7500 -->
      <g transform="translate(175.008213 310.132344) scale(0.16 -0.16)">
       <defs>
        <path id="ArialMT-37" d="M 303 3981 
L 303 4522 
L 3269 4522 
L 3269 4084 
Q 2831 3619 2401 2847 
Q 1972 2075 1738 1259 
Q 1569 684 1522 0 
L 944 0 
Q 953 541 1156 1306 
Q 1359 2072 1739 2783 
Q 2119 3494 2547 3981 
L 303 3981 
z
" transform="scale(0.015625)"/>
       </defs>
       <use xlink:href="#ArialMT-37"/>
       <use xlink:href="#ArialMT-35" x="55.615234"/>
       <use xlink:href="#ArialMT-30" x="111.230469"/>
       <use xlink:href="#ArialMT-30" x="166.845703"/>
      </g>
     </g>
    </g>
    <g id="xtick_3">
     <g id="line2d_7">
      <path d="M 249.583641 295.179844 
L 249.583641 23.199844 
" clip-path="url(#p8c5251275a)" style="fill: none; stroke-dasharray: 1.85,0.8; stroke-dashoffset: 0; stroke: #000000; stroke-opacity: 0.5; stroke-width: 0.5"/>
     </g>
     <g id="line2d_8">
      <g>
       <use xlink:href="#m0937e8469a" x="249.583641" y="295.179844" style="stroke: #000000"/>
      </g>
     </g>
     <g id="line2d_9">
      <g>
       <use xlink:href="#m754c8fddae" x="249.583641" y="23.199844" style="stroke: #000000"/>
      </g>
     </g>
     <g id="text_3">
      <!-- 10000 -->
      <g transform="translate(227.339891 310.132344) scale(0.16 -0.16)">
       <defs>
        <path id="ArialMT-31" d="M 2384 0 
L 1822 0 
L 1822 3584 
Q 1619 3391 1289 3197 
Q 959 3003 697 2906 
L 697 3450 
Q 1169 3672 1522 3987 
Q 1875 4303 2022 4600 
L 2384 4600 
L 2384 0 
z
" transform="scale(0.015625)"/>
       </defs>
       <use xlink:href="#ArialMT-31"/>
       <use xlink:href="#ArialMT-30" x="55.615234"/>
       <use xlink:href="#ArialMT-30" x="111.230469"/>
       <use xlink:href="#ArialMT-30" x="166.845703"/>
       <use xlink:href="#ArialMT-30" x="222.460938"/>
      </g>
     </g>
    </g>
    <g id="xtick_4">
     <g id="line2d_10">
      <path d="M 306.364069 295.179844 
L 306.364069 23.199844 
" clip-path="url(#p8c5251275a)" style="fill: none; stroke-dasharray: 1.85,0.8; stroke-dashoffset: 0; stroke: #000000; stroke-opacity: 0.5; stroke-width: 0.5"/>
     </g>
     <g id="line2d_11">
      <g>
       <use xlink:href="#m0937e8469a" x="306.364069" y="295.179844" style="stroke: #000000"/>
      </g>
     </g>
     <g id="line2d_12">
      <g>
       <use xlink:href="#m754c8fddae" x="306.364069" y="23.199844" style="stroke: #000000"/>
      </g>
     </g>
     <g id="text_4">
      <!-- 12500 -->
      <g transform="translate(284.120319 310.132344) scale(0.16 -0.16)">
       <defs>
        <path id="ArialMT-32" d="M 3222 541 
L 3222 0 
L 194 0 
Q 188 203 259 391 
Q 375 700 629 1000 
Q 884 1300 1366 1694 
Q 2113 2306 2375 2664 
Q 2638 3022 2638 3341 
Q 2638 3675 2398 3904 
Q 2159 4134 1775 4134 
Q 1369 4134 1125 3890 
Q 881 3647 878 3216 
L 300 3275 
Q 359 3922 746 4261 
Q 1134 4600 1788 4600 
Q 2447 4600 2831 4234 
Q 3216 3869 3216 3328 
Q 3216 3053 3103 2787 
Q 2991 2522 2730 2228 
Q 2469 1934 1863 1422 
Q 1356 997 1212 845 
Q 1069 694 975 541 
L 3222 541 
z
" transform="scale(0.015625)"/>
       </defs>
       <use xlink:href="#ArialMT-31"/>
       <use xlink:href="#ArialMT-32" x="55.615234"/>
       <use xlink:href="#ArialMT-35" x="111.230469"/>
       <use xlink:href="#ArialMT-30" x="166.845703"/>
       <use xlink:href="#ArialMT-30" x="222.460938"/>
      </g>
     </g>
    </g>
    <g id="xtick_5">
     <g id="line2d_13">
      <path d="M 363.144497 295.179844 
L 363.144497 23.199844 
" clip-path="url(#p8c5251275a)" style="fill: none; stroke-dasharray: 1.85,0.8; stroke-dashoffset: 0; stroke: #000000; stroke-opacity: 0.5; stroke-width: 0.5"/>
     </g>
     <g id="line2d_14">
      <g>
       <use xlink:href="#m0937e8469a" x="363.144497" y="295.179844" style="stroke: #000000"/>
      </g>
     </g>
     <g id="line2d_15">
      <g>
       <use xlink:href="#m754c8fddae" x="363.144497" y="23.199844" style="stroke: #000000"/>
      </g>
     </g>
     <g id="text_5">
      <!-- 15000 -->
      <g transform="translate(340.900747 310.132344) scale(0.16 -0.16)">
       <use xlink:href="#ArialMT-31"/>
       <use xlink:href="#ArialMT-35" x="55.615234"/>
       <use xlink:href="#ArialMT-30" x="111.230469"/>
       <use xlink:href="#ArialMT-30" x="166.845703"/>
       <use xlink:href="#ArialMT-30" x="222.460938"/>
      </g>
     </g>
    </g>
    <g id="xtick_6">
     <g id="line2d_16">
      <defs>
       <path id="mab0b77a895" d="M 0 0 
L 0 -3 
" style="stroke: #000000"/>
      </defs>
      <g>
       <use xlink:href="#mab0b77a895" x="90.598442" y="295.179844" style="stroke: #000000"/>
      </g>
     </g>
     <g id="line2d_17">
      <defs>
       <path id="m05bd7638cc" d="M 0 0 
L 0 3 
" style="stroke: #000000"/>
      </defs>
      <g>
       <use xlink:href="#m05bd7638cc" x="90.598442" y="23.199844" style="stroke: #000000"/>
      </g>
     </g>
    </g>
    <g id="xtick_7">
     <g id="line2d_18">
      <g>
       <use xlink:href="#mab0b77a895" x="101.954528" y="295.179844" style="stroke: #000000"/>
      </g>
     </g>
     <g id="line2d_19">
      <g>
       <use xlink:href="#m05bd7638cc" x="101.954528" y="23.199844" style="stroke: #000000"/>
      </g>
     </g>
    </g>
    <g id="xtick_8">
     <g id="line2d_20">
      <g>
       <use xlink:href="#mab0b77a895" x="113.310614" y="295.179844" style="stroke: #000000"/>
      </g>
     </g>
     <g id="line2d_21">
      <g>
       <use xlink:href="#m05bd7638cc" x="113.310614" y="23.199844" style="stroke: #000000"/>
      </g>
     </g>
    </g>
    <g id="xtick_9">
     <g id="line2d_22">
      <g>
       <use xlink:href="#mab0b77a895" x="124.666699" y="295.179844" style="stroke: #000000"/>
      </g>
     </g>
     <g id="line2d_23">
      <g>
       <use xlink:href="#m05bd7638cc" x="124.666699" y="23.199844" style="stroke: #000000"/>
      </g>
     </g>
    </g>
    <g id="xtick_10">
     <g id="line2d_24">
      <g>
       <use xlink:href="#mab0b77a895" x="147.37887" y="295.179844" style="stroke: #000000"/>
      </g>
     </g>
     <g id="line2d_25">
      <g>
       <use xlink:href="#m05bd7638cc" x="147.37887" y="23.199844" style="stroke: #000000"/>
      </g>
     </g>
    </g>
    <g id="xtick_11">
     <g id="line2d_26">
      <g>
       <use xlink:href="#mab0b77a895" x="158.734956" y="295.179844" style="stroke: #000000"/>
      </g>
     </g>
     <g id="line2d_27">
      <g>
       <use xlink:href="#m05bd7638cc" x="158.734956" y="23.199844" style="stroke: #000000"/>
      </g>
     </g>
    </g>
    <g id="xtick_12">
     <g id="line2d_28">
      <g>
       <use xlink:href="#mab0b77a895" x="170.091042" y="295.179844" style="stroke: #000000"/>
      </g>
     </g>
     <g id="line2d_29">
      <g>
       <use xlink:href="#m05bd7638cc" x="170.091042" y="23.199844" style="stroke: #000000"/>
      </g>
     </g>
    </g>
    <g id="xtick_13">
     <g id="line2d_30">
      <g>
       <use xlink:href="#mab0b77a895" x="181.447127" y="295.179844" style="stroke: #000000"/>
      </g>
     </g>
     <g id="line2d_31">
      <g>
       <use xlink:href="#m05bd7638cc" x="181.447127" y="23.199844" style="stroke: #000000"/>
      </g>
     </g>
    </g>
    <g id="xtick_14">
     <g id="line2d_32">
      <g>
       <use xlink:href="#mab0b77a895" x="204.159298" y="295.179844" style="stroke: #000000"/>
      </g>
     </g>
     <g id="line2d_33">
      <g>
       <use xlink:href="#m05bd7638cc" x="204.159298" y="23.199844" style="stroke: #000000"/>
      </g>
     </g>
    </g>
    <g id="xtick_15">
     <g id="line2d_34">
      <g>
       <use xlink:href="#mab0b77a895" x="215.515384" y="295.179844" style="stroke: #000000"/>
      </g>
     </g>
     <g id="line2d_35">
      <g>
       <use xlink:href="#m05bd7638cc" x="215.515384" y="23.199844" style="stroke: #000000"/>
      </g>
     </g>
    </g>
    <g id="xtick_16">
     <g id="line2d_36">
      <g>
       <use xlink:href="#mab0b77a895" x="226.87147" y="295.179844" style="stroke: #000000"/>
      </g>
     </g>
     <g id="line2d_37">
      <g>
       <use xlink:href="#m05bd7638cc" x="226.87147" y="23.199844" style="stroke: #000000"/>
      </g>
     </g>
    </g>
    <g id="xtick_17">
     <g id="line2d_38">
      <g>
       <use xlink:href="#mab0b77a895" x="238.227555" y="295.179844" style="stroke: #000000"/>
      </g>
     </g>
     <g id="line2d_39">
      <g>
       <use xlink:href="#m05bd7638cc" x="238.227555" y="23.199844" style="stroke: #000000"/>
      </g>
     </g>
    </g>
    <g id="xtick_18">
     <g id="line2d_40">
      <g>
       <use xlink:href="#mab0b77a895" x="260.939726" y="295.179844" style="stroke: #000000"/>
      </g>
     </g>
     <g id="line2d_41">
      <g>
       <use xlink:href="#m05bd7638cc" x="260.939726" y="23.199844" style="stroke: #000000"/>
      </g>
     </g>
    </g>
    <g id="xtick_19">
     <g id="line2d_42">
      <g>
       <use xlink:href="#mab0b77a895" x="272.295812" y="295.179844" style="stroke: #000000"/>
      </g>
     </g>
     <g id="line2d_43">
      <g>
       <use xlink:href="#m05bd7638cc" x="272.295812" y="23.199844" style="stroke: #000000"/>
      </g>
     </g>
    </g>
    <g id="xtick_20">
     <g id="line2d_44">
      <g>
       <use xlink:href="#mab0b77a895" x="283.651898" y="295.179844" style="stroke: #000000"/>
      </g>
     </g>
     <g id="line2d_45">
      <g>
       <use xlink:href="#m05bd7638cc" x="283.651898" y="23.199844" style="stroke: #000000"/>
      </g>
     </g>
    </g>
    <g id="xtick_21">
     <g id="line2d_46">
      <g>
       <use xlink:href="#mab0b77a895" x="295.007983" y="295.179844" style="stroke: #000000"/>
      </g>
     </g>
     <g id="line2d_47">
      <g>
       <use xlink:href="#m05bd7638cc" x="295.007983" y="23.199844" style="stroke: #000000"/>
      </g>
     </g>
    </g>
    <g id="xtick_22">
     <g id="line2d_48">
      <g>
       <use xlink:href="#mab0b77a895" x="317.720154" y="295.179844" style="stroke: #000000"/>
      </g>
     </g>
     <g id="line2d_49">
      <g>
       <use xlink:href="#m05bd7638cc" x="317.720154" y="23.199844" style="stroke: #000000"/>
      </g>
     </g>
    </g>
    <g id="xtick_23">
     <g id="line2d_50">
      <g>
       <use xlink:href="#mab0b77a895" x="329.07624" y="295.179844" style="stroke: #000000"/>
      </g>
     </g>
     <g id="line2d_51">
      <g>
       <use xlink:href="#m05bd7638cc" x="329.07624" y="23.199844" style="stroke: #000000"/>
      </g>
     </g>
    </g>
    <g id="xtick_24">
     <g id="line2d_52">
      <g>
       <use xlink:href="#mab0b77a895" x="340.432326" y="295.179844" style="stroke: #000000"/>
      </g>
     </g>
     <g id="line2d_53">
      <g>
       <use xlink:href="#m05bd7638cc" x="340.432326" y="23.199844" style="stroke: #000000"/>
      </g>
     </g>
    </g>
    <g id="xtick_25">
     <g id="line2d_54">
      <g>
       <use xlink:href="#mab0b77a895" x="351.788411" y="295.179844" style="stroke: #000000"/>
      </g>
     </g>
     <g id="line2d_55">
      <g>
       <use xlink:href="#m05bd7638cc" x="351.788411" y="23.199844" style="stroke: #000000"/>
      </g>
     </g>
    </g>
    <g id="xtick_26">
     <g id="line2d_56">
      <g>
       <use xlink:href="#mab0b77a895" x="374.500582" y="295.179844" style="stroke: #000000"/>
      </g>
     </g>
     <g id="line2d_57">
      <g>
       <use xlink:href="#m05bd7638cc" x="374.500582" y="23.199844" style="stroke: #000000"/>
      </g>
     </g>
    </g>
    <g id="xtick_27">
     <g id="line2d_58">
      <g>
       <use xlink:href="#mab0b77a895" x="385.856668" y="295.179844" style="stroke: #000000"/>
      </g>
     </g>
     <g id="line2d_59">
      <g>
       <use xlink:href="#m05bd7638cc" x="385.856668" y="23.199844" style="stroke: #000000"/>
      </g>
     </g>
    </g>
    <g id="xtick_28">
     <g id="line2d_60">
      <g>
       <use xlink:href="#mab0b77a895" x="397.212753" y="295.179844" style="stroke: #000000"/>
      </g>
     </g>
     <g id="line2d_61">
      <g>
       <use xlink:href="#m05bd7638cc" x="397.212753" y="23.199844" style="stroke: #000000"/>
      </g>
     </g>
    </g>
    <g id="xtick_29">
     <g id="line2d_62">
      <g>
       <use xlink:href="#mab0b77a895" x="408.568839" y="295.179844" style="stroke: #000000"/>
      </g>
     </g>
     <g id="line2d_63">
      <g>
       <use xlink:href="#m05bd7638cc" x="408.568839" y="23.199844" style="stroke: #000000"/>
      </g>
     </g>
    </g>
    <g id="text_6">
     <!-- Impedância $(\text{m}/\text{s})\cdot(\text{g}/\text{cm}^{2})$ -->
     <g style="fill: #212121" transform="translate(131.073789 334.602344) scale(0.19 -0.19)">
      <defs>
       <path id="ArialMT-49" d="M 597 0 
L 597 4581 
L 1203 4581 
L 1203 0 
L 597 0 
z
" transform="scale(0.015625)"/>
       <path id="ArialMT-6d" d="M 422 0 
L 422 3319 
L 925 3319 
L 925 2853 
Q 1081 3097 1340 3245 
Q 1600 3394 1931 3394 
Q 2300 3394 2536 3241 
Q 2772 3088 2869 2813 
Q 3263 3394 3894 3394 
Q 4388 3394 4653 3120 
Q 4919 2847 4919 2278 
L 4919 0 
L 4359 0 
L 4359 2091 
Q 4359 2428 4304 2576 
Q 4250 2725 4106 2815 
Q 3963 2906 3769 2906 
Q 3419 2906 3187 2673 
Q 2956 2441 2956 1928 
L 2956 0 
L 2394 0 
L 2394 2156 
Q 2394 2531 2256 2718 
Q 2119 2906 1806 2906 
Q 1569 2906 1367 2781 
Q 1166 2656 1075 2415 
Q 984 2175 984 1722 
L 984 0 
L 422 0 
z
" transform="scale(0.015625)"/>
       <path id="ArialMT-70" d="M 422 -1272 
L 422 3319 
L 934 3319 
L 934 2888 
Q 1116 3141 1344 3267 
Q 1572 3394 1897 3394 
Q 2322 3394 2647 3175 
Q 2972 2956 3137 2557 
Q 3303 2159 3303 1684 
Q 3303 1175 3120 767 
Q 2938 359 2589 142 
Q 2241 -75 1856 -75 
Q 1575 -75 1351 44 
Q 1128 163 984 344 
L 984 -1272 
L 422 -1272 
z
M 931 1641 
Q 931 1000 1190 694 
Q 1450 388 1819 388 
Q 2194 388 2461 705 
Q 2728 1022 2728 1688 
Q 2728 2322 2467 2637 
Q 2206 2953 1844 2953 
Q 1484 2953 1207 2617 
Q 931 2281 931 1641 
z
" transform="scale(0.015625)"/>
       <path id="ArialMT-65" d="M 2694 1069 
L 3275 997 
Q 3138 488 2766 206 
Q 2394 -75 1816 -75 
Q 1088 -75 661 373 
Q 234 822 234 1631 
Q 234 2469 665 2931 
Q 1097 3394 1784 3394 
Q 2450 3394 2872 2941 
Q 3294 2488 3294 1666 
Q 3294 1616 3291 1516 
L 816 1516 
Q 847 969 1125 678 
Q 1403 388 1819 388 
Q 2128 388 2347 550 
Q 2566 713 2694 1069 
z
M 847 1978 
L 2700 1978 
Q 2663 2397 2488 2606 
Q 2219 2931 1791 2931 
Q 1403 2931 1139 2672 
Q 875 2413 847 1978 
z
" transform="scale(0.015625)"/>
       <path id="ArialMT-64" d="M 2575 0 
L 2575 419 
Q 2259 -75 1647 -75 
Q 1250 -75 917 144 
Q 584 363 401 755 
Q 219 1147 219 1656 
Q 219 2153 384 2558 
Q 550 2963 881 3178 
Q 1213 3394 1622 3394 
Q 1922 3394 2156 3267 
Q 2391 3141 2538 2938 
L 2538 4581 
L 3097 4581 
L 3097 0 
L 2575 0 
z
M 797 1656 
Q 797 1019 1065 703 
Q 1334 388 1700 388 
Q 2069 388 2326 689 
Q 2584 991 2584 1609 
Q 2584 2291 2321 2609 
Q 2059 2928 1675 2928 
Q 1300 2928 1048 2622 
Q 797 2316 797 1656 
z
" transform="scale(0.015625)"/>
       <path id="ArialMT-e2" d="M 2588 409 
Q 2275 144 1986 34 
Q 1697 -75 1366 -75 
Q 819 -75 525 192 
Q 231 459 231 875 
Q 231 1119 342 1320 
Q 453 1522 633 1644 
Q 813 1766 1038 1828 
Q 1203 1872 1538 1913 
Q 2219 1994 2541 2106 
Q 2544 2222 2544 2253 
Q 2544 2597 2384 2738 
Q 2169 2928 1744 2928 
Q 1347 2928 1158 2789 
Q 969 2650 878 2297 
L 328 2372 
Q 403 2725 575 2942 
Q 747 3159 1072 3276 
Q 1397 3394 1825 3394 
Q 2250 3394 2515 3294 
Q 2781 3194 2906 3042 
Q 3031 2891 3081 2659 
Q 3109 2516 3109 2141 
L 3109 1391 
Q 3109 606 3145 398 
Q 3181 191 3288 0 
L 2700 0 
Q 2613 175 2588 409 
z
M 2541 1666 
Q 2234 1541 1622 1453 
Q 1275 1403 1131 1340 
Q 988 1278 909 1158 
Q 831 1038 831 891 
Q 831 666 1001 516 
Q 1172 366 1500 366 
Q 1825 366 2078 508 
Q 2331 650 2450 897 
Q 2541 1088 2541 1459 
L 2541 1666 
z
M 1771 4263 
L 1418 3731 
L 774 3731 
L 1449 4606 
L 2049 4606 
L 2752 3731 
L 2115 3731 
L 1771 4263 
z
" transform="scale(0.015625)"/>
       <path id="ArialMT-6e" d="M 422 0 
L 422 3319 
L 928 3319 
L 928 2847 
Q 1294 3394 1984 3394 
Q 2284 3394 2536 3286 
Q 2788 3178 2913 3003 
Q 3038 2828 3088 2588 
Q 3119 2431 3119 2041 
L 3119 0 
L 2556 0 
L 2556 2019 
Q 2556 2363 2490 2533 
Q 2425 2703 2258 2804 
Q 2091 2906 1866 2906 
Q 1506 2906 1245 2678 
Q 984 2450 984 1813 
L 984 0 
L 422 0 
z
" transform="scale(0.015625)"/>
       <path id="ArialMT-63" d="M 2588 1216 
L 3141 1144 
Q 3050 572 2676 248 
Q 2303 -75 1759 -75 
Q 1078 -75 664 370 
Q 250 816 250 1647 
Q 250 2184 428 2587 
Q 606 2991 970 3192 
Q 1334 3394 1763 3394 
Q 2303 3394 2647 3120 
Q 2991 2847 3088 2344 
L 2541 2259 
Q 2463 2594 2264 2762 
Q 2066 2931 1784 2931 
Q 1359 2931 1093 2626 
Q 828 2322 828 1663 
Q 828 994 1084 691 
Q 1341 388 1753 388 
Q 2084 388 2306 591 
Q 2528 794 2588 1216 
z
" transform="scale(0.015625)"/>
       <path id="ArialMT-69" d="M 425 3934 
L 425 4581 
L 988 4581 
L 988 3934 
L 425 3934 
z
M 425 0 
L 425 3319 
L 988 3319 
L 988 0 
L 425 0 
z
" transform="scale(0.015625)"/>
       <path id="ArialMT-61" d="M 2588 409 
Q 2275 144 1986 34 
Q 1697 -75 1366 -75 
Q 819 -75 525 192 
Q 231 459 231 875 
Q 231 1119 342 1320 
Q 453 1522 633 1644 
Q 813 1766 1038 1828 
Q 1203 1872 1538 1913 
Q 2219 1994 2541 2106 
Q 2544 2222 2544 2253 
Q 2544 2597 2384 2738 
Q 2169 2928 1744 2928 
Q 1347 2928 1158 2789 
Q 969 2650 878 2297 
L 328 2372 
Q 403 2725 575 2942 
Q 747 3159 1072 3276 
Q 1397 3394 1825 3394 
Q 2250 3394 2515 3294 
Q 2781 3194 2906 3042 
Q 3031 2891 3081 2659 
Q 3109 2516 3109 2141 
L 3109 1391 
Q 3109 606 3145 398 
Q 3181 191 3288 0 
L 2700 0 
Q 2613 175 2588 409 
z
M 2541 1666 
Q 2234 1541 1622 1453 
Q 1275 1403 1131 1340 
Q 988 1278 909 1158 
Q 831 1038 831 891 
Q 831 666 1001 516 
Q 1172 366 1500 366 
Q 1825 366 2078 508 
Q 2331 650 2450 897 
Q 2541 1088 2541 1459 
L 2541 1666 
z
" transform="scale(0.015625)"/>
       <path id="ArialMT-20" transform="scale(0.015625)"/>
       <path id="DejaVuSans-28" d="M 1984 4856 
Q 1566 4138 1362 3434 
Q 1159 2731 1159 2009 
Q 1159 1288 1364 580 
Q 1569 -128 1984 -844 
L 1484 -844 
Q 1016 -109 783 600 
Q 550 1309 550 2009 
Q 550 2706 781 3412 
Q 1013 4119 1484 4856 
L 1984 4856 
z
" transform="scale(0.015625)"/>
       <path id="DejaVuSans-6d" d="M 3328 2828 
Q 3544 3216 3844 3400 
Q 4144 3584 4550 3584 
Q 5097 3584 5394 3201 
Q 5691 2819 5691 2113 
L 5691 0 
L 5113 0 
L 5113 2094 
Q 5113 2597 4934 2840 
Q 4756 3084 4391 3084 
Q 3944 3084 3684 2787 
Q 3425 2491 3425 1978 
L 3425 0 
L 2847 0 
L 2847 2094 
Q 2847 2600 2669 2842 
Q 2491 3084 2119 3084 
Q 1678 3084 1418 2786 
Q 1159 2488 1159 1978 
L 1159 0 
L 581 0 
L 581 3500 
L 1159 3500 
L 1159 2956 
Q 1356 3278 1631 3431 
Q 1906 3584 2284 3584 
Q 2666 3584 2933 3390 
Q 3200 3197 3328 2828 
z
" transform="scale(0.015625)"/>
       <path id="DejaVuSans-2f" d="M 1625 4666 
L 2156 4666 
L 531 -594 
L 0 -594 
L 1625 4666 
z
" transform="scale(0.015625)"/>
       <path id="DejaVuSans-73" d="M 2834 3397 
L 2834 2853 
Q 2591 2978 2328 3040 
Q 2066 3103 1784 3103 
Q 1356 3103 1142 2972 
Q 928 2841 928 2578 
Q 928 2378 1081 2264 
Q 1234 2150 1697 2047 
L 1894 2003 
Q 2506 1872 2764 1633 
Q 3022 1394 3022 966 
Q 3022 478 2636 193 
Q 2250 -91 1575 -91 
Q 1294 -91 989 -36 
Q 684 19 347 128 
L 347 722 
Q 666 556 975 473 
Q 1284 391 1588 391 
Q 1994 391 2212 530 
Q 2431 669 2431 922 
Q 2431 1156 2273 1281 
Q 2116 1406 1581 1522 
L 1381 1569 
Q 847 1681 609 1914 
Q 372 2147 372 2553 
Q 372 3047 722 3315 
Q 1072 3584 1716 3584 
Q 2034 3584 2315 3537 
Q 2597 3491 2834 3397 
z
" transform="scale(0.015625)"/>
       <path id="DejaVuSans-29" d="M 513 4856 
L 1013 4856 
Q 1481 4119 1714 3412 
Q 1947 2706 1947 2009 
Q 1947 1309 1714 600 
Q 1481 -109 1013 -844 
L 513 -844 
Q 928 -128 1133 580 
Q 1338 1288 1338 2009 
Q 1338 2731 1133 3434 
Q 928 4138 513 4856 
z
" transform="scale(0.015625)"/>
       <path id="DejaVuSans-22c5" d="M 684 2619 
L 1344 2619 
L 1344 1825 
L 684 1825 
L 684 2619 
z
" transform="scale(0.015625)"/>
       <path id="DejaVuSans-67" d="M 2906 1791 
Q 2906 2416 2648 2759 
Q 2391 3103 1925 3103 
Q 1463 3103 1205 2759 
Q 947 2416 947 1791 
Q 947 1169 1205 825 
Q 1463 481 1925 481 
Q 2391 481 2648 825 
Q 2906 1169 2906 1791 
z
M 3481 434 
Q 3481 -459 3084 -895 
Q 2688 -1331 1869 -1331 
Q 1566 -1331 1297 -1286 
Q 1028 -1241 775 -1147 
L 775 -588 
Q 1028 -725 1275 -790 
Q 1522 -856 1778 -856 
Q 2344 -856 2625 -561 
Q 2906 -266 2906 331 
L 2906 616 
Q 2728 306 2450 153 
Q 2172 0 1784 0 
Q 1141 0 747 490 
Q 353 981 353 1791 
Q 353 2603 747 3093 
Q 1141 3584 1784 3584 
Q 2172 3584 2450 3431 
Q 2728 3278 2906 2969 
L 2906 3500 
L 3481 3500 
L 3481 434 
z
" transform="scale(0.015625)"/>
       <path id="DejaVuSans-63" d="M 3122 3366 
L 3122 2828 
Q 2878 2963 2633 3030 
Q 2388 3097 2138 3097 
Q 1578 3097 1268 2742 
Q 959 2388 959 1747 
Q 959 1106 1268 751 
Q 1578 397 2138 397 
Q 2388 397 2633 464 
Q 2878 531 3122 666 
L 3122 134 
Q 2881 22 2623 -34 
Q 2366 -91 2075 -91 
Q 1284 -91 818 406 
Q 353 903 353 1747 
Q 353 2603 823 3093 
Q 1294 3584 2113 3584 
Q 2378 3584 2631 3529 
Q 2884 3475 3122 3366 
z
" transform="scale(0.015625)"/>
       <path id="DejaVuSans-32" d="M 1228 531 
L 3431 531 
L 3431 0 
L 469 0 
L 469 531 
Q 828 903 1448 1529 
Q 2069 2156 2228 2338 
Q 2531 2678 2651 2914 
Q 2772 3150 2772 3378 
Q 2772 3750 2511 3984 
Q 2250 4219 1831 4219 
Q 1534 4219 1204 4116 
Q 875 4013 500 3803 
L 500 4441 
Q 881 4594 1212 4672 
Q 1544 4750 1819 4750 
Q 2544 4750 2975 4387 
Q 3406 4025 3406 3419 
Q 3406 3131 3298 2873 
Q 3191 2616 2906 2266 
Q 2828 2175 2409 1742 
Q 1991 1309 1228 531 
z
" transform="scale(0.015625)"/>
      </defs>
      <use xlink:href="#ArialMT-49" transform="translate(0 0.765625)"/>
      <use xlink:href="#ArialMT-6d" transform="translate(27.783203 0.765625)"/>
      <use xlink:href="#ArialMT-70" transform="translate(111.083984 0.765625)"/>
      <use xlink:href="#ArialMT-65" transform="translate(166.699219 0.765625)"/>
      <use xlink:href="#ArialMT-64" transform="translate(222.314453 0.765625)"/>
      <use xlink:href="#ArialMT-e2" transform="translate(277.929688 0.765625)"/>
      <use xlink:href="#ArialMT-6e" transform="translate(333.544922 0.765625)"/>
      <use xlink:href="#ArialMT-63" transform="translate(389.160156 0.765625)"/>
      <use xlink:href="#ArialMT-69" transform="translate(439.160156 0.765625)"/>
      <use xlink:href="#ArialMT-61" transform="translate(461.376953 0.765625)"/>
      <use xlink:href="#ArialMT-20" transform="translate(516.992188 0.765625)"/>
      <use xlink:href="#DejaVuSans-28" transform="translate(544.775391 0.765625)"/>
      <use xlink:href="#DejaVuSans-6d" transform="translate(583.789062 0.765625)"/>
      <use xlink:href="#DejaVuSans-2f" transform="translate(681.201172 0.765625)"/>
      <use xlink:href="#DejaVuSans-73" transform="translate(714.892578 0.765625)"/>
      <use xlink:href="#DejaVuSans-29" transform="translate(766.992188 0.765625)"/>
      <use xlink:href="#DejaVuSans-22c5" transform="translate(825.488281 0.765625)"/>
      <use xlink:href="#DejaVuSans-28" transform="translate(876.757812 0.765625)"/>
      <use xlink:href="#DejaVuSans-67" transform="translate(915.771484 0.765625)"/>
      <use xlink:href="#DejaVuSans-2f" transform="translate(979.248047 0.765625)"/>
      <use xlink:href="#DejaVuSans-63" transform="translate(1012.939453 0.765625)"/>
      <use xlink:href="#DejaVuSans-6d" transform="translate(1067.919922 0.765625)"/>
      <use xlink:href="#DejaVuSans-32" transform="translate(1166.289062 39.046875) scale(0.7)"/>
      <use xlink:href="#DejaVuSans-29" transform="translate(1213.55957 0.765625)"/>
     </g>
    </g>
   </g>
   <g id="matplotlib.axis_2">
    <g id="ytick_1">
     <g id="line2d_64">
      <path d="M 86.61875 295.179844 
L 413.598828 295.179844 
" clip-path="url(#p8c5251275a)" style="fill: none; stroke-dasharray: 1.85,0.8; stroke-dashoffset: 0; stroke: #000000; stroke-opacity: 0.5; stroke-width: 0.5"/>
     </g>
     <g id="line2d_65">
      <defs>
       <path id="m160bfe0f1e" d="M 0 0 
L 6 0 
" style="stroke: #000000"/>
      </defs>
      <g>
       <use xlink:href="#m160bfe0f1e" x="86.61875" y="295.179844" style="stroke: #000000"/>
      </g>
     </g>
     <g id="line2d_66">
      <defs>
       <path id="m401879f1a0" d="M 0 0 
L -6 0 
" style="stroke: #000000"/>
      </defs>
      <g>
       <use xlink:href="#m401879f1a0" x="413.598828" y="295.179844" style="stroke: #000000"/>
      </g>
     </g>
     <g id="text_7">
      <!-- $\mathdefault{0.00000}$ -->
      <g transform="translate(25.19875 300.906094) scale(0.16 -0.16)">
       <defs>
        <path id="ArialMT-2e" d="M 581 0 
L 581 641 
L 1222 641 
L 1222 0 
L 581 0 
z
" transform="scale(0.015625)"/>
       </defs>
       <use xlink:href="#ArialMT-30" transform="translate(0 0.125)"/>
       <use xlink:href="#ArialMT-2e" transform="translate(55.615234 0.125)"/>
       <use xlink:href="#ArialMT-30" transform="translate(83.398438 0.125)"/>
       <use xlink:href="#ArialMT-30" transform="translate(139.013672 0.125)"/>
       <use xlink:href="#ArialMT-30" transform="translate(194.628906 0.125)"/>
       <use xlink:href="#ArialMT-30" transform="translate(250.244141 0.125)"/>
       <use xlink:href="#ArialMT-30" transform="translate(305.859375 0.125)"/>
      </g>
     </g>
    </g>
    <g id="ytick_2">
     <g id="line2d_67">
      <path d="M 86.61875 254.706356 
L 413.598828 254.706356 
" clip-path="url(#p8c5251275a)" style="fill: none; stroke-dasharray: 1.85,0.8; stroke-dashoffset: 0; stroke: #000000; stroke-opacity: 0.5; stroke-width: 0.5"/>
     </g>
     <g id="line2d_68">
      <g>
       <use xlink:href="#m160bfe0f1e" x="86.61875" y="254.706356" style="stroke: #000000"/>
      </g>
     </g>
     <g id="line2d_69">
      <g>
       <use xlink:href="#m401879f1a0" x="413.598828" y="254.706356" style="stroke: #000000"/>
      </g>
     </g>
     <g id="text_8">
      <!-- $\mathdefault{0.00005}$ -->
      <g transform="translate(25.19875 260.432606) scale(0.16 -0.16)">
       <use xlink:href="#ArialMT-30" transform="translate(0 0.125)"/>
       <use xlink:href="#ArialMT-2e" transform="translate(55.615234 0.125)"/>
       <use xlink:href="#ArialMT-30" transform="translate(83.398438 0.125)"/>
       <use xlink:href="#ArialMT-30" transform="translate(139.013672 0.125)"/>
       <use xlink:href="#ArialMT-30" transform="translate(194.628906 0.125)"/>
       <use xlink:href="#ArialMT-30" transform="translate(250.244141 0.125)"/>
       <use xlink:href="#ArialMT-35" transform="translate(305.859375 0.125)"/>
      </g>
     </g>
    </g>
    <g id="ytick_3">
     <g id="line2d_70">
      <path d="M 86.61875 214.232868 
L 413.598828 214.232868 
" clip-path="url(#p8c5251275a)" style="fill: none; stroke-dasharray: 1.85,0.8; stroke-dashoffset: 0; stroke: #000000; stroke-opacity: 0.5; stroke-width: 0.5"/>
     </g>
     <g id="line2d_71">
      <g>
       <use xlink:href="#m160bfe0f1e" x="86.61875" y="214.232868" style="stroke: #000000"/>
      </g>
     </g>
     <g id="line2d_72">
      <g>
       <use xlink:href="#m401879f1a0" x="413.598828" y="214.232868" style="stroke: #000000"/>
      </g>
     </g>
     <g id="text_9">
      <!-- $\mathdefault{0.00010}$ -->
      <g transform="translate(25.19875 219.959118) scale(0.16 -0.16)">
       <use xlink:href="#ArialMT-30" transform="translate(0 0.125)"/>
       <use xlink:href="#ArialMT-2e" transform="translate(55.615234 0.125)"/>
       <use xlink:href="#ArialMT-30" transform="translate(83.398438 0.125)"/>
       <use xlink:href="#ArialMT-30" transform="translate(139.013672 0.125)"/>
       <use xlink:href="#ArialMT-30" transform="translate(194.628906 0.125)"/>
       <use xlink:href="#ArialMT-31" transform="translate(250.244141 0.125)"/>
       <use xlink:href="#ArialMT-30" transform="translate(305.859375 0.125)"/>
      </g>
     </g>
    </g>
    <g id="ytick_4">
     <g id="line2d_73">
      <path d="M 86.61875 173.75938 
L 413.598828 173.75938 
" clip-path="url(#p8c5251275a)" style="fill: none; stroke-dasharray: 1.85,0.8; stroke-dashoffset: 0; stroke: #000000; stroke-opacity: 0.5; stroke-width: 0.5"/>
     </g>
     <g id="line2d_74">
      <g>
       <use xlink:href="#m160bfe0f1e" x="86.61875" y="173.75938" style="stroke: #000000"/>
      </g>
     </g>
     <g id="line2d_75">
      <g>
       <use xlink:href="#m401879f1a0" x="413.598828" y="173.75938" style="stroke: #000000"/>
      </g>
     </g>
     <g id="text_10">
      <!-- $\mathdefault{0.00015}$ -->
      <g transform="translate(25.19875 179.48563) scale(0.16 -0.16)">
       <use xlink:href="#ArialMT-30" transform="translate(0 0.125)"/>
       <use xlink:href="#ArialMT-2e" transform="translate(55.615234 0.125)"/>
       <use xlink:href="#ArialMT-30" transform="translate(83.398438 0.125)"/>
       <use xlink:href="#ArialMT-30" transform="translate(139.013672 0.125)"/>
       <use xlink:href="#ArialMT-30" transform="translate(194.628906 0.125)"/>
       <use xlink:href="#ArialMT-31" transform="translate(250.244141 0.125)"/>
       <use xlink:href="#ArialMT-35" transform="translate(305.859375 0.125)"/>
      </g>
     </g>
    </g>
    <g id="ytick_5">
     <g id="line2d_76">
      <path d="M 86.61875 133.285892 
L 413.598828 133.285892 
" clip-path="url(#p8c5251275a)" style="fill: none; stroke-dasharray: 1.85,0.8; stroke-dashoffset: 0; stroke: #000000; stroke-opacity: 0.5; stroke-width: 0.5"/>
     </g>
     <g id="line2d_77">
      <g>
       <use xlink:href="#m160bfe0f1e" x="86.61875" y="133.285892" style="stroke: #000000"/>
      </g>
     </g>
     <g id="line2d_78">
      <g>
       <use xlink:href="#m401879f1a0" x="413.598828" y="133.285892" style="stroke: #000000"/>
      </g>
     </g>
     <g id="text_11">
      <!-- $\mathdefault{0.00020}$ -->
      <g transform="translate(25.19875 139.012142) scale(0.16 -0.16)">
       <use xlink:href="#ArialMT-30" transform="translate(0 0.125)"/>
       <use xlink:href="#ArialMT-2e" transform="translate(55.615234 0.125)"/>
       <use xlink:href="#ArialMT-30" transform="translate(83.398438 0.125)"/>
       <use xlink:href="#ArialMT-30" transform="translate(139.013672 0.125)"/>
       <use xlink:href="#ArialMT-30" transform="translate(194.628906 0.125)"/>
       <use xlink:href="#ArialMT-32" transform="translate(250.244141 0.125)"/>
       <use xlink:href="#ArialMT-30" transform="translate(305.859375 0.125)"/>
      </g>
     </g>
    </g>
    <g id="ytick_6">
     <g id="line2d_79">
      <path d="M 86.61875 92.812405 
L 413.598828 92.812405 
" clip-path="url(#p8c5251275a)" style="fill: none; stroke-dasharray: 1.85,0.8; stroke-dashoffset: 0; stroke: #000000; stroke-opacity: 0.5; stroke-width: 0.5"/>
     </g>
     <g id="line2d_80">
      <g>
       <use xlink:href="#m160bfe0f1e" x="86.61875" y="92.812405" style="stroke: #000000"/>
      </g>
     </g>
     <g id="line2d_81">
      <g>
       <use xlink:href="#m401879f1a0" x="413.598828" y="92.812405" style="stroke: #000000"/>
      </g>
     </g>
     <g id="text_12">
      <!-- $\mathdefault{0.00025}$ -->
      <g transform="translate(25.19875 98.538655) scale(0.16 -0.16)">
       <use xlink:href="#ArialMT-30" transform="translate(0 0.125)"/>
       <use xlink:href="#ArialMT-2e" transform="translate(55.615234 0.125)"/>
       <use xlink:href="#ArialMT-30" transform="translate(83.398438 0.125)"/>
       <use xlink:href="#ArialMT-30" transform="translate(139.013672 0.125)"/>
       <use xlink:href="#ArialMT-30" transform="translate(194.628906 0.125)"/>
       <use xlink:href="#ArialMT-32" transform="translate(250.244141 0.125)"/>
       <use xlink:href="#ArialMT-35" transform="translate(305.859375 0.125)"/>
      </g>
     </g>
    </g>
    <g id="ytick_7">
     <g id="line2d_82">
      <path d="M 86.61875 52.338917 
L 413.598828 52.338917 
" clip-path="url(#p8c5251275a)" style="fill: none; stroke-dasharray: 1.85,0.8; stroke-dashoffset: 0; stroke: #000000; stroke-opacity: 0.5; stroke-width: 0.5"/>
     </g>
     <g id="line2d_83">
      <g>
       <use xlink:href="#m160bfe0f1e" x="86.61875" y="52.338917" style="stroke: #000000"/>
      </g>
     </g>
     <g id="line2d_84">
      <g>
       <use xlink:href="#m401879f1a0" x="413.598828" y="52.338917" style="stroke: #000000"/>
      </g>
     </g>
     <g id="text_13">
      <!-- $\mathdefault{0.00030}$ -->
      <g transform="translate(25.19875 58.065167) scale(0.16 -0.16)">
       <defs>
        <path id="ArialMT-33" d="M 269 1209 
L 831 1284 
Q 928 806 1161 595 
Q 1394 384 1728 384 
Q 2125 384 2398 659 
Q 2672 934 2672 1341 
Q 2672 1728 2419 1979 
Q 2166 2231 1775 2231 
Q 1616 2231 1378 2169 
L 1441 2663 
Q 1497 2656 1531 2656 
Q 1891 2656 2178 2843 
Q 2466 3031 2466 3422 
Q 2466 3731 2256 3934 
Q 2047 4138 1716 4138 
Q 1388 4138 1169 3931 
Q 950 3725 888 3313 
L 325 3413 
Q 428 3978 793 4289 
Q 1159 4600 1703 4600 
Q 2078 4600 2393 4439 
Q 2709 4278 2876 4000 
Q 3044 3722 3044 3409 
Q 3044 3113 2884 2869 
Q 2725 2625 2413 2481 
Q 2819 2388 3044 2092 
Q 3269 1797 3269 1353 
Q 3269 753 2831 336 
Q 2394 -81 1725 -81 
Q 1122 -81 723 278 
Q 325 638 269 1209 
z
" transform="scale(0.015625)"/>
       </defs>
       <use xlink:href="#ArialMT-30" transform="translate(0 0.125)"/>
       <use xlink:href="#ArialMT-2e" transform="translate(55.615234 0.125)"/>
       <use xlink:href="#ArialMT-30" transform="translate(83.398438 0.125)"/>
       <use xlink:href="#ArialMT-30" transform="translate(139.013672 0.125)"/>
       <use xlink:href="#ArialMT-30" transform="translate(194.628906 0.125)"/>
       <use xlink:href="#ArialMT-33" transform="translate(250.244141 0.125)"/>
       <use xlink:href="#ArialMT-30" transform="translate(305.859375 0.125)"/>
      </g>
     </g>
    </g>
    <g id="ytick_8">
     <g id="line2d_85">
      <defs>
       <path id="m894ea6c943" d="M 0 0 
L 3 0 
" style="stroke: #000000"/>
      </defs>
      <g>
       <use xlink:href="#m894ea6c943" x="86.61875" y="287.085146" style="stroke: #000000"/>
      </g>
     </g>
     <g id="line2d_86">
      <defs>
       <path id="m9c47ec0829" d="M 0 0 
L -3 0 
" style="stroke: #000000"/>
      </defs>
      <g>
       <use xlink:href="#m9c47ec0829" x="413.598828" y="287.085146" style="stroke: #000000"/>
      </g>
     </g>
    </g>
    <g id="ytick_9">
     <g id="line2d_87">
      <g>
       <use xlink:href="#m894ea6c943" x="86.61875" y="278.990449" style="stroke: #000000"/>
      </g>
     </g>
     <g id="line2d_88">
      <g>
       <use xlink:href="#m9c47ec0829" x="413.598828" y="278.990449" style="stroke: #000000"/>
      </g>
     </g>
    </g>
    <g id="ytick_10">
     <g id="line2d_89">
      <g>
       <use xlink:href="#m894ea6c943" x="86.61875" y="270.895751" style="stroke: #000000"/>
      </g>
     </g>
     <g id="line2d_90">
      <g>
       <use xlink:href="#m9c47ec0829" x="413.598828" y="270.895751" style="stroke: #000000"/>
      </g>
     </g>
    </g>
    <g id="ytick_11">
     <g id="line2d_91">
      <g>
       <use xlink:href="#m894ea6c943" x="86.61875" y="262.801053" style="stroke: #000000"/>
      </g>
     </g>
     <g id="line2d_92">
      <g>
       <use xlink:href="#m9c47ec0829" x="413.598828" y="262.801053" style="stroke: #000000"/>
      </g>
     </g>
    </g>
    <g id="ytick_12">
     <g id="line2d_93">
      <g>
       <use xlink:href="#m894ea6c943" x="86.61875" y="246.611658" style="stroke: #000000"/>
      </g>
     </g>
     <g id="line2d_94">
      <g>
       <use xlink:href="#m9c47ec0829" x="413.598828" y="246.611658" style="stroke: #000000"/>
      </g>
     </g>
    </g>
    <g id="ytick_13">
     <g id="line2d_95">
      <g>
       <use xlink:href="#m894ea6c943" x="86.61875" y="238.516961" style="stroke: #000000"/>
      </g>
     </g>
     <g id="line2d_96">
      <g>
       <use xlink:href="#m9c47ec0829" x="413.598828" y="238.516961" style="stroke: #000000"/>
      </g>
     </g>
    </g>
    <g id="ytick_14">
     <g id="line2d_97">
      <g>
       <use xlink:href="#m894ea6c943" x="86.61875" y="230.422263" style="stroke: #000000"/>
      </g>
     </g>
     <g id="line2d_98">
      <g>
       <use xlink:href="#m9c47ec0829" x="413.598828" y="230.422263" style="stroke: #000000"/>
      </g>
     </g>
    </g>
    <g id="ytick_15">
     <g id="line2d_99">
      <g>
       <use xlink:href="#m894ea6c943" x="86.61875" y="222.327566" style="stroke: #000000"/>
      </g>
     </g>
     <g id="line2d_100">
      <g>
       <use xlink:href="#m9c47ec0829" x="413.598828" y="222.327566" style="stroke: #000000"/>
      </g>
     </g>
    </g>
    <g id="ytick_16">
     <g id="line2d_101">
      <g>
       <use xlink:href="#m894ea6c943" x="86.61875" y="206.13817" style="stroke: #000000"/>
      </g>
     </g>
     <g id="line2d_102">
      <g>
       <use xlink:href="#m9c47ec0829" x="413.598828" y="206.13817" style="stroke: #000000"/>
      </g>
     </g>
    </g>
    <g id="ytick_17">
     <g id="line2d_103">
      <g>
       <use xlink:href="#m894ea6c943" x="86.61875" y="198.043473" style="stroke: #000000"/>
      </g>
     </g>
     <g id="line2d_104">
      <g>
       <use xlink:href="#m9c47ec0829" x="413.598828" y="198.043473" style="stroke: #000000"/>
      </g>
     </g>
    </g>
    <g id="ytick_18">
     <g id="line2d_105">
      <g>
       <use xlink:href="#m894ea6c943" x="86.61875" y="189.948775" style="stroke: #000000"/>
      </g>
     </g>
     <g id="line2d_106">
      <g>
       <use xlink:href="#m9c47ec0829" x="413.598828" y="189.948775" style="stroke: #000000"/>
      </g>
     </g>
    </g>
    <g id="ytick_19">
     <g id="line2d_107">
      <g>
       <use xlink:href="#m894ea6c943" x="86.61875" y="181.854078" style="stroke: #000000"/>
      </g>
     </g>
     <g id="line2d_108">
      <g>
       <use xlink:href="#m9c47ec0829" x="413.598828" y="181.854078" style="stroke: #000000"/>
      </g>
     </g>
    </g>
    <g id="ytick_20">
     <g id="line2d_109">
      <g>
       <use xlink:href="#m894ea6c943" x="86.61875" y="165.664683" style="stroke: #000000"/>
      </g>
     </g>
     <g id="line2d_110">
      <g>
       <use xlink:href="#m9c47ec0829" x="413.598828" y="165.664683" style="stroke: #000000"/>
      </g>
     </g>
    </g>
    <g id="ytick_21">
     <g id="line2d_111">
      <g>
       <use xlink:href="#m894ea6c943" x="86.61875" y="157.569985" style="stroke: #000000"/>
      </g>
     </g>
     <g id="line2d_112">
      <g>
       <use xlink:href="#m9c47ec0829" x="413.598828" y="157.569985" style="stroke: #000000"/>
      </g>
     </g>
    </g>
    <g id="ytick_22">
     <g id="line2d_113">
      <g>
       <use xlink:href="#m894ea6c943" x="86.61875" y="149.475287" style="stroke: #000000"/>
      </g>
     </g>
     <g id="line2d_114">
      <g>
       <use xlink:href="#m9c47ec0829" x="413.598828" y="149.475287" style="stroke: #000000"/>
      </g>
     </g>
    </g>
    <g id="ytick_23">
     <g id="line2d_115">
      <g>
       <use xlink:href="#m894ea6c943" x="86.61875" y="141.38059" style="stroke: #000000"/>
      </g>
     </g>
     <g id="line2d_116">
      <g>
       <use xlink:href="#m9c47ec0829" x="413.598828" y="141.38059" style="stroke: #000000"/>
      </g>
     </g>
    </g>
    <g id="ytick_24">
     <g id="line2d_117">
      <g>
       <use xlink:href="#m894ea6c943" x="86.61875" y="125.191195" style="stroke: #000000"/>
      </g>
     </g>
     <g id="line2d_118">
      <g>
       <use xlink:href="#m9c47ec0829" x="413.598828" y="125.191195" style="stroke: #000000"/>
      </g>
     </g>
    </g>
    <g id="ytick_25">
     <g id="line2d_119">
      <g>
       <use xlink:href="#m894ea6c943" x="86.61875" y="117.096497" style="stroke: #000000"/>
      </g>
     </g>
     <g id="line2d_120">
      <g>
       <use xlink:href="#m9c47ec0829" x="413.598828" y="117.096497" style="stroke: #000000"/>
      </g>
     </g>
    </g>
    <g id="ytick_26">
     <g id="line2d_121">
      <g>
       <use xlink:href="#m894ea6c943" x="86.61875" y="109.0018" style="stroke: #000000"/>
      </g>
     </g>
     <g id="line2d_122">
      <g>
       <use xlink:href="#m9c47ec0829" x="413.598828" y="109.0018" style="stroke: #000000"/>
      </g>
     </g>
    </g>
    <g id="ytick_27">
     <g id="line2d_123">
      <g>
       <use xlink:href="#m894ea6c943" x="86.61875" y="100.907102" style="stroke: #000000"/>
      </g>
     </g>
     <g id="line2d_124">
      <g>
       <use xlink:href="#m9c47ec0829" x="413.598828" y="100.907102" style="stroke: #000000"/>
      </g>
     </g>
    </g>
    <g id="ytick_28">
     <g id="line2d_125">
      <g>
       <use xlink:href="#m894ea6c943" x="86.61875" y="84.717707" style="stroke: #000000"/>
      </g>
     </g>
     <g id="line2d_126">
      <g>
       <use xlink:href="#m9c47ec0829" x="413.598828" y="84.717707" style="stroke: #000000"/>
      </g>
     </g>
    </g>
    <g id="ytick_29">
     <g id="line2d_127">
      <g>
       <use xlink:href="#m894ea6c943" x="86.61875" y="76.623009" style="stroke: #000000"/>
      </g>
     </g>
     <g id="line2d_128">
      <g>
       <use xlink:href="#m9c47ec0829" x="413.598828" y="76.623009" style="stroke: #000000"/>
      </g>
     </g>
    </g>
    <g id="ytick_30">
     <g id="line2d_129">
      <g>
       <use xlink:href="#m894ea6c943" x="86.61875" y="68.528312" style="stroke: #000000"/>
      </g>
     </g>
     <g id="line2d_130">
      <g>
       <use xlink:href="#m9c47ec0829" x="413.598828" y="68.528312" style="stroke: #000000"/>
      </g>
     </g>
    </g>
    <g id="ytick_31">
     <g id="line2d_131">
      <g>
       <use xlink:href="#m894ea6c943" x="86.61875" y="60.433614" style="stroke: #000000"/>
      </g>
     </g>
     <g id="line2d_132">
      <g>
       <use xlink:href="#m9c47ec0829" x="413.598828" y="60.433614" style="stroke: #000000"/>
      </g>
     </g>
    </g>
    <g id="ytick_32">
     <g id="line2d_133">
      <g>
       <use xlink:href="#m894ea6c943" x="86.61875" y="44.244219" style="stroke: #000000"/>
      </g>
     </g>
     <g id="line2d_134">
      <g>
       <use xlink:href="#m9c47ec0829" x="413.598828" y="44.244219" style="stroke: #000000"/>
      </g>
     </g>
    </g>
    <g id="ytick_33">
     <g id="line2d_135">
      <g>
       <use xlink:href="#m894ea6c943" x="86.61875" y="36.149522" style="stroke: #000000"/>
      </g>
     </g>
     <g id="line2d_136">
      <g>
       <use xlink:href="#m9c47ec0829" x="413.598828" y="36.149522" style="stroke: #000000"/>
      </g>
     </g>
    </g>
    <g id="ytick_34">
     <g id="line2d_137">
      <g>
       <use xlink:href="#m894ea6c943" x="86.61875" y="28.054824" style="stroke: #000000"/>
      </g>
     </g>
     <g id="line2d_138">
      <g>
       <use xlink:href="#m9c47ec0829" x="413.598828" y="28.054824" style="stroke: #000000"/>
      </g>
     </g>
    </g>
    <g id="text_14">
     <!-- Density -->
     <g style="fill: #212121" transform="translate(17.199844 190.866406) rotate(-90) scale(0.19 -0.19)">
      <defs>
       <path id="ArialMT-44" d="M 494 0 
L 494 4581 
L 2072 4581 
Q 2606 4581 2888 4516 
Q 3281 4425 3559 4188 
Q 3922 3881 4101 3404 
Q 4281 2928 4281 2316 
Q 4281 1794 4159 1391 
Q 4038 988 3847 723 
Q 3656 459 3429 307 
Q 3203 156 2883 78 
Q 2563 0 2147 0 
L 494 0 
z
M 1100 541 
L 2078 541 
Q 2531 541 2789 625 
Q 3047 709 3200 863 
Q 3416 1078 3536 1442 
Q 3656 1806 3656 2325 
Q 3656 3044 3420 3430 
Q 3184 3816 2847 3947 
Q 2603 4041 2063 4041 
L 1100 4041 
L 1100 541 
z
" transform="scale(0.015625)"/>
       <path id="ArialMT-73" d="M 197 991 
L 753 1078 
Q 800 744 1014 566 
Q 1228 388 1613 388 
Q 2000 388 2187 545 
Q 2375 703 2375 916 
Q 2375 1106 2209 1216 
Q 2094 1291 1634 1406 
Q 1016 1563 777 1677 
Q 538 1791 414 1992 
Q 291 2194 291 2438 
Q 291 2659 392 2848 
Q 494 3038 669 3163 
Q 800 3259 1026 3326 
Q 1253 3394 1513 3394 
Q 1903 3394 2198 3281 
Q 2494 3169 2634 2976 
Q 2775 2784 2828 2463 
L 2278 2388 
Q 2241 2644 2061 2787 
Q 1881 2931 1553 2931 
Q 1166 2931 1000 2803 
Q 834 2675 834 2503 
Q 834 2394 903 2306 
Q 972 2216 1119 2156 
Q 1203 2125 1616 2013 
Q 2213 1853 2448 1751 
Q 2684 1650 2818 1456 
Q 2953 1263 2953 975 
Q 2953 694 2789 445 
Q 2625 197 2315 61 
Q 2006 -75 1616 -75 
Q 969 -75 630 194 
Q 291 463 197 991 
z
" transform="scale(0.015625)"/>
       <path id="ArialMT-74" d="M 1650 503 
L 1731 6 
Q 1494 -44 1306 -44 
Q 1000 -44 831 53 
Q 663 150 594 308 
Q 525 466 525 972 
L 525 2881 
L 113 2881 
L 113 3319 
L 525 3319 
L 525 4141 
L 1084 4478 
L 1084 3319 
L 1650 3319 
L 1650 2881 
L 1084 2881 
L 1084 941 
Q 1084 700 1114 631 
Q 1144 563 1211 522 
Q 1278 481 1403 481 
Q 1497 481 1650 503 
z
" transform="scale(0.015625)"/>
       <path id="ArialMT-79" d="M 397 -1278 
L 334 -750 
Q 519 -800 656 -800 
Q 844 -800 956 -737 
Q 1069 -675 1141 -563 
Q 1194 -478 1313 -144 
Q 1328 -97 1363 -6 
L 103 3319 
L 709 3319 
L 1400 1397 
Q 1534 1031 1641 628 
Q 1738 1016 1872 1384 
L 2581 3319 
L 3144 3319 
L 1881 -56 
Q 1678 -603 1566 -809 
Q 1416 -1088 1222 -1217 
Q 1028 -1347 759 -1347 
Q 597 -1347 397 -1278 
z
" transform="scale(0.015625)"/>
      </defs>
      <use xlink:href="#ArialMT-44"/>
      <use xlink:href="#ArialMT-65" x="72.216797"/>
      <use xlink:href="#ArialMT-6e" x="127.832031"/>
      <use xlink:href="#ArialMT-73" x="183.447266"/>
      <use xlink:href="#ArialMT-69" x="233.447266"/>
      <use xlink:href="#ArialMT-74" x="255.664062"/>
      <use xlink:href="#ArialMT-79" x="283.447266"/>
     </g>
    </g>
   </g>
   <g id="patch_3">
    <path d="M 105.986366 295.179844 
L 115.490049 295.179844 
L 115.490049 295.177076 
L 105.986366 295.177076 
z
" clip-path="url(#p8c5251275a)" style="fill: #0072b2; stroke: #000000; stroke-width: 0.5; stroke-linejoin: miter"/>
   </g>
   <g id="patch_4">
    <path d="M 115.490049 295.179844 
L 124.993731 295.179844 
L 124.993731 295.175577 
L 115.490049 295.175577 
z
" clip-path="url(#p8c5251275a)" style="fill: #0072b2; stroke: #000000; stroke-width: 0.5; stroke-linejoin: miter"/>
   </g>
   <g id="patch_5">
    <path d="M 124.993731 295.179844 
L 134.497414 295.179844 
L 134.497414 295.172234 
L 124.993731 295.172234 
z
" clip-path="url(#p8c5251275a)" style="fill: #0072b2; stroke: #000000; stroke-width: 0.5; stroke-linejoin: miter"/>
   </g>
   <g id="patch_6">
    <path d="M 134.497414 295.179844 
L 144.001097 295.179844 
L 144.001097 295.171657 
L 134.497414 295.171657 
z
" clip-path="url(#p8c5251275a)" style="fill: #0072b2; stroke: #000000; stroke-width: 0.5; stroke-linejoin: miter"/>
   </g>
   <g id="patch_7">
    <path d="M 144.001097 295.179844 
L 153.504779 295.179844 
L 153.504779 295.172349 
L 144.001097 295.172349 
z
" clip-path="url(#p8c5251275a)" style="fill: #0072b2; stroke: #000000; stroke-width: 0.5; stroke-linejoin: miter"/>
   </g>
   <g id="patch_8">
    <path d="M 153.504779 295.179844 
L 163.008462 295.179844 
L 163.008462 295.172003 
L 153.504779 295.172003 
z
" clip-path="url(#p8c5251275a)" style="fill: #0072b2; stroke: #000000; stroke-width: 0.5; stroke-linejoin: miter"/>
   </g>
   <g id="patch_9">
    <path d="M 163.008462 295.179844 
L 172.512144 295.179844 
L 172.512144 295.17258 
L 163.008462 295.17258 
z
" clip-path="url(#p8c5251275a)" style="fill: #0072b2; stroke: #000000; stroke-width: 0.5; stroke-linejoin: miter"/>
   </g>
   <g id="patch_10">
    <path d="M 172.512144 295.179844 
L 182.015827 295.179844 
L 182.015827 295.143753 
L 172.512144 295.143753 
z
" clip-path="url(#p8c5251275a)" style="fill: #0072b2; stroke: #000000; stroke-width: 0.5; stroke-linejoin: miter"/>
   </g>
   <g id="patch_11">
    <path d="M 182.015827 295.179844 
L 191.51951 295.179844 
L 191.51951 294.676769 
L 182.015827 294.676769 
z
" clip-path="url(#p8c5251275a)" style="fill: #0072b2; stroke: #000000; stroke-width: 0.5; stroke-linejoin: miter"/>
   </g>
   <g id="patch_12">
    <path d="M 191.51951 295.179844 
L 201.023192 295.179844 
L 201.023192 293.94712 
L 191.51951 293.94712 
z
" clip-path="url(#p8c5251275a)" style="fill: #0072b2; stroke: #000000; stroke-width: 0.5; stroke-linejoin: miter"/>
   </g>
   <g id="patch_13">
    <path d="M 201.023192 295.179844 
L 210.526875 295.179844 
L 210.526875 291.397154 
L 201.023192 291.397154 
z
" clip-path="url(#p8c5251275a)" style="fill: #0072b2; stroke: #000000; stroke-width: 0.5; stroke-linejoin: miter"/>
   </g>
   <g id="patch_14">
    <path d="M 210.526875 295.179844 
L 220.030558 295.179844 
L 220.030558 281.030559 
L 210.526875 281.030559 
z
" clip-path="url(#p8c5251275a)" style="fill: #0072b2; stroke: #000000; stroke-width: 0.5; stroke-linejoin: miter"/>
   </g>
   <g id="patch_15">
    <path d="M 220.030558 295.179844 
L 229.53424 295.179844 
L 229.53424 256.238408 
L 220.030558 256.238408 
z
" clip-path="url(#p8c5251275a)" style="fill: #0072b2; stroke: #000000; stroke-width: 0.5; stroke-linejoin: miter"/>
   </g>
   <g id="patch_16">
    <path d="M 229.53424 295.179844 
L 239.037923 295.179844 
L 239.037923 214.102568 
L 229.53424 214.102568 
z
" clip-path="url(#p8c5251275a)" style="fill: #0072b2; stroke: #000000; stroke-width: 0.5; stroke-linejoin: miter"/>
   </g>
   <g id="patch_17">
    <path d="M 239.037923 295.179844 
L 248.541605 295.179844 
L 248.541605 167.038254 
L 239.037923 167.038254 
z
" clip-path="url(#p8c5251275a)" style="fill: #0072b2; stroke: #000000; stroke-width: 0.5; stroke-linejoin: miter"/>
   </g>
   <g id="patch_18">
    <path d="M 248.541605 295.179844 
L 258.045288 295.179844 
L 258.045288 124.528711 
L 248.541605 124.528711 
z
" clip-path="url(#p8c5251275a)" style="fill: #0072b2; stroke: #000000; stroke-width: 0.5; stroke-linejoin: miter"/>
   </g>
   <g id="patch_19">
    <path d="M 258.045288 295.179844 
L 267.548971 295.179844 
L 267.548971 91.028856 
L 258.045288 91.028856 
z
" clip-path="url(#p8c5251275a)" style="fill: #0072b2; stroke: #000000; stroke-width: 0.5; stroke-linejoin: miter"/>
   </g>
   <g id="patch_20">
    <path d="M 267.548971 295.179844 
L 277.052653 295.179844 
L 277.052653 66.585733 
L 267.548971 66.585733 
z
" clip-path="url(#p8c5251275a)" style="fill: #0072b2; stroke: #000000; stroke-width: 0.5; stroke-linejoin: miter"/>
   </g>
   <g id="patch_21">
    <path d="M 277.052653 295.179844 
L 286.556336 295.179844 
L 286.556336 43.73497 
L 277.052653 43.73497 
z
" clip-path="url(#p8c5251275a)" style="fill: #0072b2; stroke: #000000; stroke-width: 0.5; stroke-linejoin: miter"/>
   </g>
   <g id="patch_22">
    <path d="M 286.556336 295.179844 
L 296.060019 295.179844 
L 296.060019 47.812033 
L 286.556336 47.812033 
z
" clip-path="url(#p8c5251275a)" style="fill: #0072b2; stroke: #000000; stroke-width: 0.5; stroke-linejoin: miter"/>
   </g>
   <g id="patch_23">
    <path d="M 296.060019 295.179844 
L 305.563701 295.179844 
L 305.563701 83.93784 
L 296.060019 83.93784 
z
" clip-path="url(#p8c5251275a)" style="fill: #0072b2; stroke: #000000; stroke-width: 0.5; stroke-linejoin: miter"/>
   </g>
   <g id="patch_24">
    <path d="M 305.563701 295.179844 
L 315.067384 295.179844 
L 315.067384 141.312942 
L 305.563701 141.312942 
z
" clip-path="url(#p8c5251275a)" style="fill: #0072b2; stroke: #000000; stroke-width: 0.5; stroke-linejoin: miter"/>
   </g>
   <g id="patch_25">
    <path d="M 315.067384 295.179844 
L 324.571066 295.179844 
L 324.571066 195.964774 
L 315.067384 195.964774 
z
" clip-path="url(#p8c5251275a)" style="fill: #0072b2; stroke: #000000; stroke-width: 0.5; stroke-linejoin: miter"/>
   </g>
   <g id="patch_26">
    <path d="M 324.571066 295.179844 
L 334.074749 295.179844 
L 334.074749 239.389953 
L 324.571066 239.389953 
z
" clip-path="url(#p8c5251275a)" style="fill: #0072b2; stroke: #000000; stroke-width: 0.5; stroke-linejoin: miter"/>
   </g>
   <g id="patch_27">
    <path d="M 334.074749 295.179844 
L 343.578432 295.179844 
L 343.578432 269.313398 
L 334.074749 269.313398 
z
" clip-path="url(#p8c5251275a)" style="fill: #0072b2; stroke: #000000; stroke-width: 0.5; stroke-linejoin: miter"/>
   </g>
   <g id="patch_28">
    <path d="M 343.578432 295.179844 
L 353.082114 295.179844 
L 353.082114 283.322588 
L 343.578432 283.322588 
z
" clip-path="url(#p8c5251275a)" style="fill: #0072b2; stroke: #000000; stroke-width: 0.5; stroke-linejoin: miter"/>
   </g>
   <g id="patch_29">
    <path d="M 353.082114 295.179844 
L 362.585797 295.179844 
L 362.585797 290.023066 
L 353.082114 290.023066 
z
" clip-path="url(#p8c5251275a)" style="fill: #0072b2; stroke: #000000; stroke-width: 0.5; stroke-linejoin: miter"/>
   </g>
   <g id="patch_30">
    <path d="M 362.585797 295.179844 
L 372.08948 295.179844 
L 372.08948 294.006502 
L 362.585797 294.006502 
z
" clip-path="url(#p8c5251275a)" style="fill: #0072b2; stroke: #000000; stroke-width: 0.5; stroke-linejoin: miter"/>
   </g>
   <g id="patch_31">
    <path d="M 372.08948 295.179844 
L 381.593162 295.179844 
L 381.593162 294.988207 
L 372.08948 294.988207 
z
" clip-path="url(#p8c5251275a)" style="fill: #0072b2; stroke: #000000; stroke-width: 0.5; stroke-linejoin: miter"/>
   </g>
   <g id="patch_32">
    <path d="M 381.593162 295.179844 
L 391.096845 295.179844 
L 391.096845 295.163816 
L 381.593162 295.163816 
z
" clip-path="url(#p8c5251275a)" style="fill: #0072b2; stroke: #000000; stroke-width: 0.5; stroke-linejoin: miter"/>
   </g>
   <g id="patch_33">
    <path d="M 101.481481 295.179844 
L 111.176959 295.179844 
L 111.176959 295.177244 
L 101.481481 295.177244 
z
" clip-path="url(#p8c5251275a)" style="fill: #a60628; stroke: #000000; stroke-width: 0.5; stroke-linejoin: miter"/>
   </g>
   <g id="patch_34">
    <path d="M 111.176959 295.179844 
L 120.872438 295.179844 
L 120.872438 295.175775 
L 111.176959 295.175775 
z
" clip-path="url(#p8c5251275a)" style="fill: #a60628; stroke: #000000; stroke-width: 0.5; stroke-linejoin: miter"/>
   </g>
   <g id="patch_35">
    <path d="M 120.872438 295.179844 
L 130.567916 295.179844 
L 130.567916 295.173401 
L 120.872438 295.173401 
z
" clip-path="url(#p8c5251275a)" style="fill: #a60628; stroke: #000000; stroke-width: 0.5; stroke-linejoin: miter"/>
   </g>
   <g id="patch_36">
    <path d="M 130.567916 295.179844 
L 140.263395 295.179844 
L 140.263395 295.171367 
L 130.567916 295.171367 
z
" clip-path="url(#p8c5251275a)" style="fill: #a60628; stroke: #000000; stroke-width: 0.5; stroke-linejoin: miter"/>
   </g>
   <g id="patch_37">
    <path d="M 140.263395 295.179844 
L 149.958874 295.179844 
L 149.958874 295.17261 
L 140.263395 295.17261 
z
" clip-path="url(#p8c5251275a)" style="fill: #a60628; stroke: #000000; stroke-width: 0.5; stroke-linejoin: miter"/>
   </g>
   <g id="patch_38">
    <path d="M 149.958874 295.179844 
L 159.654352 295.179844 
L 159.654352 295.172158 
L 149.958874 295.172158 
z
" clip-path="url(#p8c5251275a)" style="fill: #a60628; stroke: #000000; stroke-width: 0.5; stroke-linejoin: miter"/>
   </g>
   <g id="patch_39">
    <path d="M 159.654352 295.179844 
L 169.349831 295.179844 
L 169.349831 295.171706 
L 159.654352 295.171706 
z
" clip-path="url(#p8c5251275a)" style="fill: #a60628; stroke: #000000; stroke-width: 0.5; stroke-linejoin: miter"/>
   </g>
   <g id="patch_40">
    <path d="M 169.349831 295.179844 
L 179.045309 295.179844 
L 179.045309 295.030313 
L 169.349831 295.030313 
z
" clip-path="url(#p8c5251275a)" style="fill: #a60628; stroke: #000000; stroke-width: 0.5; stroke-linejoin: miter"/>
   </g>
   <g id="patch_41">
    <path d="M 179.045309 295.179844 
L 188.740788 295.179844 
L 188.740788 294.513794 
L 179.045309 294.513794 
z
" clip-path="url(#p8c5251275a)" style="fill: #a60628; stroke: #000000; stroke-width: 0.5; stroke-linejoin: miter"/>
   </g>
   <g id="patch_42">
    <path d="M 188.740788 295.179844 
L 198.436266 295.179844 
L 198.436266 293.639329 
L 188.740788 293.639329 
z
" clip-path="url(#p8c5251275a)" style="fill: #a60628; stroke: #000000; stroke-width: 0.5; stroke-linejoin: miter"/>
   </g>
   <g id="patch_43">
    <path d="M 198.436266 295.179844 
L 208.131745 295.179844 
L 208.131745 290.585311 
L 198.436266 290.585311 
z
" clip-path="url(#p8c5251275a)" style="fill: #a60628; stroke: #000000; stroke-width: 0.5; stroke-linejoin: miter"/>
   </g>
   <g id="patch_44">
    <path d="M 208.131745 295.179844 
L 217.827223 295.179844 
L 217.827223 280.489681 
L 208.131745 280.489681 
z
" clip-path="url(#p8c5251275a)" style="fill: #a60628; stroke: #000000; stroke-width: 0.5; stroke-linejoin: miter"/>
   </g>
   <g id="patch_45">
    <path d="M 217.827223 295.179844 
L 227.522702 295.179844 
L 227.522702 257.518146 
L 217.827223 257.518146 
z
" clip-path="url(#p8c5251275a)" style="fill: #a60628; stroke: #000000; stroke-width: 0.5; stroke-linejoin: miter"/>
   </g>
   <g id="patch_46">
    <path d="M 227.522702 295.179844 
L 237.21818 295.179844 
L 237.21818 219.572759 
L 227.522702 219.572759 
z
" clip-path="url(#p8c5251275a)" style="fill: #a60628; stroke: #000000; stroke-width: 0.5; stroke-linejoin: miter"/>
   </g>
   <g id="patch_47">
    <path d="M 237.21818 295.179844 
L 246.913659 295.179844 
L 246.913659 176.327004 
L 237.21818 176.327004 
z
" clip-path="url(#p8c5251275a)" style="fill: #a60628; stroke: #000000; stroke-width: 0.5; stroke-linejoin: miter"/>
   </g>
   <g id="patch_48">
    <path d="M 246.913659 295.179844 
L 256.609137 295.179844 
L 256.609137 134.618035 
L 246.913659 134.618035 
z
" clip-path="url(#p8c5251275a)" style="fill: #a60628; stroke: #000000; stroke-width: 0.5; stroke-linejoin: miter"/>
   </g>
   <g id="patch_49">
    <path d="M 256.609137 295.179844 
L 266.304616 295.179844 
L 266.304616 99.148548 
L 256.609137 99.148548 
z
" clip-path="url(#p8c5251275a)" style="fill: #a60628; stroke: #000000; stroke-width: 0.5; stroke-linejoin: miter"/>
   </g>
   <g id="patch_50">
    <path d="M 266.304616 295.179844 
L 276.000094 295.179844 
L 276.000094 73.055182 
L 266.304616 73.055182 
z
" clip-path="url(#p8c5251275a)" style="fill: #a60628; stroke: #000000; stroke-width: 0.5; stroke-linejoin: miter"/>
   </g>
   <g id="patch_51">
    <path d="M 276.000094 295.179844 
L 285.695573 295.179844 
L 285.695573 51.490682 
L 276.000094 51.490682 
z
" clip-path="url(#p8c5251275a)" style="fill: #a60628; stroke: #000000; stroke-width: 0.5; stroke-linejoin: miter"/>
   </g>
   <g id="patch_52">
    <path d="M 285.695573 295.179844 
L 295.391052 295.179844 
L 295.391052 52.448785 
L 285.695573 52.448785 
z
" clip-path="url(#p8c5251275a)" style="fill: #a60628; stroke: #000000; stroke-width: 0.5; stroke-linejoin: miter"/>
   </g>
   <g id="patch_53">
    <path d="M 295.391052 295.179844 
L 305.08653 295.179844 
L 305.08653 84.888893 
L 295.391052 84.888893 
z
" clip-path="url(#p8c5251275a)" style="fill: #a60628; stroke: #000000; stroke-width: 0.5; stroke-linejoin: miter"/>
   </g>
   <g id="patch_54">
    <path d="M 305.08653 295.179844 
L 314.782009 295.179844 
L 314.782009 140.307543 
L 305.08653 140.307543 
z
" clip-path="url(#p8c5251275a)" style="fill: #a60628; stroke: #000000; stroke-width: 0.5; stroke-linejoin: miter"/>
   </g>
   <g id="patch_55">
    <path d="M 314.782009 295.179844 
L 324.477487 295.179844 
L 324.477487 193.38999 
L 314.782009 193.38999 
z
" clip-path="url(#p8c5251275a)" style="fill: #a60628; stroke: #000000; stroke-width: 0.5; stroke-linejoin: miter"/>
   </g>
   <g id="patch_56">
    <path d="M 324.477487 295.179844 
L 334.172966 295.179844 
L 334.172966 236.436371 
L 324.477487 236.436371 
z
" clip-path="url(#p8c5251275a)" style="fill: #a60628; stroke: #000000; stroke-width: 0.5; stroke-linejoin: miter"/>
   </g>
   <g id="patch_57">
    <path d="M 334.172966 295.179844 
L 343.868444 295.179844 
L 343.868444 266.089311 
L 334.172966 266.089311 
z
" clip-path="url(#p8c5251275a)" style="fill: #a60628; stroke: #000000; stroke-width: 0.5; stroke-linejoin: miter"/>
   </g>
   <g id="patch_58">
    <path d="M 343.868444 295.179844 
L 353.563923 295.179844 
L 353.563923 281.212355 
L 343.868444 281.212355 
z
" clip-path="url(#p8c5251275a)" style="fill: #a60628; stroke: #000000; stroke-width: 0.5; stroke-linejoin: miter"/>
   </g>
   <g id="patch_59">
    <path d="M 353.563923 295.179844 
L 363.259401 295.179844 
L 363.259401 288.806315 
L 353.563923 288.806315 
z
" clip-path="url(#p8c5251275a)" style="fill: #a60628; stroke: #000000; stroke-width: 0.5; stroke-linejoin: miter"/>
   </g>
   <g id="patch_60">
    <path d="M 363.259401 295.179844 
L 372.95488 295.179844 
L 372.95488 293.365811 
L 363.259401 293.365811 
z
" clip-path="url(#p8c5251275a)" style="fill: #a60628; stroke: #000000; stroke-width: 0.5; stroke-linejoin: miter"/>
   </g>
   <g id="patch_61">
    <path d="M 372.95488 295.179844 
L 382.650358 295.179844 
L 382.650358 294.894119 
L 372.95488 294.894119 
z
" clip-path="url(#p8c5251275a)" style="fill: #a60628; stroke: #000000; stroke-width: 0.5; stroke-linejoin: miter"/>
   </g>
   <g id="patch_62">
    <path d="M 382.650358 295.179844 
L 392.345837 295.179844 
L 392.345837 295.127062 
L 382.650358 295.127062 
z
" clip-path="url(#p8c5251275a)" style="fill: #a60628; stroke: #000000; stroke-width: 0.5; stroke-linejoin: miter"/>
   </g>
   <g id="line2d_139">
    <path d="M 104.786699 295.179834 
L 180.120464 295.017462 
L 194.891791 294.212996 
L 197.846056 293.847769 
L 203.754587 292.61232 
L 206.708852 291.661719 
L 208.185985 290.961561 
L 209.663117 289.958495 
L 211.14025 288.768109 
L 214.094515 285.901675 
L 215.571648 284.284361 
L 217.048781 282.406114 
L 218.525913 280.064033 
L 220.003046 277.332276 
L 222.957311 270.717102 
L 225.911577 263.014121 
L 227.388709 258.78714 
L 230.342975 248.428374 
L 231.820107 243.210457 
L 233.29724 237.475335 
L 236.251505 224.825546 
L 239.205771 210.292725 
L 242.160036 196.085475 
L 252.499964 152.49797 
L 255.45423 138.60217 
L 256.931362 133.062806 
L 258.408495 126.885222 
L 259.885628 121.440764 
L 261.36276 115.347749 
L 262.839893 111.66516 
L 265.794158 100.459443 
L 267.271291 95.171696 
L 268.748424 91.271186 
L 270.225556 86.266903 
L 273.179822 78.316794 
L 274.656954 75.406607 
L 276.134087 71.910687 
L 277.61122 69.472878 
L 279.088352 67.517009 
L 280.565485 64.360451 
L 282.042618 60.043796 
L 283.51975 56.708706 
L 286.474016 48.200938 
L 287.951148 45.736666 
L 289.428281 44.289672 
L 290.905414 44.96159 
L 292.382546 45.843784 
L 293.859679 49.436962 
L 295.336811 52.622504 
L 296.813944 54.681028 
L 298.291077 58.420425 
L 299.768209 61.567835 
L 301.245342 65.808734 
L 304.199607 78.521155 
L 305.67674 86.553542 
L 314.539536 139.386291 
L 316.016669 147.083681 
L 318.970934 164.188892 
L 323.402332 188.690193 
L 324.879465 196.121371 
L 332.265128 229.296752 
L 333.74226 235.466393 
L 336.696526 246.127827 
L 339.650791 255.902594 
L 344.082189 267.500826 
L 345.559322 270.062399 
L 347.036454 272.862986 
L 348.513587 275.208533 
L 351.467852 279.171617 
L 352.944985 280.830718 
L 355.89925 283.790438 
L 361.807781 288.020145 
L 364.762046 289.877442 
L 367.716312 291.07366 
L 370.670577 292.72922 
L 373.624842 293.829335 
L 376.579107 294.387733 
L 382.487638 294.94945 
L 388.396169 295.068344 
L 398.736097 295.179834 
L 398.736097 295.179834 
" clip-path="url(#p8c5251275a)" style="fill: none; stroke-dasharray: 7.4,3.2; stroke-dashoffset: 0; stroke: #79011b; stroke-width: 2"/>
   </g>
   <g id="line2d_140">
    <path d="M 109.25032 295.179834 
L 185.97681 295.079311 
L 191.767488 294.661306 
L 194.662827 294.399303 
L 197.558167 294.345044 
L 200.453506 294.078874 
L 201.901176 293.950403 
L 206.244184 293.007957 
L 207.691854 292.533314 
L 209.139524 292.198657 
L 210.587193 291.702974 
L 212.034863 291.016874 
L 213.482532 290.096243 
L 214.930202 288.61346 
L 219.273211 282.856718 
L 220.72088 280.543434 
L 223.61622 274.571464 
L 225.063889 271.152734 
L 227.959229 262.146985 
L 229.406898 257.30217 
L 232.302237 246.365653 
L 236.645246 227.793266 
L 238.092916 218.989877 
L 243.883594 188.285821 
L 249.674273 162.052224 
L 254.017282 142.956528 
L 256.912621 128.153384 
L 258.36029 122.810172 
L 261.25563 110.969344 
L 264.150969 100.493771 
L 265.598638 95.602409 
L 271.389317 81.165747 
L 272.836986 76.323629 
L 274.284656 73.309618 
L 275.732326 68.935897 
L 277.179995 66.02132 
L 278.627665 63.371493 
L 280.075335 59.614318 
L 281.523004 56.314225 
L 282.970674 52.632064 
L 285.866013 43.815499 
L 287.313683 41.607764 
L 288.761352 38.307284 
L 290.209022 36.151272 
L 291.656691 38.030576 
L 293.104361 40.553006 
L 294.552031 43.996493 
L 295.9997 46.755215 
L 297.44737 49.829663 
L 298.895039 54.483547 
L 300.342709 60.594899 
L 303.238048 70.770168 
L 304.685718 77.668073 
L 307.581057 93.917989 
L 309.028727 103.647756 
L 311.924066 121.119403 
L 317.714744 158.066897 
L 322.057753 184.009644 
L 324.953093 198.962691 
L 327.848432 211.420761 
L 330.743771 225.185096 
L 335.08678 243.925946 
L 336.534449 250.028743 
L 337.982119 255.258743 
L 339.429789 259.527705 
L 345.220467 273.447578 
L 346.668137 276.287649 
L 348.115806 278.085998 
L 349.563476 279.602587 
L 351.011146 281.369635 
L 353.906485 284.416383 
L 355.354154 285.772361 
L 356.801824 286.494979 
L 358.249494 287.626024 
L 361.144833 289.228023 
L 362.592502 290.090153 
L 364.040172 290.741484 
L 365.487842 291.688973 
L 368.383181 293.094445 
L 371.27852 294.010449 
L 372.72619 294.299742 
L 378.516868 294.939472 
L 390.098225 295.171141 
L 397.336573 295.179833 
L 397.336573 295.179833 
" clip-path="url(#p8c5251275a)" style="fill: none; stroke-dasharray: 7.4,3.2; stroke-dashoffset: 0; stroke: #000080; stroke-width: 2"/>
   </g>
   <g id="patch_63">
    <path d="M 86.61875 295.179844 
L 86.61875 23.199844 
" style="fill: none; stroke: #bcbcbc; stroke-linejoin: miter; stroke-linecap: square"/>
   </g>
   <g id="patch_64">
    <path d="M 413.598828 295.179844 
L 413.598828 23.199844 
" style="fill: none; stroke: #bcbcbc; stroke-linejoin: miter; stroke-linecap: square"/>
   </g>
   <g id="patch_65">
    <path d="M 86.61875 295.179844 
L 413.598828 295.179844 
" style="fill: none; stroke: #bcbcbc; stroke-linejoin: miter; stroke-linecap: square"/>
   </g>
   <g id="patch_66">
    <path d="M 86.61875 23.199844 
L 413.598828 23.199844 
" style="fill: none; stroke: #bcbcbc; stroke-linejoin: miter; stroke-linecap: square"/>
   </g>
   <g id="text_15">
    <!-- Resultado das Inversões -->
    <g style="fill: #212121" transform="translate(138.186914 17.199844) scale(0.19 -0.19)">
     <defs>
      <path id="Arial-BoldMT-52" d="M 469 0 
L 469 4581 
L 2416 4581 
Q 3150 4581 3483 4457 
Q 3816 4334 4016 4018 
Q 4216 3703 4216 3297 
Q 4216 2781 3912 2445 
Q 3609 2109 3006 2022 
Q 3306 1847 3501 1637 
Q 3697 1428 4028 894 
L 4588 0 
L 3481 0 
L 2813 997 
Q 2456 1531 2325 1670 
Q 2194 1809 2047 1861 
Q 1900 1913 1581 1913 
L 1394 1913 
L 1394 0 
L 469 0 
z
M 1394 2644 
L 2078 2644 
Q 2744 2644 2909 2700 
Q 3075 2756 3169 2893 
Q 3263 3031 3263 3238 
Q 3263 3469 3139 3611 
Q 3016 3753 2791 3791 
Q 2678 3806 2116 3806 
L 1394 3806 
L 1394 2644 
z
" transform="scale(0.015625)"/>
      <path id="Arial-BoldMT-65" d="M 2381 1056 
L 3256 909 
Q 3088 428 2723 176 
Q 2359 -75 1813 -75 
Q 947 -75 531 491 
Q 203 944 203 1634 
Q 203 2459 634 2926 
Q 1066 3394 1725 3394 
Q 2466 3394 2894 2905 
Q 3322 2416 3303 1406 
L 1103 1406 
Q 1113 1016 1316 798 
Q 1519 581 1822 581 
Q 2028 581 2168 693 
Q 2309 806 2381 1056 
z
M 2431 1944 
Q 2422 2325 2234 2523 
Q 2047 2722 1778 2722 
Q 1491 2722 1303 2513 
Q 1116 2303 1119 1944 
L 2431 1944 
z
" transform="scale(0.015625)"/>
      <path id="Arial-BoldMT-73" d="M 150 947 
L 1031 1081 
Q 1088 825 1259 692 
Q 1431 559 1741 559 
Q 2081 559 2253 684 
Q 2369 772 2369 919 
Q 2369 1019 2306 1084 
Q 2241 1147 2013 1200 
Q 950 1434 666 1628 
Q 272 1897 272 2375 
Q 272 2806 612 3100 
Q 953 3394 1669 3394 
Q 2350 3394 2681 3172 
Q 3013 2950 3138 2516 
L 2309 2363 
Q 2256 2556 2107 2659 
Q 1959 2763 1684 2763 
Q 1338 2763 1188 2666 
Q 1088 2597 1088 2488 
Q 1088 2394 1175 2328 
Q 1294 2241 1995 2081 
Q 2697 1922 2975 1691 
Q 3250 1456 3250 1038 
Q 3250 581 2869 253 
Q 2488 -75 1741 -75 
Q 1063 -75 667 200 
Q 272 475 150 947 
z
" transform="scale(0.015625)"/>
      <path id="Arial-BoldMT-75" d="M 2644 0 
L 2644 497 
Q 2463 231 2167 78 
Q 1872 -75 1544 -75 
Q 1209 -75 943 72 
Q 678 219 559 484 
Q 441 750 441 1219 
L 441 3319 
L 1319 3319 
L 1319 1794 
Q 1319 1094 1367 936 
Q 1416 778 1544 686 
Q 1672 594 1869 594 
Q 2094 594 2272 717 
Q 2450 841 2515 1023 
Q 2581 1206 2581 1919 
L 2581 3319 
L 3459 3319 
L 3459 0 
L 2644 0 
z
" transform="scale(0.015625)"/>
      <path id="Arial-BoldMT-6c" d="M 459 0 
L 459 4581 
L 1338 4581 
L 1338 0 
L 459 0 
z
" transform="scale(0.015625)"/>
      <path id="Arial-BoldMT-74" d="M 1981 3319 
L 1981 2619 
L 1381 2619 
L 1381 1281 
Q 1381 875 1398 808 
Q 1416 741 1477 697 
Q 1538 653 1625 653 
Q 1747 653 1978 738 
L 2053 56 
Q 1747 -75 1359 -75 
Q 1122 -75 931 4 
Q 741 84 652 211 
Q 563 338 528 553 
Q 500 706 500 1172 
L 500 2619 
L 97 2619 
L 97 3319 
L 500 3319 
L 500 3978 
L 1381 4491 
L 1381 3319 
L 1981 3319 
z
" transform="scale(0.015625)"/>
      <path id="Arial-BoldMT-61" d="M 1116 2306 
L 319 2450 
Q 453 2931 781 3162 
Q 1109 3394 1756 3394 
Q 2344 3394 2631 3255 
Q 2919 3116 3036 2902 
Q 3153 2688 3153 2116 
L 3144 1091 
Q 3144 653 3186 445 
Q 3228 238 3344 0 
L 2475 0 
Q 2441 88 2391 259 
Q 2369 338 2359 363 
Q 2134 144 1878 34 
Q 1622 -75 1331 -75 
Q 819 -75 523 203 
Q 228 481 228 906 
Q 228 1188 362 1408 
Q 497 1628 739 1745 
Q 981 1863 1438 1950 
Q 2053 2066 2291 2166 
L 2291 2253 
Q 2291 2506 2166 2614 
Q 2041 2722 1694 2722 
Q 1459 2722 1328 2630 
Q 1197 2538 1116 2306 
z
M 2291 1594 
Q 2122 1538 1756 1459 
Q 1391 1381 1278 1306 
Q 1106 1184 1106 997 
Q 1106 813 1243 678 
Q 1381 544 1594 544 
Q 1831 544 2047 700 
Q 2206 819 2256 991 
Q 2291 1103 2291 1419 
L 2291 1594 
z
" transform="scale(0.015625)"/>
      <path id="Arial-BoldMT-64" d="M 3503 0 
L 2688 0 
L 2688 488 
Q 2484 203 2207 64 
Q 1931 -75 1650 -75 
Q 1078 -75 670 386 
Q 263 847 263 1672 
Q 263 2516 659 2955 
Q 1056 3394 1663 3394 
Q 2219 3394 2625 2931 
L 2625 4581 
L 3503 4581 
L 3503 0 
z
M 1159 1731 
Q 1159 1200 1306 963 
Q 1519 619 1900 619 
Q 2203 619 2415 876 
Q 2628 1134 2628 1647 
Q 2628 2219 2422 2470 
Q 2216 2722 1894 2722 
Q 1581 2722 1370 2473 
Q 1159 2225 1159 1731 
z
" transform="scale(0.015625)"/>
      <path id="Arial-BoldMT-6f" d="M 256 1706 
Q 256 2144 472 2553 
Q 688 2963 1083 3178 
Q 1478 3394 1966 3394 
Q 2719 3394 3200 2905 
Q 3681 2416 3681 1669 
Q 3681 916 3195 420 
Q 2709 -75 1972 -75 
Q 1516 -75 1102 131 
Q 688 338 472 736 
Q 256 1134 256 1706 
z
M 1156 1659 
Q 1156 1166 1390 903 
Q 1625 641 1969 641 
Q 2313 641 2545 903 
Q 2778 1166 2778 1666 
Q 2778 2153 2545 2415 
Q 2313 2678 1969 2678 
Q 1625 2678 1390 2415 
Q 1156 2153 1156 1659 
z
" transform="scale(0.015625)"/>
      <path id="Arial-BoldMT-20" transform="scale(0.015625)"/>
      <path id="Arial-BoldMT-49" d="M 438 0 
L 438 4581 
L 1363 4581 
L 1363 0 
L 438 0 
z
" transform="scale(0.015625)"/>
      <path id="Arial-BoldMT-6e" d="M 3478 0 
L 2600 0 
L 2600 1694 
Q 2600 2231 2544 2389 
Q 2488 2547 2361 2634 
Q 2234 2722 2056 2722 
Q 1828 2722 1647 2597 
Q 1466 2472 1398 2265 
Q 1331 2059 1331 1503 
L 1331 0 
L 453 0 
L 453 3319 
L 1269 3319 
L 1269 2831 
Q 1703 3394 2363 3394 
Q 2653 3394 2893 3289 
Q 3134 3184 3257 3021 
Q 3381 2859 3429 2653 
Q 3478 2447 3478 2063 
L 3478 0 
z
" transform="scale(0.015625)"/>
      <path id="Arial-BoldMT-76" d="M 1372 0 
L 34 3319 
L 956 3319 
L 1581 1625 
L 1763 1059 
Q 1834 1275 1853 1344 
Q 1897 1484 1947 1625 
L 2578 3319 
L 3481 3319 
L 2163 0 
L 1372 0 
z
" transform="scale(0.015625)"/>
      <path id="Arial-BoldMT-72" d="M 1300 0 
L 422 0 
L 422 3319 
L 1238 3319 
L 1238 2847 
Q 1447 3181 1614 3287 
Q 1781 3394 1994 3394 
Q 2294 3394 2572 3228 
L 2300 2463 
Q 2078 2606 1888 2606 
Q 1703 2606 1575 2504 
Q 1447 2403 1373 2137 
Q 1300 1872 1300 1025 
L 1300 0 
z
" transform="scale(0.015625)"/>
      <path id="Arial-BoldMT-f5" d="M 256 1706 
Q 256 2144 472 2553 
Q 688 2963 1083 3178 
Q 1478 3394 1966 3394 
Q 2719 3394 3200 2905 
Q 3681 2416 3681 1669 
Q 3681 916 3195 420 
Q 2709 -75 1972 -75 
Q 1516 -75 1102 131 
Q 688 338 472 736 
Q 256 1134 256 1706 
z
M 1156 1659 
Q 1156 1166 1390 903 
Q 1625 641 1969 641 
Q 2313 641 2545 903 
Q 2778 1166 2778 1666 
Q 2778 2153 2545 2415 
Q 2313 2678 1969 2678 
Q 1625 2678 1390 2415 
Q 1156 2153 1156 1659 
z
M 1291 3766 
L 891 3766 
Q 887 3838 887 3878 
Q 887 4206 1046 4382 
Q 1206 4559 1456 4559 
Q 1566 4559 1659 4536 
Q 1753 4513 2001 4402 
Q 2250 4291 2391 4291 
Q 2491 4291 2558 4353 
Q 2625 4416 2644 4563 
L 3050 4563 
Q 3047 4141 2892 3959 
Q 2737 3778 2494 3778 
Q 2387 3778 2284 3800 
Q 2212 3819 1924 3928 
Q 1637 4038 1506 4038 
Q 1406 4038 1350 3977 
Q 1294 3916 1291 3766 
z
" transform="scale(0.015625)"/>
     </defs>
     <use xlink:href="#Arial-BoldMT-52"/>
     <use xlink:href="#Arial-BoldMT-65" x="72.216797"/>
     <use xlink:href="#Arial-BoldMT-73" x="127.832031"/>
     <use xlink:href="#Arial-BoldMT-75" x="183.447266"/>
     <use xlink:href="#Arial-BoldMT-6c" x="244.53125"/>
     <use xlink:href="#Arial-BoldMT-74" x="272.314453"/>
     <use xlink:href="#Arial-BoldMT-61" x="305.615234"/>
     <use xlink:href="#Arial-BoldMT-64" x="361.230469"/>
     <use xlink:href="#Arial-BoldMT-6f" x="422.314453"/>
     <use xlink:href="#Arial-BoldMT-20" x="483.398438"/>
     <use xlink:href="#Arial-BoldMT-64" x="511.181641"/>
     <use xlink:href="#Arial-BoldMT-61" x="572.265625"/>
     <use xlink:href="#Arial-BoldMT-73" x="627.880859"/>
     <use xlink:href="#Arial-BoldMT-20" x="683.496094"/>
     <use xlink:href="#Arial-BoldMT-49" x="711.279297"/>
     <use xlink:href="#Arial-BoldMT-6e" x="739.0625"/>
     <use xlink:href="#Arial-BoldMT-76" x="800.146484"/>
     <use xlink:href="#Arial-BoldMT-65" x="855.761719"/>
     <use xlink:href="#Arial-BoldMT-72" x="911.376953"/>
     <use xlink:href="#Arial-BoldMT-73" x="950.292969"/>
     <use xlink:href="#Arial-BoldMT-f5" x="1005.908203"/>
     <use xlink:href="#Arial-BoldMT-65" x="1066.992188"/>
     <use xlink:href="#Arial-BoldMT-73" x="1122.607422"/>
    </g>
   </g>
   <g id="legend_1">
    <g id="patch_67">
     <path d="M 97.81875 81.264844 
L 230.82625 81.264844 
Q 234.02625 81.264844 234.02625 78.064844 
L 234.02625 34.399844 
Q 234.02625 31.199844 230.82625 31.199844 
L 97.81875 31.199844 
Q 94.61875 31.199844 94.61875 34.399844 
L 94.61875 78.064844 
Q 94.61875 81.264844 97.81875 81.264844 
z
" style="fill: #eeeeee; stroke: #cccccc; stroke-width: 0.5; stroke-linejoin: miter"/>
    </g>
    <g id="patch_68">
     <path d="M 101.01875 49.052344 
L 133.01875 49.052344 
L 133.01875 37.852344 
L 101.01875 37.852344 
z
" style="fill: #0072b2; stroke: #000000; stroke-width: 0.5; stroke-linejoin: miter"/>
    </g>
    <g id="text_16">
     <!-- Ricker -->
     <g transform="translate(145.81875 49.052344) scale(0.16 -0.16)">
      <defs>
       <path id="ArialMT-52" d="M 503 0 
L 503 4581 
L 2534 4581 
Q 3147 4581 3465 4457 
Q 3784 4334 3975 4021 
Q 4166 3709 4166 3331 
Q 4166 2844 3850 2509 
Q 3534 2175 2875 2084 
Q 3116 1969 3241 1856 
Q 3506 1613 3744 1247 
L 4541 0 
L 3778 0 
L 3172 953 
Q 2906 1366 2734 1584 
Q 2563 1803 2427 1890 
Q 2291 1978 2150 2013 
Q 2047 2034 1813 2034 
L 1109 2034 
L 1109 0 
L 503 0 
z
M 1109 2559 
L 2413 2559 
Q 2828 2559 3062 2645 
Q 3297 2731 3419 2920 
Q 3541 3109 3541 3331 
Q 3541 3656 3305 3865 
Q 3069 4075 2559 4075 
L 1109 4075 
L 1109 2559 
z
" transform="scale(0.015625)"/>
       <path id="ArialMT-6b" d="M 425 0 
L 425 4581 
L 988 4581 
L 988 1969 
L 2319 3319 
L 3047 3319 
L 1778 2088 
L 3175 0 
L 2481 0 
L 1384 1697 
L 988 1316 
L 988 0 
L 425 0 
z
" transform="scale(0.015625)"/>
       <path id="ArialMT-72" d="M 416 0 
L 416 3319 
L 922 3319 
L 922 2816 
Q 1116 3169 1280 3281 
Q 1444 3394 1641 3394 
Q 1925 3394 2219 3213 
L 2025 2691 
Q 1819 2813 1613 2813 
Q 1428 2813 1281 2702 
Q 1134 2591 1072 2394 
Q 978 2094 978 1738 
L 978 0 
L 416 0 
z
" transform="scale(0.015625)"/>
      </defs>
      <use xlink:href="#ArialMT-52"/>
      <use xlink:href="#ArialMT-69" x="72.216797"/>
      <use xlink:href="#ArialMT-63" x="94.433594"/>
      <use xlink:href="#ArialMT-6b" x="144.433594"/>
      <use xlink:href="#ArialMT-65" x="194.433594"/>
      <use xlink:href="#ArialMT-72" x="250.048828"/>
     </g>
    </g>
    <g id="patch_69">
     <path d="M 101.01875 71.684844 
L 133.01875 71.684844 
L 133.01875 60.484844 
L 101.01875 60.484844 
z
" style="fill: #a60628; stroke: #000000; stroke-width: 0.5; stroke-linejoin: miter"/>
    </g>
    <g id="text_17">
     <!-- Butterworth -->
     <g transform="translate(145.81875 71.684844) scale(0.16 -0.16)">
      <defs>
       <path id="ArialMT-42" d="M 469 0 
L 469 4581 
L 2188 4581 
Q 2713 4581 3030 4442 
Q 3347 4303 3526 4014 
Q 3706 3725 3706 3409 
Q 3706 3116 3547 2856 
Q 3388 2597 3066 2438 
Q 3481 2316 3704 2022 
Q 3928 1728 3928 1328 
Q 3928 1006 3792 729 
Q 3656 453 3456 303 
Q 3256 153 2954 76 
Q 2653 0 2216 0 
L 469 0 
z
M 1075 2656 
L 2066 2656 
Q 2469 2656 2644 2709 
Q 2875 2778 2992 2937 
Q 3109 3097 3109 3338 
Q 3109 3566 3000 3739 
Q 2891 3913 2687 3977 
Q 2484 4041 1991 4041 
L 1075 4041 
L 1075 2656 
z
M 1075 541 
L 2216 541 
Q 2509 541 2628 563 
Q 2838 600 2978 687 
Q 3119 775 3209 942 
Q 3300 1109 3300 1328 
Q 3300 1584 3169 1773 
Q 3038 1963 2805 2039 
Q 2572 2116 2134 2116 
L 1075 2116 
L 1075 541 
z
" transform="scale(0.015625)"/>
       <path id="ArialMT-75" d="M 2597 0 
L 2597 488 
Q 2209 -75 1544 -75 
Q 1250 -75 995 37 
Q 741 150 617 320 
Q 494 491 444 738 
Q 409 903 409 1263 
L 409 3319 
L 972 3319 
L 972 1478 
Q 972 1038 1006 884 
Q 1059 663 1231 536 
Q 1403 409 1656 409 
Q 1909 409 2131 539 
Q 2353 669 2445 892 
Q 2538 1116 2538 1541 
L 2538 3319 
L 3100 3319 
L 3100 0 
L 2597 0 
z
" transform="scale(0.015625)"/>
       <path id="ArialMT-77" d="M 1034 0 
L 19 3319 
L 600 3319 
L 1128 1403 
L 1325 691 
Q 1338 744 1497 1375 
L 2025 3319 
L 2603 3319 
L 3100 1394 
L 3266 759 
L 3456 1400 
L 4025 3319 
L 4572 3319 
L 3534 0 
L 2950 0 
L 2422 1988 
L 2294 2553 
L 1622 0 
L 1034 0 
z
" transform="scale(0.015625)"/>
       <path id="ArialMT-6f" d="M 213 1659 
Q 213 2581 725 3025 
Q 1153 3394 1769 3394 
Q 2453 3394 2887 2945 
Q 3322 2497 3322 1706 
Q 3322 1066 3130 698 
Q 2938 331 2570 128 
Q 2203 -75 1769 -75 
Q 1072 -75 642 372 
Q 213 819 213 1659 
z
M 791 1659 
Q 791 1022 1069 705 
Q 1347 388 1769 388 
Q 2188 388 2466 706 
Q 2744 1025 2744 1678 
Q 2744 2294 2464 2611 
Q 2184 2928 1769 2928 
Q 1347 2928 1069 2612 
Q 791 2297 791 1659 
z
" transform="scale(0.015625)"/>
       <path id="ArialMT-68" d="M 422 0 
L 422 4581 
L 984 4581 
L 984 2938 
Q 1378 3394 1978 3394 
Q 2347 3394 2619 3248 
Q 2891 3103 3008 2847 
Q 3125 2591 3125 2103 
L 3125 0 
L 2563 0 
L 2563 2103 
Q 2563 2525 2380 2717 
Q 2197 2909 1863 2909 
Q 1613 2909 1392 2779 
Q 1172 2650 1078 2428 
Q 984 2206 984 1816 
L 984 0 
L 422 0 
z
" transform="scale(0.015625)"/>
      </defs>
      <use xlink:href="#ArialMT-42"/>
      <use xlink:href="#ArialMT-75" x="66.699219"/>
      <use xlink:href="#ArialMT-74" x="122.314453"/>
      <use xlink:href="#ArialMT-74" x="150.097656"/>
      <use xlink:href="#ArialMT-65" x="177.880859"/>
      <use xlink:href="#ArialMT-72" x="233.496094"/>
      <use xlink:href="#ArialMT-77" x="266.796875"/>
      <use xlink:href="#ArialMT-6f" x="339.013672"/>
      <use xlink:href="#ArialMT-72" x="394.628906"/>
      <use xlink:href="#ArialMT-74" x="427.929688"/>
      <use xlink:href="#ArialMT-68" x="455.712891"/>
     </g>
    </g>
   </g>
  </g>
 </g>
 <defs>
  <clipPath id="p8c5251275a">
   <rect x="86.61875" y="23.199844" width="326.980078" height="271.98"/>
  </clipPath>
 </defs>
</svg>
