<?xml version="1.0" encoding="utf-8" standalone="no"?>
<!DOCTYPE svg PUBLIC "-//W3C//DTD SVG 1.1//EN"
  "http://www.w3.org/Graphics/SVG/1.1/DTD/svg11.dtd">
<svg xmlns:xlink="http://www.w3.org/1999/xlink" width="417.198828pt" height="342.192344pt" viewBox="0 0 417.198828 342.192344" xmlns="http://www.w3.org/2000/svg" version="1.1">
 <metadata>
  <rdf:RDF xmlns:dc="http://purl.org/dc/elements/1.1/" xmlns:cc="http://creativecommons.org/ns#" xmlns:rdf="http://www.w3.org/1999/02/22-rdf-syntax-ns#">
   <cc:Work>
    <dc:type rdf:resource="http://purl.org/dc/dcmitype/StillImage"/>
    <dc:date>2024-09-28T11:34:18.372632</dc:date>
    <dc:format>image/svg+xml</dc:format>
    <dc:creator>
     <cc:Agent>
      <dc:title>Matplotlib v3.9.2, https://matplotlib.org/</dc:title>
     </cc:Agent>
    </dc:creator>
   </cc:Work>
  </rdf:RDF>
 </metadata>
 <defs>
  <style type="text/css">*{stroke-linejoin: round; stroke-linecap: butt}</style>
 </defs>
 <g id="figure_1">
  <g id="patch_1">
   <path d="M -0 342.192344 
L 417.198828 342.192344 
L 417.198828 0 
L -0 0 
z
" style="fill: #ffffff"/>
  </g>
  <g id="axes_1">
   <g id="patch_2">
    <path d="M 86.61875 295.179844 
L 413.598828 295.179844 
L 413.598828 23.199844 
L 86.61875 23.199844 
z
" style="fill: #eeeeee"/>
   </g>
   <g id="matplotlib.axis_1">
    <g id="xtick_1">
     <g id="line2d_1">
      <path d="M 117.348615 295.179844 
L 117.348615 23.199844 
" clip-path="url(#p10134016d3)" style="fill: none; stroke-dasharray: 1.85,0.8; stroke-dashoffset: 0; stroke: #000000; stroke-opacity: 0.5; stroke-width: 0.5"/>
     </g>
     <g id="line2d_2">
      <defs>
       <path id="m4668ac265e" d="M 0 0 
L 0 -6 
" style="stroke: #000000"/>
      </defs>
      <g>
       <use xlink:href="#m4668ac265e" x="117.348615" y="295.179844" style="stroke: #000000"/>
      </g>
     </g>
     <g id="line2d_3">
      <defs>
       <path id="me97b51e81b" d="M 0 0 
L 0 6 
" style="stroke: #000000"/>
      </defs>
      <g>
       <use xlink:href="#me97b51e81b" x="117.348615" y="23.199844" style="stroke: #000000"/>
      </g>
     </g>
     <g id="text_1">
      <!-- −10000 -->
      <g transform="translate(90.432365 310.132344) scale(0.16 -0.16)">
       <defs>
        <path id="ArialMT-2212" d="M 3381 1997 
L 356 1997 
L 356 2522 
L 3381 2522 
L 3381 1997 
z
" transform="scale(0.015625)"/>
        <path id="ArialMT-31" d="M 2384 0 
L 1822 0 
L 1822 3584 
Q 1619 3391 1289 3197 
Q 959 3003 697 2906 
L 697 3450 
Q 1169 3672 1522 3987 
Q 1875 4303 2022 4600 
L 2384 4600 
L 2384 0 
z
" transform="scale(0.015625)"/>
        <path id="ArialMT-30" d="M 266 2259 
Q 266 3072 433 3567 
Q 600 4063 929 4331 
Q 1259 4600 1759 4600 
Q 2128 4600 2406 4451 
Q 2684 4303 2865 4023 
Q 3047 3744 3150 3342 
Q 3253 2941 3253 2259 
Q 3253 1453 3087 958 
Q 2922 463 2592 192 
Q 2263 -78 1759 -78 
Q 1097 -78 719 397 
Q 266 969 266 2259 
z
M 844 2259 
Q 844 1131 1108 757 
Q 1372 384 1759 384 
Q 2147 384 2411 759 
Q 2675 1134 2675 2259 
Q 2675 3391 2411 3762 
Q 2147 4134 1753 4134 
Q 1366 4134 1134 3806 
Q 844 3388 844 2259 
z
" transform="scale(0.015625)"/>
       </defs>
       <use xlink:href="#ArialMT-2212"/>
       <use xlink:href="#ArialMT-31" x="58.398438"/>
       <use xlink:href="#ArialMT-30" x="114.013672"/>
       <use xlink:href="#ArialMT-30" x="169.628906"/>
       <use xlink:href="#ArialMT-30" x="225.244141"/>
       <use xlink:href="#ArialMT-30" x="280.859375"/>
      </g>
     </g>
    </g>
    <g id="xtick_2">
     <g id="line2d_4">
      <path d="M 179.733962 295.179844 
L 179.733962 23.199844 
" clip-path="url(#p10134016d3)" style="fill: none; stroke-dasharray: 1.85,0.8; stroke-dashoffset: 0; stroke: #000000; stroke-opacity: 0.5; stroke-width: 0.5"/>
     </g>
     <g id="line2d_5">
      <g>
       <use xlink:href="#m4668ac265e" x="179.733962" y="295.179844" style="stroke: #000000"/>
      </g>
     </g>
     <g id="line2d_6">
      <g>
       <use xlink:href="#me97b51e81b" x="179.733962" y="23.199844" style="stroke: #000000"/>
      </g>
     </g>
     <g id="text_2">
      <!-- −5000 -->
      <g transform="translate(157.266462 310.132344) scale(0.16 -0.16)">
       <defs>
        <path id="ArialMT-35" d="M 266 1200 
L 856 1250 
Q 922 819 1161 601 
Q 1400 384 1738 384 
Q 2144 384 2425 690 
Q 2706 997 2706 1503 
Q 2706 1984 2436 2262 
Q 2166 2541 1728 2541 
Q 1456 2541 1237 2417 
Q 1019 2294 894 2097 
L 366 2166 
L 809 4519 
L 3088 4519 
L 3088 3981 
L 1259 3981 
L 1013 2750 
Q 1425 3038 1878 3038 
Q 2478 3038 2890 2622 
Q 3303 2206 3303 1553 
Q 3303 931 2941 478 
Q 2500 -78 1738 -78 
Q 1113 -78 717 272 
Q 322 622 266 1200 
z
" transform="scale(0.015625)"/>
       </defs>
       <use xlink:href="#ArialMT-2212"/>
       <use xlink:href="#ArialMT-35" x="58.398438"/>
       <use xlink:href="#ArialMT-30" x="114.013672"/>
       <use xlink:href="#ArialMT-30" x="169.628906"/>
       <use xlink:href="#ArialMT-30" x="225.244141"/>
      </g>
     </g>
    </g>
    <g id="xtick_3">
     <g id="line2d_7">
      <path d="M 242.11931 295.179844 
L 242.11931 23.199844 
" clip-path="url(#p10134016d3)" style="fill: none; stroke-dasharray: 1.85,0.8; stroke-dashoffset: 0; stroke: #000000; stroke-opacity: 0.5; stroke-width: 0.5"/>
     </g>
     <g id="line2d_8">
      <g>
       <use xlink:href="#m4668ac265e" x="242.11931" y="295.179844" style="stroke: #000000"/>
      </g>
     </g>
     <g id="line2d_9">
      <g>
       <use xlink:href="#me97b51e81b" x="242.11931" y="23.199844" style="stroke: #000000"/>
      </g>
     </g>
     <g id="text_3">
      <!-- 0 -->
      <g transform="translate(237.67056 310.132344) scale(0.16 -0.16)">
       <use xlink:href="#ArialMT-30"/>
      </g>
     </g>
    </g>
    <g id="xtick_4">
     <g id="line2d_10">
      <path d="M 304.504658 295.179844 
L 304.504658 23.199844 
" clip-path="url(#p10134016d3)" style="fill: none; stroke-dasharray: 1.85,0.8; stroke-dashoffset: 0; stroke: #000000; stroke-opacity: 0.5; stroke-width: 0.5"/>
     </g>
     <g id="line2d_11">
      <g>
       <use xlink:href="#m4668ac265e" x="304.504658" y="295.179844" style="stroke: #000000"/>
      </g>
     </g>
     <g id="line2d_12">
      <g>
       <use xlink:href="#me97b51e81b" x="304.504658" y="23.199844" style="stroke: #000000"/>
      </g>
     </g>
     <g id="text_4">
      <!-- 5000 -->
      <g transform="translate(286.709658 310.132344) scale(0.16 -0.16)">
       <use xlink:href="#ArialMT-35"/>
       <use xlink:href="#ArialMT-30" x="55.615234"/>
       <use xlink:href="#ArialMT-30" x="111.230469"/>
       <use xlink:href="#ArialMT-30" x="166.845703"/>
      </g>
     </g>
    </g>
    <g id="xtick_5">
     <g id="line2d_13">
      <path d="M 366.890005 295.179844 
L 366.890005 23.199844 
" clip-path="url(#p10134016d3)" style="fill: none; stroke-dasharray: 1.85,0.8; stroke-dashoffset: 0; stroke: #000000; stroke-opacity: 0.5; stroke-width: 0.5"/>
     </g>
     <g id="line2d_14">
      <g>
       <use xlink:href="#m4668ac265e" x="366.890005" y="295.179844" style="stroke: #000000"/>
      </g>
     </g>
     <g id="line2d_15">
      <g>
       <use xlink:href="#me97b51e81b" x="366.890005" y="23.199844" style="stroke: #000000"/>
      </g>
     </g>
     <g id="text_5">
      <!-- 10000 -->
      <g transform="translate(344.646255 310.132344) scale(0.16 -0.16)">
       <use xlink:href="#ArialMT-31"/>
       <use xlink:href="#ArialMT-30" x="55.615234"/>
       <use xlink:href="#ArialMT-30" x="111.230469"/>
       <use xlink:href="#ArialMT-30" x="166.845703"/>
       <use xlink:href="#ArialMT-30" x="222.460938"/>
      </g>
     </g>
    </g>
    <g id="xtick_6">
     <g id="line2d_16">
      <defs>
       <path id="mb4f1e4f002" d="M 0 0 
L 0 -3 
" style="stroke: #000000"/>
      </defs>
      <g>
       <use xlink:href="#mb4f1e4f002" x="92.394476" y="295.179844" style="stroke: #000000"/>
      </g>
     </g>
     <g id="line2d_17">
      <defs>
       <path id="m108dbd7e40" d="M 0 0 
L 0 3 
" style="stroke: #000000"/>
      </defs>
      <g>
       <use xlink:href="#m108dbd7e40" x="92.394476" y="23.199844" style="stroke: #000000"/>
      </g>
     </g>
    </g>
    <g id="xtick_7">
     <g id="line2d_18">
      <g>
       <use xlink:href="#mb4f1e4f002" x="104.871545" y="295.179844" style="stroke: #000000"/>
      </g>
     </g>
     <g id="line2d_19">
      <g>
       <use xlink:href="#m108dbd7e40" x="104.871545" y="23.199844" style="stroke: #000000"/>
      </g>
     </g>
    </g>
    <g id="xtick_8">
     <g id="line2d_20">
      <g>
       <use xlink:href="#mb4f1e4f002" x="129.825684" y="295.179844" style="stroke: #000000"/>
      </g>
     </g>
     <g id="line2d_21">
      <g>
       <use xlink:href="#m108dbd7e40" x="129.825684" y="23.199844" style="stroke: #000000"/>
      </g>
     </g>
    </g>
    <g id="xtick_9">
     <g id="line2d_22">
      <g>
       <use xlink:href="#mb4f1e4f002" x="142.302754" y="295.179844" style="stroke: #000000"/>
      </g>
     </g>
     <g id="line2d_23">
      <g>
       <use xlink:href="#m108dbd7e40" x="142.302754" y="23.199844" style="stroke: #000000"/>
      </g>
     </g>
    </g>
    <g id="xtick_10">
     <g id="line2d_24">
      <g>
       <use xlink:href="#mb4f1e4f002" x="154.779823" y="295.179844" style="stroke: #000000"/>
      </g>
     </g>
     <g id="line2d_25">
      <g>
       <use xlink:href="#m108dbd7e40" x="154.779823" y="23.199844" style="stroke: #000000"/>
      </g>
     </g>
    </g>
    <g id="xtick_11">
     <g id="line2d_26">
      <g>
       <use xlink:href="#mb4f1e4f002" x="167.256893" y="295.179844" style="stroke: #000000"/>
      </g>
     </g>
     <g id="line2d_27">
      <g>
       <use xlink:href="#m108dbd7e40" x="167.256893" y="23.199844" style="stroke: #000000"/>
      </g>
     </g>
    </g>
    <g id="xtick_12">
     <g id="line2d_28">
      <g>
       <use xlink:href="#mb4f1e4f002" x="192.211032" y="295.179844" style="stroke: #000000"/>
      </g>
     </g>
     <g id="line2d_29">
      <g>
       <use xlink:href="#m108dbd7e40" x="192.211032" y="23.199844" style="stroke: #000000"/>
      </g>
     </g>
    </g>
    <g id="xtick_13">
     <g id="line2d_30">
      <g>
       <use xlink:href="#mb4f1e4f002" x="204.688101" y="295.179844" style="stroke: #000000"/>
      </g>
     </g>
     <g id="line2d_31">
      <g>
       <use xlink:href="#m108dbd7e40" x="204.688101" y="23.199844" style="stroke: #000000"/>
      </g>
     </g>
    </g>
    <g id="xtick_14">
     <g id="line2d_32">
      <g>
       <use xlink:href="#mb4f1e4f002" x="217.165171" y="295.179844" style="stroke: #000000"/>
      </g>
     </g>
     <g id="line2d_33">
      <g>
       <use xlink:href="#m108dbd7e40" x="217.165171" y="23.199844" style="stroke: #000000"/>
      </g>
     </g>
    </g>
    <g id="xtick_15">
     <g id="line2d_34">
      <g>
       <use xlink:href="#mb4f1e4f002" x="229.64224" y="295.179844" style="stroke: #000000"/>
      </g>
     </g>
     <g id="line2d_35">
      <g>
       <use xlink:href="#m108dbd7e40" x="229.64224" y="23.199844" style="stroke: #000000"/>
      </g>
     </g>
    </g>
    <g id="xtick_16">
     <g id="line2d_36">
      <g>
       <use xlink:href="#mb4f1e4f002" x="254.59638" y="295.179844" style="stroke: #000000"/>
      </g>
     </g>
     <g id="line2d_37">
      <g>
       <use xlink:href="#m108dbd7e40" x="254.59638" y="23.199844" style="stroke: #000000"/>
      </g>
     </g>
    </g>
    <g id="xtick_17">
     <g id="line2d_38">
      <g>
       <use xlink:href="#mb4f1e4f002" x="267.073449" y="295.179844" style="stroke: #000000"/>
      </g>
     </g>
     <g id="line2d_39">
      <g>
       <use xlink:href="#m108dbd7e40" x="267.073449" y="23.199844" style="stroke: #000000"/>
      </g>
     </g>
    </g>
    <g id="xtick_18">
     <g id="line2d_40">
      <g>
       <use xlink:href="#mb4f1e4f002" x="279.550519" y="295.179844" style="stroke: #000000"/>
      </g>
     </g>
     <g id="line2d_41">
      <g>
       <use xlink:href="#m108dbd7e40" x="279.550519" y="23.199844" style="stroke: #000000"/>
      </g>
     </g>
    </g>
    <g id="xtick_19">
     <g id="line2d_42">
      <g>
       <use xlink:href="#mb4f1e4f002" x="292.027588" y="295.179844" style="stroke: #000000"/>
      </g>
     </g>
     <g id="line2d_43">
      <g>
       <use xlink:href="#m108dbd7e40" x="292.027588" y="23.199844" style="stroke: #000000"/>
      </g>
     </g>
    </g>
    <g id="xtick_20">
     <g id="line2d_44">
      <g>
       <use xlink:href="#mb4f1e4f002" x="316.981727" y="295.179844" style="stroke: #000000"/>
      </g>
     </g>
     <g id="line2d_45">
      <g>
       <use xlink:href="#m108dbd7e40" x="316.981727" y="23.199844" style="stroke: #000000"/>
      </g>
     </g>
    </g>
    <g id="xtick_21">
     <g id="line2d_46">
      <g>
       <use xlink:href="#mb4f1e4f002" x="329.458797" y="295.179844" style="stroke: #000000"/>
      </g>
     </g>
     <g id="line2d_47">
      <g>
       <use xlink:href="#m108dbd7e40" x="329.458797" y="23.199844" style="stroke: #000000"/>
      </g>
     </g>
    </g>
    <g id="xtick_22">
     <g id="line2d_48">
      <g>
       <use xlink:href="#mb4f1e4f002" x="341.935866" y="295.179844" style="stroke: #000000"/>
      </g>
     </g>
     <g id="line2d_49">
      <g>
       <use xlink:href="#m108dbd7e40" x="341.935866" y="23.199844" style="stroke: #000000"/>
      </g>
     </g>
    </g>
    <g id="xtick_23">
     <g id="line2d_50">
      <g>
       <use xlink:href="#mb4f1e4f002" x="354.412936" y="295.179844" style="stroke: #000000"/>
      </g>
     </g>
     <g id="line2d_51">
      <g>
       <use xlink:href="#m108dbd7e40" x="354.412936" y="23.199844" style="stroke: #000000"/>
      </g>
     </g>
    </g>
    <g id="xtick_24">
     <g id="line2d_52">
      <g>
       <use xlink:href="#mb4f1e4f002" x="379.367075" y="295.179844" style="stroke: #000000"/>
      </g>
     </g>
     <g id="line2d_53">
      <g>
       <use xlink:href="#m108dbd7e40" x="379.367075" y="23.199844" style="stroke: #000000"/>
      </g>
     </g>
    </g>
    <g id="xtick_25">
     <g id="line2d_54">
      <g>
       <use xlink:href="#mb4f1e4f002" x="391.844145" y="295.179844" style="stroke: #000000"/>
      </g>
     </g>
     <g id="line2d_55">
      <g>
       <use xlink:href="#m108dbd7e40" x="391.844145" y="23.199844" style="stroke: #000000"/>
      </g>
     </g>
    </g>
    <g id="xtick_26">
     <g id="line2d_56">
      <g>
       <use xlink:href="#mb4f1e4f002" x="404.321214" y="295.179844" style="stroke: #000000"/>
      </g>
     </g>
     <g id="line2d_57">
      <g>
       <use xlink:href="#m108dbd7e40" x="404.321214" y="23.199844" style="stroke: #000000"/>
      </g>
     </g>
    </g>
    <g id="text_6">
     <!-- Impedância $(\text{m}/\text{s})\cdot(\text{g}/\text{cm}^{2})$ -->
     <g style="fill: #212121" transform="translate(131.073789 334.602344) scale(0.19 -0.19)">
      <defs>
       <path id="ArialMT-49" d="M 597 0 
L 597 4581 
L 1203 4581 
L 1203 0 
L 597 0 
z
" transform="scale(0.015625)"/>
       <path id="ArialMT-6d" d="M 422 0 
L 422 3319 
L 925 3319 
L 925 2853 
Q 1081 3097 1340 3245 
Q 1600 3394 1931 3394 
Q 2300 3394 2536 3241 
Q 2772 3088 2869 2813 
Q 3263 3394 3894 3394 
Q 4388 3394 4653 3120 
Q 4919 2847 4919 2278 
L 4919 0 
L 4359 0 
L 4359 2091 
Q 4359 2428 4304 2576 
Q 4250 2725 4106 2815 
Q 3963 2906 3769 2906 
Q 3419 2906 3187 2673 
Q 2956 2441 2956 1928 
L 2956 0 
L 2394 0 
L 2394 2156 
Q 2394 2531 2256 2718 
Q 2119 2906 1806 2906 
Q 1569 2906 1367 2781 
Q 1166 2656 1075 2415 
Q 984 2175 984 1722 
L 984 0 
L 422 0 
z
" transform="scale(0.015625)"/>
       <path id="ArialMT-70" d="M 422 -1272 
L 422 3319 
L 934 3319 
L 934 2888 
Q 1116 3141 1344 3267 
Q 1572 3394 1897 3394 
Q 2322 3394 2647 3175 
Q 2972 2956 3137 2557 
Q 3303 2159 3303 1684 
Q 3303 1175 3120 767 
Q 2938 359 2589 142 
Q 2241 -75 1856 -75 
Q 1575 -75 1351 44 
Q 1128 163 984 344 
L 984 -1272 
L 422 -1272 
z
M 931 1641 
Q 931 1000 1190 694 
Q 1450 388 1819 388 
Q 2194 388 2461 705 
Q 2728 1022 2728 1688 
Q 2728 2322 2467 2637 
Q 2206 2953 1844 2953 
Q 1484 2953 1207 2617 
Q 931 2281 931 1641 
z
" transform="scale(0.015625)"/>
       <path id="ArialMT-65" d="M 2694 1069 
L 3275 997 
Q 3138 488 2766 206 
Q 2394 -75 1816 -75 
Q 1088 -75 661 373 
Q 234 822 234 1631 
Q 234 2469 665 2931 
Q 1097 3394 1784 3394 
Q 2450 3394 2872 2941 
Q 3294 2488 3294 1666 
Q 3294 1616 3291 1516 
L 816 1516 
Q 847 969 1125 678 
Q 1403 388 1819 388 
Q 2128 388 2347 550 
Q 2566 713 2694 1069 
z
M 847 1978 
L 2700 1978 
Q 2663 2397 2488 2606 
Q 2219 2931 1791 2931 
Q 1403 2931 1139 2672 
Q 875 2413 847 1978 
z
" transform="scale(0.015625)"/>
       <path id="ArialMT-64" d="M 2575 0 
L 2575 419 
Q 2259 -75 1647 -75 
Q 1250 -75 917 144 
Q 584 363 401 755 
Q 219 1147 219 1656 
Q 219 2153 384 2558 
Q 550 2963 881 3178 
Q 1213 3394 1622 3394 
Q 1922 3394 2156 3267 
Q 2391 3141 2538 2938 
L 2538 4581 
L 3097 4581 
L 3097 0 
L 2575 0 
z
M 797 1656 
Q 797 1019 1065 703 
Q 1334 388 1700 388 
Q 2069 388 2326 689 
Q 2584 991 2584 1609 
Q 2584 2291 2321 2609 
Q 2059 2928 1675 2928 
Q 1300 2928 1048 2622 
Q 797 2316 797 1656 
z
" transform="scale(0.015625)"/>
       <path id="ArialMT-e2" d="M 2588 409 
Q 2275 144 1986 34 
Q 1697 -75 1366 -75 
Q 819 -75 525 192 
Q 231 459 231 875 
Q 231 1119 342 1320 
Q 453 1522 633 1644 
Q 813 1766 1038 1828 
Q 1203 1872 1538 1913 
Q 2219 1994 2541 2106 
Q 2544 2222 2544 2253 
Q 2544 2597 2384 2738 
Q 2169 2928 1744 2928 
Q 1347 2928 1158 2789 
Q 969 2650 878 2297 
L 328 2372 
Q 403 2725 575 2942 
Q 747 3159 1072 3276 
Q 1397 3394 1825 3394 
Q 2250 3394 2515 3294 
Q 2781 3194 2906 3042 
Q 3031 2891 3081 2659 
Q 3109 2516 3109 2141 
L 3109 1391 
Q 3109 606 3145 398 
Q 3181 191 3288 0 
L 2700 0 
Q 2613 175 2588 409 
z
M 2541 1666 
Q 2234 1541 1622 1453 
Q 1275 1403 1131 1340 
Q 988 1278 909 1158 
Q 831 1038 831 891 
Q 831 666 1001 516 
Q 1172 366 1500 366 
Q 1825 366 2078 508 
Q 2331 650 2450 897 
Q 2541 1088 2541 1459 
L 2541 1666 
z
M 1771 4263 
L 1418 3731 
L 774 3731 
L 1449 4606 
L 2049 4606 
L 2752 3731 
L 2115 3731 
L 1771 4263 
z
" transform="scale(0.015625)"/>
       <path id="ArialMT-6e" d="M 422 0 
L 422 3319 
L 928 3319 
L 928 2847 
Q 1294 3394 1984 3394 
Q 2284 3394 2536 3286 
Q 2788 3178 2913 3003 
Q 3038 2828 3088 2588 
Q 3119 2431 3119 2041 
L 3119 0 
L 2556 0 
L 2556 2019 
Q 2556 2363 2490 2533 
Q 2425 2703 2258 2804 
Q 2091 2906 1866 2906 
Q 1506 2906 1245 2678 
Q 984 2450 984 1813 
L 984 0 
L 422 0 
z
" transform="scale(0.015625)"/>
       <path id="ArialMT-63" d="M 2588 1216 
L 3141 1144 
Q 3050 572 2676 248 
Q 2303 -75 1759 -75 
Q 1078 -75 664 370 
Q 250 816 250 1647 
Q 250 2184 428 2587 
Q 606 2991 970 3192 
Q 1334 3394 1763 3394 
Q 2303 3394 2647 3120 
Q 2991 2847 3088 2344 
L 2541 2259 
Q 2463 2594 2264 2762 
Q 2066 2931 1784 2931 
Q 1359 2931 1093 2626 
Q 828 2322 828 1663 
Q 828 994 1084 691 
Q 1341 388 1753 388 
Q 2084 388 2306 591 
Q 2528 794 2588 1216 
z
" transform="scale(0.015625)"/>
       <path id="ArialMT-69" d="M 425 3934 
L 425 4581 
L 988 4581 
L 988 3934 
L 425 3934 
z
M 425 0 
L 425 3319 
L 988 3319 
L 988 0 
L 425 0 
z
" transform="scale(0.015625)"/>
       <path id="ArialMT-61" d="M 2588 409 
Q 2275 144 1986 34 
Q 1697 -75 1366 -75 
Q 819 -75 525 192 
Q 231 459 231 875 
Q 231 1119 342 1320 
Q 453 1522 633 1644 
Q 813 1766 1038 1828 
Q 1203 1872 1538 1913 
Q 2219 1994 2541 2106 
Q 2544 2222 2544 2253 
Q 2544 2597 2384 2738 
Q 2169 2928 1744 2928 
Q 1347 2928 1158 2789 
Q 969 2650 878 2297 
L 328 2372 
Q 403 2725 575 2942 
Q 747 3159 1072 3276 
Q 1397 3394 1825 3394 
Q 2250 3394 2515 3294 
Q 2781 3194 2906 3042 
Q 3031 2891 3081 2659 
Q 3109 2516 3109 2141 
L 3109 1391 
Q 3109 606 3145 398 
Q 3181 191 3288 0 
L 2700 0 
Q 2613 175 2588 409 
z
M 2541 1666 
Q 2234 1541 1622 1453 
Q 1275 1403 1131 1340 
Q 988 1278 909 1158 
Q 831 1038 831 891 
Q 831 666 1001 516 
Q 1172 366 1500 366 
Q 1825 366 2078 508 
Q 2331 650 2450 897 
Q 2541 1088 2541 1459 
L 2541 1666 
z
" transform="scale(0.015625)"/>
       <path id="ArialMT-20" transform="scale(0.015625)"/>
       <path id="DejaVuSans-28" d="M 1984 4856 
Q 1566 4138 1362 3434 
Q 1159 2731 1159 2009 
Q 1159 1288 1364 580 
Q 1569 -128 1984 -844 
L 1484 -844 
Q 1016 -109 783 600 
Q 550 1309 550 2009 
Q 550 2706 781 3412 
Q 1013 4119 1484 4856 
L 1984 4856 
z
" transform="scale(0.015625)"/>
       <path id="DejaVuSans-6d" d="M 3328 2828 
Q 3544 3216 3844 3400 
Q 4144 3584 4550 3584 
Q 5097 3584 5394 3201 
Q 5691 2819 5691 2113 
L 5691 0 
L 5113 0 
L 5113 2094 
Q 5113 2597 4934 2840 
Q 4756 3084 4391 3084 
Q 3944 3084 3684 2787 
Q 3425 2491 3425 1978 
L 3425 0 
L 2847 0 
L 2847 2094 
Q 2847 2600 2669 2842 
Q 2491 3084 2119 3084 
Q 1678 3084 1418 2786 
Q 1159 2488 1159 1978 
L 1159 0 
L 581 0 
L 581 3500 
L 1159 3500 
L 1159 2956 
Q 1356 3278 1631 3431 
Q 1906 3584 2284 3584 
Q 2666 3584 2933 3390 
Q 3200 3197 3328 2828 
z
" transform="scale(0.015625)"/>
       <path id="DejaVuSans-2f" d="M 1625 4666 
L 2156 4666 
L 531 -594 
L 0 -594 
L 1625 4666 
z
" transform="scale(0.015625)"/>
       <path id="DejaVuSans-73" d="M 2834 3397 
L 2834 2853 
Q 2591 2978 2328 3040 
Q 2066 3103 1784 3103 
Q 1356 3103 1142 2972 
Q 928 2841 928 2578 
Q 928 2378 1081 2264 
Q 1234 2150 1697 2047 
L 1894 2003 
Q 2506 1872 2764 1633 
Q 3022 1394 3022 966 
Q 3022 478 2636 193 
Q 2250 -91 1575 -91 
Q 1294 -91 989 -36 
Q 684 19 347 128 
L 347 722 
Q 666 556 975 473 
Q 1284 391 1588 391 
Q 1994 391 2212 530 
Q 2431 669 2431 922 
Q 2431 1156 2273 1281 
Q 2116 1406 1581 1522 
L 1381 1569 
Q 847 1681 609 1914 
Q 372 2147 372 2553 
Q 372 3047 722 3315 
Q 1072 3584 1716 3584 
Q 2034 3584 2315 3537 
Q 2597 3491 2834 3397 
z
" transform="scale(0.015625)"/>
       <path id="DejaVuSans-29" d="M 513 4856 
L 1013 4856 
Q 1481 4119 1714 3412 
Q 1947 2706 1947 2009 
Q 1947 1309 1714 600 
Q 1481 -109 1013 -844 
L 513 -844 
Q 928 -128 1133 580 
Q 1338 1288 1338 2009 
Q 1338 2731 1133 3434 
Q 928 4138 513 4856 
z
" transform="scale(0.015625)"/>
       <path id="DejaVuSans-22c5" d="M 684 2619 
L 1344 2619 
L 1344 1825 
L 684 1825 
L 684 2619 
z
" transform="scale(0.015625)"/>
       <path id="DejaVuSans-67" d="M 2906 1791 
Q 2906 2416 2648 2759 
Q 2391 3103 1925 3103 
Q 1463 3103 1205 2759 
Q 947 2416 947 1791 
Q 947 1169 1205 825 
Q 1463 481 1925 481 
Q 2391 481 2648 825 
Q 2906 1169 2906 1791 
z
M 3481 434 
Q 3481 -459 3084 -895 
Q 2688 -1331 1869 -1331 
Q 1566 -1331 1297 -1286 
Q 1028 -1241 775 -1147 
L 775 -588 
Q 1028 -725 1275 -790 
Q 1522 -856 1778 -856 
Q 2344 -856 2625 -561 
Q 2906 -266 2906 331 
L 2906 616 
Q 2728 306 2450 153 
Q 2172 0 1784 0 
Q 1141 0 747 490 
Q 353 981 353 1791 
Q 353 2603 747 3093 
Q 1141 3584 1784 3584 
Q 2172 3584 2450 3431 
Q 2728 3278 2906 2969 
L 2906 3500 
L 3481 3500 
L 3481 434 
z
" transform="scale(0.015625)"/>
       <path id="DejaVuSans-63" d="M 3122 3366 
L 3122 2828 
Q 2878 2963 2633 3030 
Q 2388 3097 2138 3097 
Q 1578 3097 1268 2742 
Q 959 2388 959 1747 
Q 959 1106 1268 751 
Q 1578 397 2138 397 
Q 2388 397 2633 464 
Q 2878 531 3122 666 
L 3122 134 
Q 2881 22 2623 -34 
Q 2366 -91 2075 -91 
Q 1284 -91 818 406 
Q 353 903 353 1747 
Q 353 2603 823 3093 
Q 1294 3584 2113 3584 
Q 2378 3584 2631 3529 
Q 2884 3475 3122 3366 
z
" transform="scale(0.015625)"/>
       <path id="DejaVuSans-32" d="M 1228 531 
L 3431 531 
L 3431 0 
L 469 0 
L 469 531 
Q 828 903 1448 1529 
Q 2069 2156 2228 2338 
Q 2531 2678 2651 2914 
Q 2772 3150 2772 3378 
Q 2772 3750 2511 3984 
Q 2250 4219 1831 4219 
Q 1534 4219 1204 4116 
Q 875 4013 500 3803 
L 500 4441 
Q 881 4594 1212 4672 
Q 1544 4750 1819 4750 
Q 2544 4750 2975 4387 
Q 3406 4025 3406 3419 
Q 3406 3131 3298 2873 
Q 3191 2616 2906 2266 
Q 2828 2175 2409 1742 
Q 1991 1309 1228 531 
z
" transform="scale(0.015625)"/>
      </defs>
      <use xlink:href="#ArialMT-49" transform="translate(0 0.765625)"/>
      <use xlink:href="#ArialMT-6d" transform="translate(27.783203 0.765625)"/>
      <use xlink:href="#ArialMT-70" transform="translate(111.083984 0.765625)"/>
      <use xlink:href="#ArialMT-65" transform="translate(166.699219 0.765625)"/>
      <use xlink:href="#ArialMT-64" transform="translate(222.314453 0.765625)"/>
      <use xlink:href="#ArialMT-e2" transform="translate(277.929688 0.765625)"/>
      <use xlink:href="#ArialMT-6e" transform="translate(333.544922 0.765625)"/>
      <use xlink:href="#ArialMT-63" transform="translate(389.160156 0.765625)"/>
      <use xlink:href="#ArialMT-69" transform="translate(439.160156 0.765625)"/>
      <use xlink:href="#ArialMT-61" transform="translate(461.376953 0.765625)"/>
      <use xlink:href="#ArialMT-20" transform="translate(516.992188 0.765625)"/>
      <use xlink:href="#DejaVuSans-28" transform="translate(544.775391 0.765625)"/>
      <use xlink:href="#DejaVuSans-6d" transform="translate(583.789062 0.765625)"/>
      <use xlink:href="#DejaVuSans-2f" transform="translate(681.201172 0.765625)"/>
      <use xlink:href="#DejaVuSans-73" transform="translate(714.892578 0.765625)"/>
      <use xlink:href="#DejaVuSans-29" transform="translate(766.992188 0.765625)"/>
      <use xlink:href="#DejaVuSans-22c5" transform="translate(825.488281 0.765625)"/>
      <use xlink:href="#DejaVuSans-28" transform="translate(876.757812 0.765625)"/>
      <use xlink:href="#DejaVuSans-67" transform="translate(915.771484 0.765625)"/>
      <use xlink:href="#DejaVuSans-2f" transform="translate(979.248047 0.765625)"/>
      <use xlink:href="#DejaVuSans-63" transform="translate(1012.939453 0.765625)"/>
      <use xlink:href="#DejaVuSans-6d" transform="translate(1067.919922 0.765625)"/>
      <use xlink:href="#DejaVuSans-32" transform="translate(1166.289062 39.046875) scale(0.7)"/>
      <use xlink:href="#DejaVuSans-29" transform="translate(1213.55957 0.765625)"/>
     </g>
    </g>
   </g>
   <g id="matplotlib.axis_2">
    <g id="ytick_1">
     <g id="line2d_58">
      <path d="M 86.61875 295.179844 
L 413.598828 295.179844 
" clip-path="url(#p10134016d3)" style="fill: none; stroke-dasharray: 1.85,0.8; stroke-dashoffset: 0; stroke: #000000; stroke-opacity: 0.5; stroke-width: 0.5"/>
     </g>
     <g id="line2d_59">
      <defs>
       <path id="ma10ce6bb9a" d="M 0 0 
L 6 0 
" style="stroke: #000000"/>
      </defs>
      <g>
       <use xlink:href="#ma10ce6bb9a" x="86.61875" y="295.179844" style="stroke: #000000"/>
      </g>
     </g>
     <g id="line2d_60">
      <defs>
       <path id="m749ac522da" d="M 0 0 
L -6 0 
" style="stroke: #000000"/>
      </defs>
      <g>
       <use xlink:href="#m749ac522da" x="413.598828" y="295.179844" style="stroke: #000000"/>
      </g>
     </g>
     <g id="text_7">
      <!-- $\mathdefault{0.00000}$ -->
      <g transform="translate(25.19875 300.906094) scale(0.16 -0.16)">
       <defs>
        <path id="ArialMT-2e" d="M 581 0 
L 581 641 
L 1222 641 
L 1222 0 
L 581 0 
z
" transform="scale(0.015625)"/>
       </defs>
       <use xlink:href="#ArialMT-30" transform="translate(0 0.125)"/>
       <use xlink:href="#ArialMT-2e" transform="translate(55.615234 0.125)"/>
       <use xlink:href="#ArialMT-30" transform="translate(83.398438 0.125)"/>
       <use xlink:href="#ArialMT-30" transform="translate(139.013672 0.125)"/>
       <use xlink:href="#ArialMT-30" transform="translate(194.628906 0.125)"/>
       <use xlink:href="#ArialMT-30" transform="translate(250.244141 0.125)"/>
       <use xlink:href="#ArialMT-30" transform="translate(305.859375 0.125)"/>
      </g>
     </g>
    </g>
    <g id="ytick_2">
     <g id="line2d_61">
      <path d="M 86.61875 251.536781 
L 413.598828 251.536781 
" clip-path="url(#p10134016d3)" style="fill: none; stroke-dasharray: 1.85,0.8; stroke-dashoffset: 0; stroke: #000000; stroke-opacity: 0.5; stroke-width: 0.5"/>
     </g>
     <g id="line2d_62">
      <g>
       <use xlink:href="#ma10ce6bb9a" x="86.61875" y="251.536781" style="stroke: #000000"/>
      </g>
     </g>
     <g id="line2d_63">
      <g>
       <use xlink:href="#m749ac522da" x="413.598828" y="251.536781" style="stroke: #000000"/>
      </g>
     </g>
     <g id="text_8">
      <!-- $\mathdefault{0.00005}$ -->
      <g transform="translate(25.19875 257.263031) scale(0.16 -0.16)">
       <use xlink:href="#ArialMT-30" transform="translate(0 0.125)"/>
       <use xlink:href="#ArialMT-2e" transform="translate(55.615234 0.125)"/>
       <use xlink:href="#ArialMT-30" transform="translate(83.398438 0.125)"/>
       <use xlink:href="#ArialMT-30" transform="translate(139.013672 0.125)"/>
       <use xlink:href="#ArialMT-30" transform="translate(194.628906 0.125)"/>
       <use xlink:href="#ArialMT-30" transform="translate(250.244141 0.125)"/>
       <use xlink:href="#ArialMT-35" transform="translate(305.859375 0.125)"/>
      </g>
     </g>
    </g>
    <g id="ytick_3">
     <g id="line2d_64">
      <path d="M 86.61875 207.893719 
L 413.598828 207.893719 
" clip-path="url(#p10134016d3)" style="fill: none; stroke-dasharray: 1.85,0.8; stroke-dashoffset: 0; stroke: #000000; stroke-opacity: 0.5; stroke-width: 0.5"/>
     </g>
     <g id="line2d_65">
      <g>
       <use xlink:href="#ma10ce6bb9a" x="86.61875" y="207.893719" style="stroke: #000000"/>
      </g>
     </g>
     <g id="line2d_66">
      <g>
       <use xlink:href="#m749ac522da" x="413.598828" y="207.893719" style="stroke: #000000"/>
      </g>
     </g>
     <g id="text_9">
      <!-- $\mathdefault{0.00010}$ -->
      <g transform="translate(25.19875 213.619969) scale(0.16 -0.16)">
       <use xlink:href="#ArialMT-30" transform="translate(0 0.125)"/>
       <use xlink:href="#ArialMT-2e" transform="translate(55.615234 0.125)"/>
       <use xlink:href="#ArialMT-30" transform="translate(83.398438 0.125)"/>
       <use xlink:href="#ArialMT-30" transform="translate(139.013672 0.125)"/>
       <use xlink:href="#ArialMT-30" transform="translate(194.628906 0.125)"/>
       <use xlink:href="#ArialMT-31" transform="translate(250.244141 0.125)"/>
       <use xlink:href="#ArialMT-30" transform="translate(305.859375 0.125)"/>
      </g>
     </g>
    </g>
    <g id="ytick_4">
     <g id="line2d_67">
      <path d="M 86.61875 164.250656 
L 413.598828 164.250656 
" clip-path="url(#p10134016d3)" style="fill: none; stroke-dasharray: 1.85,0.8; stroke-dashoffset: 0; stroke: #000000; stroke-opacity: 0.5; stroke-width: 0.5"/>
     </g>
     <g id="line2d_68">
      <g>
       <use xlink:href="#ma10ce6bb9a" x="86.61875" y="164.250656" style="stroke: #000000"/>
      </g>
     </g>
     <g id="line2d_69">
      <g>
       <use xlink:href="#m749ac522da" x="413.598828" y="164.250656" style="stroke: #000000"/>
      </g>
     </g>
     <g id="text_10">
      <!-- $\mathdefault{0.00015}$ -->
      <g transform="translate(25.19875 169.976906) scale(0.16 -0.16)">
       <use xlink:href="#ArialMT-30" transform="translate(0 0.125)"/>
       <use xlink:href="#ArialMT-2e" transform="translate(55.615234 0.125)"/>
       <use xlink:href="#ArialMT-30" transform="translate(83.398438 0.125)"/>
       <use xlink:href="#ArialMT-30" transform="translate(139.013672 0.125)"/>
       <use xlink:href="#ArialMT-30" transform="translate(194.628906 0.125)"/>
       <use xlink:href="#ArialMT-31" transform="translate(250.244141 0.125)"/>
       <use xlink:href="#ArialMT-35" transform="translate(305.859375 0.125)"/>
      </g>
     </g>
    </g>
    <g id="ytick_5">
     <g id="line2d_70">
      <path d="M 86.61875 120.607593 
L 413.598828 120.607593 
" clip-path="url(#p10134016d3)" style="fill: none; stroke-dasharray: 1.85,0.8; stroke-dashoffset: 0; stroke: #000000; stroke-opacity: 0.5; stroke-width: 0.5"/>
     </g>
     <g id="line2d_71">
      <g>
       <use xlink:href="#ma10ce6bb9a" x="86.61875" y="120.607593" style="stroke: #000000"/>
      </g>
     </g>
     <g id="line2d_72">
      <g>
       <use xlink:href="#m749ac522da" x="413.598828" y="120.607593" style="stroke: #000000"/>
      </g>
     </g>
     <g id="text_11">
      <!-- $\mathdefault{0.00020}$ -->
      <g transform="translate(25.19875 126.333843) scale(0.16 -0.16)">
       <defs>
        <path id="ArialMT-32" d="M 3222 541 
L 3222 0 
L 194 0 
Q 188 203 259 391 
Q 375 700 629 1000 
Q 884 1300 1366 1694 
Q 2113 2306 2375 2664 
Q 2638 3022 2638 3341 
Q 2638 3675 2398 3904 
Q 2159 4134 1775 4134 
Q 1369 4134 1125 3890 
Q 881 3647 878 3216 
L 300 3275 
Q 359 3922 746 4261 
Q 1134 4600 1788 4600 
Q 2447 4600 2831 4234 
Q 3216 3869 3216 3328 
Q 3216 3053 3103 2787 
Q 2991 2522 2730 2228 
Q 2469 1934 1863 1422 
Q 1356 997 1212 845 
Q 1069 694 975 541 
L 3222 541 
z
" transform="scale(0.015625)"/>
       </defs>
       <use xlink:href="#ArialMT-30" transform="translate(0 0.125)"/>
       <use xlink:href="#ArialMT-2e" transform="translate(55.615234 0.125)"/>
       <use xlink:href="#ArialMT-30" transform="translate(83.398438 0.125)"/>
       <use xlink:href="#ArialMT-30" transform="translate(139.013672 0.125)"/>
       <use xlink:href="#ArialMT-30" transform="translate(194.628906 0.125)"/>
       <use xlink:href="#ArialMT-32" transform="translate(250.244141 0.125)"/>
       <use xlink:href="#ArialMT-30" transform="translate(305.859375 0.125)"/>
      </g>
     </g>
    </g>
    <g id="ytick_6">
     <g id="line2d_73">
      <path d="M 86.61875 76.964531 
L 413.598828 76.964531 
" clip-path="url(#p10134016d3)" style="fill: none; stroke-dasharray: 1.85,0.8; stroke-dashoffset: 0; stroke: #000000; stroke-opacity: 0.5; stroke-width: 0.5"/>
     </g>
     <g id="line2d_74">
      <g>
       <use xlink:href="#ma10ce6bb9a" x="86.61875" y="76.964531" style="stroke: #000000"/>
      </g>
     </g>
     <g id="line2d_75">
      <g>
       <use xlink:href="#m749ac522da" x="413.598828" y="76.964531" style="stroke: #000000"/>
      </g>
     </g>
     <g id="text_12">
      <!-- $\mathdefault{0.00025}$ -->
      <g transform="translate(25.19875 82.690781) scale(0.16 -0.16)">
       <use xlink:href="#ArialMT-30" transform="translate(0 0.125)"/>
       <use xlink:href="#ArialMT-2e" transform="translate(55.615234 0.125)"/>
       <use xlink:href="#ArialMT-30" transform="translate(83.398438 0.125)"/>
       <use xlink:href="#ArialMT-30" transform="translate(139.013672 0.125)"/>
       <use xlink:href="#ArialMT-30" transform="translate(194.628906 0.125)"/>
       <use xlink:href="#ArialMT-32" transform="translate(250.244141 0.125)"/>
       <use xlink:href="#ArialMT-35" transform="translate(305.859375 0.125)"/>
      </g>
     </g>
    </g>
    <g id="ytick_7">
     <g id="line2d_76">
      <path d="M 86.61875 33.321468 
L 413.598828 33.321468 
" clip-path="url(#p10134016d3)" style="fill: none; stroke-dasharray: 1.85,0.8; stroke-dashoffset: 0; stroke: #000000; stroke-opacity: 0.5; stroke-width: 0.5"/>
     </g>
     <g id="line2d_77">
      <g>
       <use xlink:href="#ma10ce6bb9a" x="86.61875" y="33.321468" style="stroke: #000000"/>
      </g>
     </g>
     <g id="line2d_78">
      <g>
       <use xlink:href="#m749ac522da" x="413.598828" y="33.321468" style="stroke: #000000"/>
      </g>
     </g>
     <g id="text_13">
      <!-- $\mathdefault{0.00030}$ -->
      <g transform="translate(25.19875 39.047718) scale(0.16 -0.16)">
       <defs>
        <path id="ArialMT-33" d="M 269 1209 
L 831 1284 
Q 928 806 1161 595 
Q 1394 384 1728 384 
Q 2125 384 2398 659 
Q 2672 934 2672 1341 
Q 2672 1728 2419 1979 
Q 2166 2231 1775 2231 
Q 1616 2231 1378 2169 
L 1441 2663 
Q 1497 2656 1531 2656 
Q 1891 2656 2178 2843 
Q 2466 3031 2466 3422 
Q 2466 3731 2256 3934 
Q 2047 4138 1716 4138 
Q 1388 4138 1169 3931 
Q 950 3725 888 3313 
L 325 3413 
Q 428 3978 793 4289 
Q 1159 4600 1703 4600 
Q 2078 4600 2393 4439 
Q 2709 4278 2876 4000 
Q 3044 3722 3044 3409 
Q 3044 3113 2884 2869 
Q 2725 2625 2413 2481 
Q 2819 2388 3044 2092 
Q 3269 1797 3269 1353 
Q 3269 753 2831 336 
Q 2394 -81 1725 -81 
Q 1122 -81 723 278 
Q 325 638 269 1209 
z
" transform="scale(0.015625)"/>
       </defs>
       <use xlink:href="#ArialMT-30" transform="translate(0 0.125)"/>
       <use xlink:href="#ArialMT-2e" transform="translate(55.615234 0.125)"/>
       <use xlink:href="#ArialMT-30" transform="translate(83.398438 0.125)"/>
       <use xlink:href="#ArialMT-30" transform="translate(139.013672 0.125)"/>
       <use xlink:href="#ArialMT-30" transform="translate(194.628906 0.125)"/>
       <use xlink:href="#ArialMT-33" transform="translate(250.244141 0.125)"/>
       <use xlink:href="#ArialMT-30" transform="translate(305.859375 0.125)"/>
      </g>
     </g>
    </g>
    <g id="ytick_8">
     <g id="line2d_79">
      <defs>
       <path id="ma540095ffa" d="M 0 0 
L 3 0 
" style="stroke: #000000"/>
      </defs>
      <g>
       <use xlink:href="#ma540095ffa" x="86.61875" y="286.451231" style="stroke: #000000"/>
      </g>
     </g>
     <g id="line2d_80">
      <defs>
       <path id="m9497625f96" d="M 0 0 
L -3 0 
" style="stroke: #000000"/>
      </defs>
      <g>
       <use xlink:href="#m9497625f96" x="413.598828" y="286.451231" style="stroke: #000000"/>
      </g>
     </g>
    </g>
    <g id="ytick_9">
     <g id="line2d_81">
      <g>
       <use xlink:href="#ma540095ffa" x="86.61875" y="277.722619" style="stroke: #000000"/>
      </g>
     </g>
     <g id="line2d_82">
      <g>
       <use xlink:href="#m9497625f96" x="413.598828" y="277.722619" style="stroke: #000000"/>
      </g>
     </g>
    </g>
    <g id="ytick_10">
     <g id="line2d_83">
      <g>
       <use xlink:href="#ma540095ffa" x="86.61875" y="268.994006" style="stroke: #000000"/>
      </g>
     </g>
     <g id="line2d_84">
      <g>
       <use xlink:href="#m9497625f96" x="413.598828" y="268.994006" style="stroke: #000000"/>
      </g>
     </g>
    </g>
    <g id="ytick_11">
     <g id="line2d_85">
      <g>
       <use xlink:href="#ma540095ffa" x="86.61875" y="260.265394" style="stroke: #000000"/>
      </g>
     </g>
     <g id="line2d_86">
      <g>
       <use xlink:href="#m9497625f96" x="413.598828" y="260.265394" style="stroke: #000000"/>
      </g>
     </g>
    </g>
    <g id="ytick_12">
     <g id="line2d_87">
      <g>
       <use xlink:href="#ma540095ffa" x="86.61875" y="242.808169" style="stroke: #000000"/>
      </g>
     </g>
     <g id="line2d_88">
      <g>
       <use xlink:href="#m9497625f96" x="413.598828" y="242.808169" style="stroke: #000000"/>
      </g>
     </g>
    </g>
    <g id="ytick_13">
     <g id="line2d_89">
      <g>
       <use xlink:href="#ma540095ffa" x="86.61875" y="234.079556" style="stroke: #000000"/>
      </g>
     </g>
     <g id="line2d_90">
      <g>
       <use xlink:href="#m9497625f96" x="413.598828" y="234.079556" style="stroke: #000000"/>
      </g>
     </g>
    </g>
    <g id="ytick_14">
     <g id="line2d_91">
      <g>
       <use xlink:href="#ma540095ffa" x="86.61875" y="225.350944" style="stroke: #000000"/>
      </g>
     </g>
     <g id="line2d_92">
      <g>
       <use xlink:href="#m9497625f96" x="413.598828" y="225.350944" style="stroke: #000000"/>
      </g>
     </g>
    </g>
    <g id="ytick_15">
     <g id="line2d_93">
      <g>
       <use xlink:href="#ma540095ffa" x="86.61875" y="216.622331" style="stroke: #000000"/>
      </g>
     </g>
     <g id="line2d_94">
      <g>
       <use xlink:href="#m9497625f96" x="413.598828" y="216.622331" style="stroke: #000000"/>
      </g>
     </g>
    </g>
    <g id="ytick_16">
     <g id="line2d_95">
      <g>
       <use xlink:href="#ma540095ffa" x="86.61875" y="199.165106" style="stroke: #000000"/>
      </g>
     </g>
     <g id="line2d_96">
      <g>
       <use xlink:href="#m9497625f96" x="413.598828" y="199.165106" style="stroke: #000000"/>
      </g>
     </g>
    </g>
    <g id="ytick_17">
     <g id="line2d_97">
      <g>
       <use xlink:href="#ma540095ffa" x="86.61875" y="190.436494" style="stroke: #000000"/>
      </g>
     </g>
     <g id="line2d_98">
      <g>
       <use xlink:href="#m9497625f96" x="413.598828" y="190.436494" style="stroke: #000000"/>
      </g>
     </g>
    </g>
    <g id="ytick_18">
     <g id="line2d_99">
      <g>
       <use xlink:href="#ma540095ffa" x="86.61875" y="181.707881" style="stroke: #000000"/>
      </g>
     </g>
     <g id="line2d_100">
      <g>
       <use xlink:href="#m9497625f96" x="413.598828" y="181.707881" style="stroke: #000000"/>
      </g>
     </g>
    </g>
    <g id="ytick_19">
     <g id="line2d_101">
      <g>
       <use xlink:href="#ma540095ffa" x="86.61875" y="172.979269" style="stroke: #000000"/>
      </g>
     </g>
     <g id="line2d_102">
      <g>
       <use xlink:href="#m9497625f96" x="413.598828" y="172.979269" style="stroke: #000000"/>
      </g>
     </g>
    </g>
    <g id="ytick_20">
     <g id="line2d_103">
      <g>
       <use xlink:href="#ma540095ffa" x="86.61875" y="155.522043" style="stroke: #000000"/>
      </g>
     </g>
     <g id="line2d_104">
      <g>
       <use xlink:href="#m9497625f96" x="413.598828" y="155.522043" style="stroke: #000000"/>
      </g>
     </g>
    </g>
    <g id="ytick_21">
     <g id="line2d_105">
      <g>
       <use xlink:href="#ma540095ffa" x="86.61875" y="146.793431" style="stroke: #000000"/>
      </g>
     </g>
     <g id="line2d_106">
      <g>
       <use xlink:href="#m9497625f96" x="413.598828" y="146.793431" style="stroke: #000000"/>
      </g>
     </g>
    </g>
    <g id="ytick_22">
     <g id="line2d_107">
      <g>
       <use xlink:href="#ma540095ffa" x="86.61875" y="138.064818" style="stroke: #000000"/>
      </g>
     </g>
     <g id="line2d_108">
      <g>
       <use xlink:href="#m9497625f96" x="413.598828" y="138.064818" style="stroke: #000000"/>
      </g>
     </g>
    </g>
    <g id="ytick_23">
     <g id="line2d_109">
      <g>
       <use xlink:href="#ma540095ffa" x="86.61875" y="129.336206" style="stroke: #000000"/>
      </g>
     </g>
     <g id="line2d_110">
      <g>
       <use xlink:href="#m9497625f96" x="413.598828" y="129.336206" style="stroke: #000000"/>
      </g>
     </g>
    </g>
    <g id="ytick_24">
     <g id="line2d_111">
      <g>
       <use xlink:href="#ma540095ffa" x="86.61875" y="111.878981" style="stroke: #000000"/>
      </g>
     </g>
     <g id="line2d_112">
      <g>
       <use xlink:href="#m9497625f96" x="413.598828" y="111.878981" style="stroke: #000000"/>
      </g>
     </g>
    </g>
    <g id="ytick_25">
     <g id="line2d_113">
      <g>
       <use xlink:href="#ma540095ffa" x="86.61875" y="103.150368" style="stroke: #000000"/>
      </g>
     </g>
     <g id="line2d_114">
      <g>
       <use xlink:href="#m9497625f96" x="413.598828" y="103.150368" style="stroke: #000000"/>
      </g>
     </g>
    </g>
    <g id="ytick_26">
     <g id="line2d_115">
      <g>
       <use xlink:href="#ma540095ffa" x="86.61875" y="94.421756" style="stroke: #000000"/>
      </g>
     </g>
     <g id="line2d_116">
      <g>
       <use xlink:href="#m9497625f96" x="413.598828" y="94.421756" style="stroke: #000000"/>
      </g>
     </g>
    </g>
    <g id="ytick_27">
     <g id="line2d_117">
      <g>
       <use xlink:href="#ma540095ffa" x="86.61875" y="85.693143" style="stroke: #000000"/>
      </g>
     </g>
     <g id="line2d_118">
      <g>
       <use xlink:href="#m9497625f96" x="413.598828" y="85.693143" style="stroke: #000000"/>
      </g>
     </g>
    </g>
    <g id="ytick_28">
     <g id="line2d_119">
      <g>
       <use xlink:href="#ma540095ffa" x="86.61875" y="68.235918" style="stroke: #000000"/>
      </g>
     </g>
     <g id="line2d_120">
      <g>
       <use xlink:href="#m9497625f96" x="413.598828" y="68.235918" style="stroke: #000000"/>
      </g>
     </g>
    </g>
    <g id="ytick_29">
     <g id="line2d_121">
      <g>
       <use xlink:href="#ma540095ffa" x="86.61875" y="59.507306" style="stroke: #000000"/>
      </g>
     </g>
     <g id="line2d_122">
      <g>
       <use xlink:href="#m9497625f96" x="413.598828" y="59.507306" style="stroke: #000000"/>
      </g>
     </g>
    </g>
    <g id="ytick_30">
     <g id="line2d_123">
      <g>
       <use xlink:href="#ma540095ffa" x="86.61875" y="50.778693" style="stroke: #000000"/>
      </g>
     </g>
     <g id="line2d_124">
      <g>
       <use xlink:href="#m9497625f96" x="413.598828" y="50.778693" style="stroke: #000000"/>
      </g>
     </g>
    </g>
    <g id="ytick_31">
     <g id="line2d_125">
      <g>
       <use xlink:href="#ma540095ffa" x="86.61875" y="42.050081" style="stroke: #000000"/>
      </g>
     </g>
     <g id="line2d_126">
      <g>
       <use xlink:href="#m9497625f96" x="413.598828" y="42.050081" style="stroke: #000000"/>
      </g>
     </g>
    </g>
    <g id="ytick_32">
     <g id="line2d_127">
      <g>
       <use xlink:href="#ma540095ffa" x="86.61875" y="24.592856" style="stroke: #000000"/>
      </g>
     </g>
     <g id="line2d_128">
      <g>
       <use xlink:href="#m9497625f96" x="413.598828" y="24.592856" style="stroke: #000000"/>
      </g>
     </g>
    </g>
    <g id="text_14">
     <!-- Density -->
     <g style="fill: #212121" transform="translate(17.199844 190.866406) rotate(-90) scale(0.19 -0.19)">
      <defs>
       <path id="ArialMT-44" d="M 494 0 
L 494 4581 
L 2072 4581 
Q 2606 4581 2888 4516 
Q 3281 4425 3559 4188 
Q 3922 3881 4101 3404 
Q 4281 2928 4281 2316 
Q 4281 1794 4159 1391 
Q 4038 988 3847 723 
Q 3656 459 3429 307 
Q 3203 156 2883 78 
Q 2563 0 2147 0 
L 494 0 
z
M 1100 541 
L 2078 541 
Q 2531 541 2789 625 
Q 3047 709 3200 863 
Q 3416 1078 3536 1442 
Q 3656 1806 3656 2325 
Q 3656 3044 3420 3430 
Q 3184 3816 2847 3947 
Q 2603 4041 2063 4041 
L 1100 4041 
L 1100 541 
z
" transform="scale(0.015625)"/>
       <path id="ArialMT-73" d="M 197 991 
L 753 1078 
Q 800 744 1014 566 
Q 1228 388 1613 388 
Q 2000 388 2187 545 
Q 2375 703 2375 916 
Q 2375 1106 2209 1216 
Q 2094 1291 1634 1406 
Q 1016 1563 777 1677 
Q 538 1791 414 1992 
Q 291 2194 291 2438 
Q 291 2659 392 2848 
Q 494 3038 669 3163 
Q 800 3259 1026 3326 
Q 1253 3394 1513 3394 
Q 1903 3394 2198 3281 
Q 2494 3169 2634 2976 
Q 2775 2784 2828 2463 
L 2278 2388 
Q 2241 2644 2061 2787 
Q 1881 2931 1553 2931 
Q 1166 2931 1000 2803 
Q 834 2675 834 2503 
Q 834 2394 903 2306 
Q 972 2216 1119 2156 
Q 1203 2125 1616 2013 
Q 2213 1853 2448 1751 
Q 2684 1650 2818 1456 
Q 2953 1263 2953 975 
Q 2953 694 2789 445 
Q 2625 197 2315 61 
Q 2006 -75 1616 -75 
Q 969 -75 630 194 
Q 291 463 197 991 
z
" transform="scale(0.015625)"/>
       <path id="ArialMT-74" d="M 1650 503 
L 1731 6 
Q 1494 -44 1306 -44 
Q 1000 -44 831 53 
Q 663 150 594 308 
Q 525 466 525 972 
L 525 2881 
L 113 2881 
L 113 3319 
L 525 3319 
L 525 4141 
L 1084 4478 
L 1084 3319 
L 1650 3319 
L 1650 2881 
L 1084 2881 
L 1084 941 
Q 1084 700 1114 631 
Q 1144 563 1211 522 
Q 1278 481 1403 481 
Q 1497 481 1650 503 
z
" transform="scale(0.015625)"/>
       <path id="ArialMT-79" d="M 397 -1278 
L 334 -750 
Q 519 -800 656 -800 
Q 844 -800 956 -737 
Q 1069 -675 1141 -563 
Q 1194 -478 1313 -144 
Q 1328 -97 1363 -6 
L 103 3319 
L 709 3319 
L 1400 1397 
Q 1534 1031 1641 628 
Q 1738 1016 1872 1384 
L 2581 3319 
L 3144 3319 
L 1881 -56 
Q 1678 -603 1566 -809 
Q 1416 -1088 1222 -1217 
Q 1028 -1347 759 -1347 
Q 597 -1347 397 -1278 
z
" transform="scale(0.015625)"/>
      </defs>
      <use xlink:href="#ArialMT-44"/>
      <use xlink:href="#ArialMT-65" x="72.216797"/>
      <use xlink:href="#ArialMT-6e" x="127.832031"/>
      <use xlink:href="#ArialMT-73" x="183.447266"/>
      <use xlink:href="#ArialMT-69" x="233.447266"/>
      <use xlink:href="#ArialMT-74" x="255.664062"/>
      <use xlink:href="#ArialMT-79" x="283.447266"/>
     </g>
    </g>
   </g>
   <g id="patch_3">
    <path d="M 108.160074 295.179844 
L 117.563235 295.179844 
L 117.563235 295.178049 
L 108.160074 295.178049 
z
" clip-path="url(#p10134016d3)" style="fill: #0072b2; stroke: #000000; stroke-width: 0.5; stroke-linejoin: miter"/>
   </g>
   <g id="patch_4">
    <path d="M 117.563235 295.179844 
L 126.966397 295.179844 
L 126.966397 295.173907 
L 117.563235 295.173907 
z
" clip-path="url(#p10134016d3)" style="fill: #0072b2; stroke: #000000; stroke-width: 0.5; stroke-linejoin: miter"/>
   </g>
   <g id="patch_5">
    <path d="M 126.966397 295.179844 
L 136.369558 295.179844 
L 136.369558 295.168384 
L 126.966397 295.168384 
z
" clip-path="url(#p10134016d3)" style="fill: #0072b2; stroke: #000000; stroke-width: 0.5; stroke-linejoin: miter"/>
   </g>
   <g id="patch_6">
    <path d="M 136.369558 295.179844 
L 145.77272 295.179844 
L 145.77272 295.160031 
L 136.369558 295.160031 
z
" clip-path="url(#p10134016d3)" style="fill: #0072b2; stroke: #000000; stroke-width: 0.5; stroke-linejoin: miter"/>
   </g>
   <g id="patch_7">
    <path d="M 145.77272 295.179844 
L 155.175882 295.179844 
L 155.175882 295.127378 
L 145.77272 295.127378 
z
" clip-path="url(#p10134016d3)" style="fill: #0072b2; stroke: #000000; stroke-width: 0.5; stroke-linejoin: miter"/>
   </g>
   <g id="patch_8">
    <path d="M 155.175882 295.179844 
L 164.579043 295.179844 
L 164.579043 294.946646 
L 155.175882 294.946646 
z
" clip-path="url(#p10134016d3)" style="fill: #0072b2; stroke: #000000; stroke-width: 0.5; stroke-linejoin: miter"/>
   </g>
   <g id="patch_9">
    <path d="M 164.579043 295.179844 
L 173.982205 295.179844 
L 173.982205 293.886282 
L 164.579043 293.886282 
z
" clip-path="url(#p10134016d3)" style="fill: #0072b2; stroke: #000000; stroke-width: 0.5; stroke-linejoin: miter"/>
   </g>
   <g id="patch_10">
    <path d="M 173.982205 295.179844 
L 183.385366 295.179844 
L 183.385366 291.606705 
L 173.982205 291.606705 
z
" clip-path="url(#p10134016d3)" style="fill: #0072b2; stroke: #000000; stroke-width: 0.5; stroke-linejoin: miter"/>
   </g>
   <g id="patch_11">
    <path d="M 183.385366 295.179844 
L 192.788528 295.179844 
L 192.788528 285.88902 
L 183.385366 285.88902 
z
" clip-path="url(#p10134016d3)" style="fill: #0072b2; stroke: #000000; stroke-width: 0.5; stroke-linejoin: miter"/>
   </g>
   <g id="patch_12">
    <path d="M 192.788528 295.179844 
L 202.191689 295.179844 
L 202.191689 271.307073 
L 192.788528 271.307073 
z
" clip-path="url(#p10134016d3)" style="fill: #0072b2; stroke: #000000; stroke-width: 0.5; stroke-linejoin: miter"/>
   </g>
   <g id="patch_13">
    <path d="M 202.191689 295.179844 
L 211.594851 295.179844 
L 211.594851 239.992835 
L 202.191689 239.992835 
z
" clip-path="url(#p10134016d3)" style="fill: #0072b2; stroke: #000000; stroke-width: 0.5; stroke-linejoin: miter"/>
   </g>
   <g id="patch_14">
    <path d="M 211.594851 295.179844 
L 220.998013 295.179844 
L 220.998013 183.783845 
L 211.594851 183.783845 
z
" clip-path="url(#p10134016d3)" style="fill: #0072b2; stroke: #000000; stroke-width: 0.5; stroke-linejoin: miter"/>
   </g>
   <g id="patch_15">
    <path d="M 220.998013 295.179844 
L 230.401174 295.179844 
L 230.401174 104.013705 
L 220.998013 104.013705 
z
" clip-path="url(#p10134016d3)" style="fill: #0072b2; stroke: #000000; stroke-width: 0.5; stroke-linejoin: miter"/>
   </g>
   <g id="patch_16">
    <path d="M 230.401174 295.179844 
L 239.804336 295.179844 
L 239.804336 44.253529 
L 230.401174 44.253529 
z
" clip-path="url(#p10134016d3)" style="fill: #0072b2; stroke: #000000; stroke-width: 0.5; stroke-linejoin: miter"/>
   </g>
   <g id="patch_17">
    <path d="M 239.804336 295.179844 
L 249.207497 295.179844 
L 249.207497 71.288271 
L 239.804336 71.288271 
z
" clip-path="url(#p10134016d3)" style="fill: #0072b2; stroke: #000000; stroke-width: 0.5; stroke-linejoin: miter"/>
   </g>
   <g id="patch_18">
    <path d="M 249.207497 295.179844 
L 258.610659 295.179844 
L 258.610659 149.144232 
L 249.207497 149.144232 
z
" clip-path="url(#p10134016d3)" style="fill: #0072b2; stroke: #000000; stroke-width: 0.5; stroke-linejoin: miter"/>
   </g>
   <g id="patch_19">
    <path d="M 258.610659 295.179844 
L 268.013821 295.179844 
L 268.013821 215.604863 
L 258.610659 215.604863 
z
" clip-path="url(#p10134016d3)" style="fill: #0072b2; stroke: #000000; stroke-width: 0.5; stroke-linejoin: miter"/>
   </g>
   <g id="patch_20">
    <path d="M 268.013821 295.179844 
L 277.416982 295.179844 
L 277.416982 257.623675 
L 268.013821 257.623675 
z
" clip-path="url(#p10134016d3)" style="fill: #0072b2; stroke: #000000; stroke-width: 0.5; stroke-linejoin: miter"/>
   </g>
   <g id="patch_21">
    <path d="M 277.416982 295.179844 
L 286.820144 295.179844 
L 286.820144 279.860198 
L 277.416982 279.860198 
z
" clip-path="url(#p10134016d3)" style="fill: #0072b2; stroke: #000000; stroke-width: 0.5; stroke-linejoin: miter"/>
   </g>
   <g id="patch_22">
    <path d="M 286.820144 295.179844 
L 296.223305 295.179844 
L 296.223305 289.462642 
L 286.820144 289.462642 
z
" clip-path="url(#p10134016d3)" style="fill: #0072b2; stroke: #000000; stroke-width: 0.5; stroke-linejoin: miter"/>
   </g>
   <g id="patch_23">
    <path d="M 296.223305 295.179844 
L 305.626467 295.179844 
L 305.626467 293.218445 
L 296.223305 293.218445 
z
" clip-path="url(#p10134016d3)" style="fill: #0072b2; stroke: #000000; stroke-width: 0.5; stroke-linejoin: miter"/>
   </g>
   <g id="patch_24">
    <path d="M 305.626467 295.179844 
L 315.029628 295.179844 
L 315.029628 294.46679 
L 305.626467 294.46679 
z
" clip-path="url(#p10134016d3)" style="fill: #0072b2; stroke: #000000; stroke-width: 0.5; stroke-linejoin: miter"/>
   </g>
   <g id="patch_25">
    <path d="M 315.029628 295.179844 
L 324.43279 295.179844 
L 324.43279 294.906468 
L 315.029628 294.906468 
z
" clip-path="url(#p10134016d3)" style="fill: #0072b2; stroke: #000000; stroke-width: 0.5; stroke-linejoin: miter"/>
   </g>
   <g id="patch_26">
    <path d="M 324.43279 295.179844 
L 333.835952 295.179844 
L 333.835952 295.092723 
L 324.43279 295.092723 
z
" clip-path="url(#p10134016d3)" style="fill: #0072b2; stroke: #000000; stroke-width: 0.5; stroke-linejoin: miter"/>
   </g>
   <g id="patch_27">
    <path d="M 333.835952 295.179844 
L 343.239113 295.179844 
L 343.239113 295.161343 
L 333.835952 295.161343 
z
" clip-path="url(#p10134016d3)" style="fill: #0072b2; stroke: #000000; stroke-width: 0.5; stroke-linejoin: miter"/>
   </g>
   <g id="patch_28">
    <path d="M 343.239113 295.179844 
L 352.642275 295.179844 
L 352.642275 295.170386 
L 343.239113 295.170386 
z
" clip-path="url(#p10134016d3)" style="fill: #0072b2; stroke: #000000; stroke-width: 0.5; stroke-linejoin: miter"/>
   </g>
   <g id="patch_29">
    <path d="M 352.642275 295.179844 
L 362.045436 295.179844 
L 362.045436 295.175149 
L 352.642275 295.175149 
z
" clip-path="url(#p10134016d3)" style="fill: #0072b2; stroke: #000000; stroke-width: 0.5; stroke-linejoin: miter"/>
   </g>
   <g id="patch_30">
    <path d="M 362.045436 295.179844 
L 371.448598 295.179844 
L 371.448598 295.175909 
L 362.045436 295.175909 
z
" clip-path="url(#p10134016d3)" style="fill: #0072b2; stroke: #000000; stroke-width: 0.5; stroke-linejoin: miter"/>
   </g>
   <g id="patch_31">
    <path d="M 371.448598 295.179844 
L 380.851759 295.179844 
L 380.851759 295.177497 
L 371.448598 295.177497 
z
" clip-path="url(#p10134016d3)" style="fill: #0072b2; stroke: #000000; stroke-width: 0.5; stroke-linejoin: miter"/>
   </g>
   <g id="patch_32">
    <path d="M 380.851759 295.179844 
L 390.254921 295.179844 
L 390.254921 295.178394 
L 380.851759 295.178394 
z
" clip-path="url(#p10134016d3)" style="fill: #0072b2; stroke: #000000; stroke-width: 0.5; stroke-linejoin: miter"/>
   </g>
   <g id="patch_33">
    <path d="M 101.481481 295.179844 
L 111.189448 295.179844 
L 111.189448 295.176367 
L 101.481481 295.176367 
z
" clip-path="url(#p10134016d3)" style="fill: #a60628; stroke: #000000; stroke-width: 0.5; stroke-linejoin: miter"/>
   </g>
   <g id="patch_34">
    <path d="M 111.189448 295.179844 
L 120.897416 295.179844 
L 120.897416 295.172422 
L 111.189448 295.172422 
z
" clip-path="url(#p10134016d3)" style="fill: #a60628; stroke: #000000; stroke-width: 0.5; stroke-linejoin: miter"/>
   </g>
   <g id="patch_35">
    <path d="M 120.897416 295.179844 
L 130.605383 295.179844 
L 130.605383 295.166738 
L 120.897416 295.166738 
z
" clip-path="url(#p10134016d3)" style="fill: #a60628; stroke: #000000; stroke-width: 0.5; stroke-linejoin: miter"/>
   </g>
   <g id="patch_36">
    <path d="M 130.605383 295.179844 
L 140.31335 295.179844 
L 140.31335 295.153298 
L 130.605383 295.153298 
z
" clip-path="url(#p10134016d3)" style="fill: #a60628; stroke: #000000; stroke-width: 0.5; stroke-linejoin: miter"/>
   </g>
   <g id="patch_37">
    <path d="M 140.31335 295.179844 
L 150.021318 295.179844 
L 150.021318 295.106558 
L 140.31335 295.106558 
z
" clip-path="url(#p10134016d3)" style="fill: #a60628; stroke: #000000; stroke-width: 0.5; stroke-linejoin: miter"/>
   </g>
   <g id="patch_38">
    <path d="M 150.021318 295.179844 
L 159.729285 295.179844 
L 159.729285 294.707899 
L 150.021318 294.707899 
z
" clip-path="url(#p10134016d3)" style="fill: #a60628; stroke: #000000; stroke-width: 0.5; stroke-linejoin: miter"/>
   </g>
   <g id="patch_39">
    <path d="M 159.729285 295.179844 
L 169.437252 295.179844 
L 169.437252 293.253349 
L 159.729285 293.253349 
z
" clip-path="url(#p10134016d3)" style="fill: #a60628; stroke: #000000; stroke-width: 0.5; stroke-linejoin: miter"/>
   </g>
   <g id="patch_40">
    <path d="M 169.437252 295.179844 
L 179.14522 295.179844 
L 179.14522 290.540033 
L 169.437252 290.540033 
z
" clip-path="url(#p10134016d3)" style="fill: #a60628; stroke: #000000; stroke-width: 0.5; stroke-linejoin: miter"/>
   </g>
   <g id="patch_41">
    <path d="M 179.14522 295.179844 
L 188.853187 295.179844 
L 188.853187 283.936684 
L 179.14522 283.936684 
z
" clip-path="url(#p10134016d3)" style="fill: #a60628; stroke: #000000; stroke-width: 0.5; stroke-linejoin: miter"/>
   </g>
   <g id="patch_42">
    <path d="M 188.853187 295.179844 
L 198.561154 295.179844 
L 198.561154 270.362819 
L 188.853187 270.362819 
z
" clip-path="url(#p10134016d3)" style="fill: #a60628; stroke: #000000; stroke-width: 0.5; stroke-linejoin: miter"/>
   </g>
   <g id="patch_43">
    <path d="M 198.561154 295.179844 
L 208.269122 295.179844 
L 208.269122 244.688631 
L 198.561154 244.688631 
z
" clip-path="url(#p10134016d3)" style="fill: #a60628; stroke: #000000; stroke-width: 0.5; stroke-linejoin: miter"/>
   </g>
   <g id="patch_44">
    <path d="M 208.269122 295.179844 
L 217.977089 295.179844 
L 217.977089 198.912253 
L 208.269122 198.912253 
z
" clip-path="url(#p10134016d3)" style="fill: #a60628; stroke: #000000; stroke-width: 0.5; stroke-linejoin: miter"/>
   </g>
   <g id="patch_45">
    <path d="M 217.977089 295.179844 
L 227.685056 295.179844 
L 227.685056 135.31103 
L 217.977089 135.31103 
z
" clip-path="url(#p10134016d3)" style="fill: #a60628; stroke: #000000; stroke-width: 0.5; stroke-linejoin: miter"/>
   </g>
   <g id="patch_46">
    <path d="M 227.685056 295.179844 
L 237.393024 295.179844 
L 237.393024 77.989655 
L 227.685056 77.989655 
z
" clip-path="url(#p10134016d3)" style="fill: #a60628; stroke: #000000; stroke-width: 0.5; stroke-linejoin: miter"/>
   </g>
   <g id="patch_47">
    <path d="M 237.393024 295.179844 
L 247.100991 295.179844 
L 247.100991 83.072123 
L 237.393024 83.072123 
z
" clip-path="url(#p10134016d3)" style="fill: #a60628; stroke: #000000; stroke-width: 0.5; stroke-linejoin: miter"/>
   </g>
   <g id="patch_48">
    <path d="M 247.100991 295.179844 
L 256.808958 295.179844 
L 256.808958 140.968617 
L 247.100991 140.968617 
z
" clip-path="url(#p10134016d3)" style="fill: #a60628; stroke: #000000; stroke-width: 0.5; stroke-linejoin: miter"/>
   </g>
   <g id="patch_49">
    <path d="M 256.808958 295.179844 
L 266.516926 295.179844 
L 266.516926 200.296928 
L 256.808958 200.296928 
z
" clip-path="url(#p10134016d3)" style="fill: #a60628; stroke: #000000; stroke-width: 0.5; stroke-linejoin: miter"/>
   </g>
   <g id="patch_50">
    <path d="M 266.516926 295.179844 
L 276.224893 295.179844 
L 276.224893 243.879879 
L 266.516926 243.879879 
z
" clip-path="url(#p10134016d3)" style="fill: #a60628; stroke: #000000; stroke-width: 0.5; stroke-linejoin: miter"/>
   </g>
   <g id="patch_51">
    <path d="M 276.224893 295.179844 
L 285.93286 295.179844 
L 285.93286 270.776724 
L 276.224893 270.776724 
z
" clip-path="url(#p10134016d3)" style="fill: #a60628; stroke: #000000; stroke-width: 0.5; stroke-linejoin: miter"/>
   </g>
   <g id="patch_52">
    <path d="M 285.93286 295.179844 
L 295.640828 295.179844 
L 295.640828 284.277436 
L 285.93286 284.277436 
z
" clip-path="url(#p10134016d3)" style="fill: #a60628; stroke: #000000; stroke-width: 0.5; stroke-linejoin: miter"/>
   </g>
   <g id="patch_53">
    <path d="M 295.640828 295.179844 
L 305.348795 295.179844 
L 305.348795 290.806698 
L 295.640828 290.806698 
z
" clip-path="url(#p10134016d3)" style="fill: #a60628; stroke: #000000; stroke-width: 0.5; stroke-linejoin: miter"/>
   </g>
   <g id="patch_54">
    <path d="M 305.348795 295.179844 
L 315.056762 295.179844 
L 315.056762 293.610283 
L 305.348795 293.610283 
z
" clip-path="url(#p10134016d3)" style="fill: #a60628; stroke: #000000; stroke-width: 0.5; stroke-linejoin: miter"/>
   </g>
   <g id="patch_55">
    <path d="M 315.056762 295.179844 
L 324.76473 295.179844 
L 324.76473 294.509238 
L 315.056762 294.509238 
z
" clip-path="url(#p10134016d3)" style="fill: #a60628; stroke: #000000; stroke-width: 0.5; stroke-linejoin: miter"/>
   </g>
   <g id="patch_56">
    <path d="M 324.76473 295.179844 
L 334.472697 295.179844 
L 334.472697 294.924279 
L 324.76473 294.924279 
z
" clip-path="url(#p10134016d3)" style="fill: #a60628; stroke: #000000; stroke-width: 0.5; stroke-linejoin: miter"/>
   </g>
   <g id="patch_57">
    <path d="M 334.472697 295.179844 
L 344.180665 295.179844 
L 344.180665 295.098668 
L 334.472697 295.098668 
z
" clip-path="url(#p10134016d3)" style="fill: #a60628; stroke: #000000; stroke-width: 0.5; stroke-linejoin: miter"/>
   </g>
   <g id="patch_58">
    <path d="M 344.180665 295.179844 
L 353.888632 295.179844 
L 353.888632 295.158179 
L 344.180665 295.158179 
z
" clip-path="url(#p10134016d3)" style="fill: #a60628; stroke: #000000; stroke-width: 0.5; stroke-linejoin: miter"/>
   </g>
   <g id="patch_59">
    <path d="M 353.888632 295.179844 
L 363.596599 295.179844 
L 363.596599 295.171419 
L 353.888632 295.171419 
z
" clip-path="url(#p10134016d3)" style="fill: #a60628; stroke: #000000; stroke-width: 0.5; stroke-linejoin: miter"/>
   </g>
   <g id="patch_60">
    <path d="M 363.596599 295.179844 
L 373.304567 295.179844 
L 373.304567 295.174762 
L 363.596599 295.174762 
z
" clip-path="url(#p10134016d3)" style="fill: #a60628; stroke: #000000; stroke-width: 0.5; stroke-linejoin: miter"/>
   </g>
   <g id="patch_61">
    <path d="M 373.304567 295.179844 
L 383.012534 295.179844 
L 383.012534 295.17757 
L 373.304567 295.17757 
z
" clip-path="url(#p10134016d3)" style="fill: #a60628; stroke: #000000; stroke-width: 0.5; stroke-linejoin: miter"/>
   </g>
   <g id="patch_62">
    <path d="M 383.012534 295.179844 
L 392.720501 295.179844 
L 392.720501 295.17844 
L 383.012534 295.17844 
z
" clip-path="url(#p10134016d3)" style="fill: #a60628; stroke: #000000; stroke-width: 0.5; stroke-linejoin: miter"/>
   </g>
   <g id="line2d_129">
    <path d="M 105.173852 295.179833 
L 156.805403 294.958933 
L 161.230964 294.622421 
L 171.557274 292.926833 
L 175.982836 291.788919 
L 178.93321 290.70947 
L 180.408397 290.169003 
L 181.883585 289.459323 
L 183.358772 288.58932 
L 186.309146 286.432302 
L 189.25952 283.877048 
L 193.685082 278.711408 
L 195.160269 276.838604 
L 196.635456 274.648773 
L 198.110643 271.852652 
L 202.536205 262.219337 
L 205.486579 254.463895 
L 208.436953 244.901499 
L 209.912141 239.599742 
L 212.862515 226.938808 
L 214.337702 219.632056 
L 218.763264 194.753009 
L 221.713638 176.937815 
L 224.664012 157.427867 
L 227.614387 135.653559 
L 230.564761 114.45231 
L 233.515135 94.313008 
L 234.990322 86.049453 
L 236.46551 79.119806 
L 239.415884 68.525558 
L 240.891071 67.037289 
L 242.366258 67.062594 
L 243.841445 68.978971 
L 245.316632 73.70043 
L 246.79182 79.12085 
L 248.267007 86.153869 
L 251.217381 104.101276 
L 252.692568 113.366008 
L 255.642943 133.203495 
L 258.593317 152.945805 
L 263.018878 181.92896 
L 265.969253 198.206159 
L 271.870001 226.996269 
L 273.345189 233.615695 
L 274.820376 239.563733 
L 280.721124 259.477773 
L 282.196312 263.220794 
L 285.146686 269.787935 
L 286.621873 272.629735 
L 289.572247 277.349452 
L 292.522622 281.050585 
L 293.997809 283.107429 
L 295.472996 284.234523 
L 298.42337 287.052698 
L 301.373745 289.00183 
L 307.274493 291.639777 
L 308.74968 292.219746 
L 313.175242 293.345845 
L 314.650429 293.656065 
L 319.075991 294.165788 
L 336.778237 294.976674 
L 353.005295 295.15567 
L 372.182728 295.173119 
L 398.736097 295.179834 
L 398.736097 295.179834 
" clip-path="url(#p10134016d3)" style="fill: none; stroke-dasharray: 7.4,3.2; stroke-dashoffset: 0; stroke: #79011b; stroke-width: 2"/>
   </g>
   <g id="line2d_130">
    <path d="M 111.842797 295.179835 
L 161.81586 295.072479 
L 167.527068 294.816011 
L 170.382671 294.489507 
L 176.093879 293.509669 
L 178.949482 292.977331 
L 184.66069 291.348221 
L 187.516293 290.066128 
L 190.371897 288.100888 
L 193.227501 285.70949 
L 196.083104 282.951826 
L 197.510906 280.937623 
L 198.938708 278.556841 
L 200.36651 275.889754 
L 203.222113 269.71351 
L 206.077717 261.61084 
L 208.933321 252.107674 
L 210.361122 246.682832 
L 213.216726 233.432496 
L 214.644528 226.060075 
L 217.500132 209.019797 
L 218.927933 199.801411 
L 221.783537 179.081271 
L 226.066943 143.56519 
L 231.77815 91.066788 
L 234.633754 67.253898 
L 236.061555 57.39793 
L 237.489357 49.874173 
L 238.917159 43.140569 
L 240.344961 38.994367 
L 241.772763 36.151272 
L 243.200564 38.080481 
L 244.628366 41.866485 
L 246.056168 48.578028 
L 247.48397 56.728265 
L 250.339574 78.4387 
L 251.767375 90.001093 
L 256.050781 128.079359 
L 260.334186 164.002579 
L 263.18979 185.631947 
L 266.045394 205.065259 
L 268.900997 221.283225 
L 270.328799 229.002927 
L 271.756601 235.95531 
L 276.040006 254.035102 
L 277.467808 258.775413 
L 280.323412 266.967959 
L 281.751214 270.653144 
L 284.606817 276.744092 
L 287.462421 281.323845 
L 288.890223 283.212876 
L 291.745826 286.42434 
L 294.60143 288.470034 
L 296.029232 289.540747 
L 298.884836 291.231395 
L 301.740439 292.246276 
L 303.168241 292.577045 
L 306.023845 293.387559 
L 308.879448 293.965382 
L 318.874061 294.722723 
L 336.007683 295.1314 
L 347.430098 295.168299 
L 395.97536 295.179834 
L 395.97536 295.179834 
" clip-path="url(#p10134016d3)" style="fill: none; stroke-dasharray: 7.4,3.2; stroke-dashoffset: 0; stroke: #000080; stroke-width: 2"/>
   </g>
   <g id="patch_63">
    <path d="M 86.61875 295.179844 
L 86.61875 23.199844 
" style="fill: none; stroke: #bcbcbc; stroke-linejoin: miter; stroke-linecap: square"/>
   </g>
   <g id="patch_64">
    <path d="M 413.598828 295.179844 
L 413.598828 23.199844 
" style="fill: none; stroke: #bcbcbc; stroke-linejoin: miter; stroke-linecap: square"/>
   </g>
   <g id="patch_65">
    <path d="M 86.61875 295.179844 
L 413.598828 295.179844 
" style="fill: none; stroke: #bcbcbc; stroke-linejoin: miter; stroke-linecap: square"/>
   </g>
   <g id="patch_66">
    <path d="M 86.61875 23.199844 
L 413.598828 23.199844 
" style="fill: none; stroke: #bcbcbc; stroke-linejoin: miter; stroke-linecap: square"/>
   </g>
   <g id="text_15">
    <!-- Resíduo -->
    <g style="fill: #212121" transform="translate(212.635742 17.199844) scale(0.19 -0.19)">
     <defs>
      <path id="Arial-BoldMT-52" d="M 469 0 
L 469 4581 
L 2416 4581 
Q 3150 4581 3483 4457 
Q 3816 4334 4016 4018 
Q 4216 3703 4216 3297 
Q 4216 2781 3912 2445 
Q 3609 2109 3006 2022 
Q 3306 1847 3501 1637 
Q 3697 1428 4028 894 
L 4588 0 
L 3481 0 
L 2813 997 
Q 2456 1531 2325 1670 
Q 2194 1809 2047 1861 
Q 1900 1913 1581 1913 
L 1394 1913 
L 1394 0 
L 469 0 
z
M 1394 2644 
L 2078 2644 
Q 2744 2644 2909 2700 
Q 3075 2756 3169 2893 
Q 3263 3031 3263 3238 
Q 3263 3469 3139 3611 
Q 3016 3753 2791 3791 
Q 2678 3806 2116 3806 
L 1394 3806 
L 1394 2644 
z
" transform="scale(0.015625)"/>
      <path id="Arial-BoldMT-65" d="M 2381 1056 
L 3256 909 
Q 3088 428 2723 176 
Q 2359 -75 1813 -75 
Q 947 -75 531 491 
Q 203 944 203 1634 
Q 203 2459 634 2926 
Q 1066 3394 1725 3394 
Q 2466 3394 2894 2905 
Q 3322 2416 3303 1406 
L 1103 1406 
Q 1113 1016 1316 798 
Q 1519 581 1822 581 
Q 2028 581 2168 693 
Q 2309 806 2381 1056 
z
M 2431 1944 
Q 2422 2325 2234 2523 
Q 2047 2722 1778 2722 
Q 1491 2722 1303 2513 
Q 1116 2303 1119 1944 
L 2431 1944 
z
" transform="scale(0.015625)"/>
      <path id="Arial-BoldMT-73" d="M 150 947 
L 1031 1081 
Q 1088 825 1259 692 
Q 1431 559 1741 559 
Q 2081 559 2253 684 
Q 2369 772 2369 919 
Q 2369 1019 2306 1084 
Q 2241 1147 2013 1200 
Q 950 1434 666 1628 
Q 272 1897 272 2375 
Q 272 2806 612 3100 
Q 953 3394 1669 3394 
Q 2350 3394 2681 3172 
Q 3013 2950 3138 2516 
L 2309 2363 
Q 2256 2556 2107 2659 
Q 1959 2763 1684 2763 
Q 1338 2763 1188 2666 
Q 1088 2597 1088 2488 
Q 1088 2394 1175 2328 
Q 1294 2241 1995 2081 
Q 2697 1922 2975 1691 
Q 3250 1456 3250 1038 
Q 3250 581 2869 253 
Q 2488 -75 1741 -75 
Q 1063 -75 667 200 
Q 272 475 150 947 
z
" transform="scale(0.015625)"/>
      <path id="Arial-BoldMT-ed" d="M 459 0 
L 459 3319 
L 1338 3319 
L 1338 0 
L 459 0 
z
M 392 3725 
L 824 4659 
L 1808 4659 
L 949 3725 
L 392 3725 
z
" transform="scale(0.015625)"/>
      <path id="Arial-BoldMT-64" d="M 3503 0 
L 2688 0 
L 2688 488 
Q 2484 203 2207 64 
Q 1931 -75 1650 -75 
Q 1078 -75 670 386 
Q 263 847 263 1672 
Q 263 2516 659 2955 
Q 1056 3394 1663 3394 
Q 2219 3394 2625 2931 
L 2625 4581 
L 3503 4581 
L 3503 0 
z
M 1159 1731 
Q 1159 1200 1306 963 
Q 1519 619 1900 619 
Q 2203 619 2415 876 
Q 2628 1134 2628 1647 
Q 2628 2219 2422 2470 
Q 2216 2722 1894 2722 
Q 1581 2722 1370 2473 
Q 1159 2225 1159 1731 
z
" transform="scale(0.015625)"/>
      <path id="Arial-BoldMT-75" d="M 2644 0 
L 2644 497 
Q 2463 231 2167 78 
Q 1872 -75 1544 -75 
Q 1209 -75 943 72 
Q 678 219 559 484 
Q 441 750 441 1219 
L 441 3319 
L 1319 3319 
L 1319 1794 
Q 1319 1094 1367 936 
Q 1416 778 1544 686 
Q 1672 594 1869 594 
Q 2094 594 2272 717 
Q 2450 841 2515 1023 
Q 2581 1206 2581 1919 
L 2581 3319 
L 3459 3319 
L 3459 0 
L 2644 0 
z
" transform="scale(0.015625)"/>
      <path id="Arial-BoldMT-6f" d="M 256 1706 
Q 256 2144 472 2553 
Q 688 2963 1083 3178 
Q 1478 3394 1966 3394 
Q 2719 3394 3200 2905 
Q 3681 2416 3681 1669 
Q 3681 916 3195 420 
Q 2709 -75 1972 -75 
Q 1516 -75 1102 131 
Q 688 338 472 736 
Q 256 1134 256 1706 
z
M 1156 1659 
Q 1156 1166 1390 903 
Q 1625 641 1969 641 
Q 2313 641 2545 903 
Q 2778 1166 2778 1666 
Q 2778 2153 2545 2415 
Q 2313 2678 1969 2678 
Q 1625 2678 1390 2415 
Q 1156 2153 1156 1659 
z
" transform="scale(0.015625)"/>
     </defs>
     <use xlink:href="#Arial-BoldMT-52"/>
     <use xlink:href="#Arial-BoldMT-65" x="72.216797"/>
     <use xlink:href="#Arial-BoldMT-73" x="127.832031"/>
     <use xlink:href="#Arial-BoldMT-ed" x="183.447266"/>
     <use xlink:href="#Arial-BoldMT-64" x="211.230469"/>
     <use xlink:href="#Arial-BoldMT-75" x="272.314453"/>
     <use xlink:href="#Arial-BoldMT-6f" x="333.398438"/>
    </g>
   </g>
   <g id="legend_1">
    <g id="patch_67">
     <path d="M 269.391328 81.264844 
L 402.398828 81.264844 
Q 405.598828 81.264844 405.598828 78.064844 
L 405.598828 34.399844 
Q 405.598828 31.199844 402.398828 31.199844 
L 269.391328 31.199844 
Q 266.191328 31.199844 266.191328 34.399844 
L 266.191328 78.064844 
Q 266.191328 81.264844 269.391328 81.264844 
z
" style="fill: #eeeeee; stroke: #cccccc; stroke-width: 0.5; stroke-linejoin: miter"/>
    </g>
    <g id="patch_68">
     <path d="M 272.591328 49.052344 
L 304.591328 49.052344 
L 304.591328 37.852344 
L 272.591328 37.852344 
z
" style="fill: #0072b2; stroke: #000000; stroke-width: 0.5; stroke-linejoin: miter"/>
    </g>
    <g id="text_16">
     <!-- Ricker -->
     <g transform="translate(317.391328 49.052344) scale(0.16 -0.16)">
      <defs>
       <path id="ArialMT-52" d="M 503 0 
L 503 4581 
L 2534 4581 
Q 3147 4581 3465 4457 
Q 3784 4334 3975 4021 
Q 4166 3709 4166 3331 
Q 4166 2844 3850 2509 
Q 3534 2175 2875 2084 
Q 3116 1969 3241 1856 
Q 3506 1613 3744 1247 
L 4541 0 
L 3778 0 
L 3172 953 
Q 2906 1366 2734 1584 
Q 2563 1803 2427 1890 
Q 2291 1978 2150 2013 
Q 2047 2034 1813 2034 
L 1109 2034 
L 1109 0 
L 503 0 
z
M 1109 2559 
L 2413 2559 
Q 2828 2559 3062 2645 
Q 3297 2731 3419 2920 
Q 3541 3109 3541 3331 
Q 3541 3656 3305 3865 
Q 3069 4075 2559 4075 
L 1109 4075 
L 1109 2559 
z
" transform="scale(0.015625)"/>
       <path id="ArialMT-6b" d="M 425 0 
L 425 4581 
L 988 4581 
L 988 1969 
L 2319 3319 
L 3047 3319 
L 1778 2088 
L 3175 0 
L 2481 0 
L 1384 1697 
L 988 1316 
L 988 0 
L 425 0 
z
" transform="scale(0.015625)"/>
       <path id="ArialMT-72" d="M 416 0 
L 416 3319 
L 922 3319 
L 922 2816 
Q 1116 3169 1280 3281 
Q 1444 3394 1641 3394 
Q 1925 3394 2219 3213 
L 2025 2691 
Q 1819 2813 1613 2813 
Q 1428 2813 1281 2702 
Q 1134 2591 1072 2394 
Q 978 2094 978 1738 
L 978 0 
L 416 0 
z
" transform="scale(0.015625)"/>
      </defs>
      <use xlink:href="#ArialMT-52"/>
      <use xlink:href="#ArialMT-69" x="72.216797"/>
      <use xlink:href="#ArialMT-63" x="94.433594"/>
      <use xlink:href="#ArialMT-6b" x="144.433594"/>
      <use xlink:href="#ArialMT-65" x="194.433594"/>
      <use xlink:href="#ArialMT-72" x="250.048828"/>
     </g>
    </g>
    <g id="patch_69">
     <path d="M 272.591328 71.684844 
L 304.591328 71.684844 
L 304.591328 60.484844 
L 272.591328 60.484844 
z
" style="fill: #a60628; stroke: #000000; stroke-width: 0.5; stroke-linejoin: miter"/>
    </g>
    <g id="text_17">
     <!-- Butterworth -->
     <g transform="translate(317.391328 71.684844) scale(0.16 -0.16)">
      <defs>
       <path id="ArialMT-42" d="M 469 0 
L 469 4581 
L 2188 4581 
Q 2713 4581 3030 4442 
Q 3347 4303 3526 4014 
Q 3706 3725 3706 3409 
Q 3706 3116 3547 2856 
Q 3388 2597 3066 2438 
Q 3481 2316 3704 2022 
Q 3928 1728 3928 1328 
Q 3928 1006 3792 729 
Q 3656 453 3456 303 
Q 3256 153 2954 76 
Q 2653 0 2216 0 
L 469 0 
z
M 1075 2656 
L 2066 2656 
Q 2469 2656 2644 2709 
Q 2875 2778 2992 2937 
Q 3109 3097 3109 3338 
Q 3109 3566 3000 3739 
Q 2891 3913 2687 3977 
Q 2484 4041 1991 4041 
L 1075 4041 
L 1075 2656 
z
M 1075 541 
L 2216 541 
Q 2509 541 2628 563 
Q 2838 600 2978 687 
Q 3119 775 3209 942 
Q 3300 1109 3300 1328 
Q 3300 1584 3169 1773 
Q 3038 1963 2805 2039 
Q 2572 2116 2134 2116 
L 1075 2116 
L 1075 541 
z
" transform="scale(0.015625)"/>
       <path id="ArialMT-75" d="M 2597 0 
L 2597 488 
Q 2209 -75 1544 -75 
Q 1250 -75 995 37 
Q 741 150 617 320 
Q 494 491 444 738 
Q 409 903 409 1263 
L 409 3319 
L 972 3319 
L 972 1478 
Q 972 1038 1006 884 
Q 1059 663 1231 536 
Q 1403 409 1656 409 
Q 1909 409 2131 539 
Q 2353 669 2445 892 
Q 2538 1116 2538 1541 
L 2538 3319 
L 3100 3319 
L 3100 0 
L 2597 0 
z
" transform="scale(0.015625)"/>
       <path id="ArialMT-77" d="M 1034 0 
L 19 3319 
L 600 3319 
L 1128 1403 
L 1325 691 
Q 1338 744 1497 1375 
L 2025 3319 
L 2603 3319 
L 3100 1394 
L 3266 759 
L 3456 1400 
L 4025 3319 
L 4572 3319 
L 3534 0 
L 2950 0 
L 2422 1988 
L 2294 2553 
L 1622 0 
L 1034 0 
z
" transform="scale(0.015625)"/>
       <path id="ArialMT-6f" d="M 213 1659 
Q 213 2581 725 3025 
Q 1153 3394 1769 3394 
Q 2453 3394 2887 2945 
Q 3322 2497 3322 1706 
Q 3322 1066 3130 698 
Q 2938 331 2570 128 
Q 2203 -75 1769 -75 
Q 1072 -75 642 372 
Q 213 819 213 1659 
z
M 791 1659 
Q 791 1022 1069 705 
Q 1347 388 1769 388 
Q 2188 388 2466 706 
Q 2744 1025 2744 1678 
Q 2744 2294 2464 2611 
Q 2184 2928 1769 2928 
Q 1347 2928 1069 2612 
Q 791 2297 791 1659 
z
" transform="scale(0.015625)"/>
       <path id="ArialMT-68" d="M 422 0 
L 422 4581 
L 984 4581 
L 984 2938 
Q 1378 3394 1978 3394 
Q 2347 3394 2619 3248 
Q 2891 3103 3008 2847 
Q 3125 2591 3125 2103 
L 3125 0 
L 2563 0 
L 2563 2103 
Q 2563 2525 2380 2717 
Q 2197 2909 1863 2909 
Q 1613 2909 1392 2779 
Q 1172 2650 1078 2428 
Q 984 2206 984 1816 
L 984 0 
L 422 0 
z
" transform="scale(0.015625)"/>
      </defs>
      <use xlink:href="#ArialMT-42"/>
      <use xlink:href="#ArialMT-75" x="66.699219"/>
      <use xlink:href="#ArialMT-74" x="122.314453"/>
      <use xlink:href="#ArialMT-74" x="150.097656"/>
      <use xlink:href="#ArialMT-65" x="177.880859"/>
      <use xlink:href="#ArialMT-72" x="233.496094"/>
      <use xlink:href="#ArialMT-77" x="266.796875"/>
      <use xlink:href="#ArialMT-6f" x="339.013672"/>
      <use xlink:href="#ArialMT-72" x="394.628906"/>
      <use xlink:href="#ArialMT-74" x="427.929688"/>
      <use xlink:href="#ArialMT-68" x="455.712891"/>
     </g>
    </g>
   </g>
  </g>
 </g>
 <defs>
  <clipPath id="p10134016d3">
   <rect x="86.61875" y="23.199844" width="326.980078" height="271.98"/>
  </clipPath>
 </defs>
</svg>
